<?xml version="1.0" encoding="utf-8"?>
<!-- Generator: Adobe Illustrator 24.1.2, SVG Export Plug-In . SVG Version: 6.00 Build 0)  -->
<svg version="1.1" id="Layer_1" xmlns="http://www.w3.org/2000/svg" xmlns:xlink="http://www.w3.org/1999/xlink" x="0px" y="0px"
	 viewBox="0 0 350.65 221.52" style="enable-background:new 0 0 350.65 221.52;" xml:space="preserve">
<style type="text/css">
	.st0{fill:#27F72D;}
</style>
<g>
	<path class="st0" d="M19.66,19.97l-0.62,3.43c5.2-8.32,9.88-13.93,14.04-16.85c4.16-2.91,9.77-4.37,16.85-4.37
		c10.19,0,22.15,5.3,35.88,15.91c15.39,11.86,27.25,17.78,35.57,17.78c8.74,0,14.14-3.01,16.22-9.05h-2.5
		c-2.91,0-5.57-1.26-7.96-3.79c-2.39-2.53-3.59-5.36-3.59-8.52c0-4,1.51-7.42,4.52-10.26c3.01-2.84,6.6-4.26,10.76-4.26
		c13.73,0,20.59,9.28,20.59,27.85c0,13.77-3.43,25.87-10.29,36.29c-4.37,6.47-9.05,12.1-14.04,16.9c-2.29,2.3-6.86,6.47-13.73,12.51
		c-14.15,12.31-23.82,23.68-29.02,34.11c-7.49,14.81-11.23,32.75-11.23,53.82c0-0.42,0.1,1.88,0.31,6.88
		c0.41,10.01,0.62,14.5,0.62,13.46c0,13.14-5.2,19.71-15.6,19.71c-10.82,0-16.22-8.53-16.22-25.58c0-26.83,4.99-50.23,14.98-70.2
		c8.11-16.22,25.37-35.15,51.79-56.78c10.81-8.94,16.95-16.33,18.41-22.15c-7.11,6.04-16.11,9.05-26.98,9.05
		c-13.39,0-26.46-4.78-39.21-14.35l-12.86-9.67c-4.6-3.32-9.73-4.99-15.38-4.99c-13.39,0-20.08,8.53-20.08,25.58
		c0,5.2,0.49,9.88,1.48,14.04c1.72,7.28,2.58,12.69,2.58,16.22c0,3.54-1.2,6.55-3.59,9.05c-2.39,2.5-5.36,3.74-8.89,3.74
		C4.16,95.47,0,91,0,82.06c0-3.53,0.47-8.94,1.4-16.22c0.94-7.28,1.4-12.89,1.4-16.85c0-5.82-0.31-12.06-0.94-18.72
		c-0.62-6.65-0.94-12.48-0.94-17.47C0.94,4.27,4.57,0,11.86,0c6.03,0,9.05,3.64,9.05,10.92C20.9,12.38,20.48,15.4,19.66,19.97z"/>
	<path class="st0" d="M210.88,19.97l-0.62,3.43c5.2-8.32,9.88-13.93,14.04-16.85c4.16-2.91,9.77-4.37,16.85-4.37
		c10.19,0,22.15,5.3,35.88,15.91c15.39,11.86,27.25,17.78,35.57,17.78c8.74,0,14.14-3.01,16.22-9.05h-2.5
		c-2.92,0-5.57-1.26-7.96-3.79c-2.39-2.53-3.59-5.36-3.59-8.52c0-4,1.51-7.42,4.52-10.26C322.31,1.42,325.9,0,330.06,0
		c13.73,0,20.59,9.28,20.59,27.85c0,13.77-3.43,25.87-10.3,36.29c-4.37,6.47-9.05,12.1-14.04,16.9c-2.29,2.3-6.86,6.47-13.73,12.51
		c-14.15,12.31-23.82,23.68-29.02,34.11c-7.49,14.81-11.23,32.75-11.23,53.82c0-0.42,0.1,1.88,0.31,6.88
		c0.42,10.01,0.62,14.5,0.62,13.46c0,13.14-5.2,19.71-15.6,19.71c-10.82,0-16.22-8.53-16.22-25.58c0-26.83,4.99-50.23,14.98-70.2
		c8.11-16.22,25.37-35.15,51.79-56.78c10.81-8.94,16.95-16.33,18.41-22.15c-7.11,6.04-16.11,9.05-26.98,9.05
		c-13.39,0-26.46-4.78-39.21-14.35l-12.86-9.67c-4.6-3.32-9.73-4.99-15.38-4.99c-13.39,0-20.08,8.53-20.08,25.58
		c0,5.2,0.49,9.88,1.48,14.04c1.72,7.28,2.58,12.69,2.58,16.22c0,3.54-1.2,6.55-3.59,9.05c-2.39,2.5-5.36,3.74-8.89,3.74
		c-8.32,0-12.48-4.47-12.48-13.42c0-3.53,0.47-8.94,1.4-16.22c0.94-7.28,1.4-12.89,1.4-16.85c0-5.82-0.31-12.06-0.94-18.72
		c-0.62-6.65-0.94-12.48-0.94-17.47C192.16,4.27,195.8,0,203.08,0c6.03,0,9.05,3.64,9.05,10.92
		C212.13,12.38,211.71,15.4,210.88,19.97z"/>
</g>
</svg>
