<?xml version="1.0" encoding="utf-8"?>
<!-- Generator: Adobe Illustrator 24.1.2, SVG Export Plug-In . SVG Version: 6.00 Build 0)  -->
<svg version="1.1" id="Layer_1" xmlns="http://www.w3.org/2000/svg" xmlns:xlink="http://www.w3.org/1999/xlink" x="0px" y="0px"
	 viewBox="0 0 563.56 14.88" style="enable-background:new 0 0 563.56 14.88;" xml:space="preserve">
<g>
	<path d="M8.97,9.95L8.36,8.29C8.29,8.11,8.22,8,8.15,7.96S7.93,7.89,7.7,7.89H4.7c-0.23,0-0.38,0.04-0.46,0.12S4.04,8.3,3.9,8.65
		l-0.49,1.3c-0.04,0.12-0.07,0.24-0.07,0.35c0,0.36,0.22,0.54,0.66,0.54c0.11,0,0.27-0.01,0.48-0.03c0.21-0.02,0.36-0.03,0.46-0.03
		c0.46,0,0.69,0.2,0.69,0.59c0,0.37-0.25,0.56-0.76,0.56c-0.09,0-0.21-0.01-0.37-0.03l-0.84-0.11c-0.16-0.02-0.42-0.03-0.78-0.03
		c-0.39,0-0.67,0.01-0.83,0.03l-0.71,0.08c-0.32,0.04-0.55,0.06-0.69,0.06C0.22,11.93,0,11.74,0,11.37c0-0.39,0.21-0.59,0.64-0.59
		c0.09,0,0.16,0.02,0.2,0.07h0.22c0.3,0,0.53-0.12,0.69-0.36c0.07-0.09,0.18-0.36,0.34-0.8l3.14-8.53C5.42,0.69,5.77,0.46,6.3,0.46
		c0.52,0,0.86,0.24,1.03,0.71l3.02,8.38c0.19,0.53,0.37,0.88,0.52,1.05s0.38,0.25,0.68,0.25c0.09,0,0.16-0.01,0.2-0.02l0.47-0.04
		c0.43,0,0.64,0.19,0.64,0.56c0,0.39-0.21,0.59-0.64,0.59c-0.12,0-0.29-0.01-0.49-0.04c-0.71-0.09-1.24-0.13-1.59-0.13
		c-0.42,0-1.09,0.04-2.03,0.14c-0.24,0.02-0.42,0.03-0.54,0.03c-0.45,0-0.68-0.19-0.68-0.57s0.25-0.57,0.74-0.57
		c0.1,0,0.25,0.01,0.45,0.03c0.2,0.02,0.35,0.03,0.45,0.03c0.37,0,0.56-0.15,0.56-0.46C9.11,10.34,9.06,10.2,8.97,9.95z M7.75,6.5
		L6.23,1.84L4.68,6.5C4.66,6.57,4.65,6.61,4.65,6.62c0,0.1,0.08,0.15,0.25,0.15h2.69c0.14,0,0.2-0.04,0.2-0.14
		C7.79,6.62,7.78,6.57,7.75,6.5z"/>
	<path d="M16.05,4.81v5.25c0.01,0.57,0.17,0.86,0.46,0.86c0.07,0,0.21-0.03,0.43-0.08c0.14-0.02,0.23-0.03,0.27-0.03
		c0.38,0,0.56,0.19,0.56,0.57c0,0.37-0.23,0.56-0.69,0.56c-0.18,0-0.47-0.02-0.86-0.07c-0.39-0.04-0.7-0.07-0.91-0.07
		c-0.18,0-0.45,0.02-0.81,0.07c-0.36,0.04-0.62,0.07-0.79,0.07h-0.08c-0.47,0-0.71-0.2-0.71-0.61c0-0.35,0.19-0.52,0.58-0.52
		c0.02,0,0.06,0,0.12,0c0.07,0.02,0.12,0.02,0.15,0.02c0.28,0.06,0.45,0.09,0.49,0.09c0.2,0,0.33-0.09,0.38-0.26
		c0.05-0.17,0.08-0.63,0.09-1.36l0.02-1.19V5.47V2.45c-0.01-0.34-0.03-0.56-0.05-0.68c-0.08-0.26-0.24-0.39-0.47-0.39
		c-0.03,0-0.18,0.02-0.44,0.07c-0.12,0.02-0.23,0.03-0.3,0.03c-0.38,0-0.57-0.18-0.57-0.54c0-0.37,0.23-0.56,0.68-0.56
		c0.12,0,0.23,0.01,0.32,0.02l0.41,0.05c0.18,0.02,0.33,0.03,0.46,0.03c0.11,0,0.28-0.02,0.51-0.05c0.23-0.03,0.39-0.05,0.51-0.05
		c0.26,0,0.39,0.16,0.39,0.49c0,0.11-0.01,0.2-0.02,0.25C16.09,2,16.05,3.22,16.05,4.81z"/>
	<path d="M21.27,4.81v5.25c0.01,0.57,0.17,0.86,0.46,0.86c0.07,0,0.21-0.03,0.43-0.08c0.14-0.02,0.23-0.03,0.27-0.03
		c0.38,0,0.56,0.19,0.56,0.57c0,0.37-0.23,0.56-0.69,0.56c-0.18,0-0.47-0.02-0.86-0.07c-0.39-0.04-0.7-0.07-0.91-0.07
		c-0.18,0-0.45,0.02-0.81,0.07c-0.36,0.04-0.62,0.07-0.79,0.07h-0.08c-0.47,0-0.71-0.2-0.71-0.61c0-0.35,0.19-0.52,0.58-0.52
		c0.02,0,0.06,0,0.12,0c0.07,0.02,0.12,0.02,0.15,0.02c0.28,0.06,0.45,0.09,0.49,0.09c0.2,0,0.33-0.09,0.38-0.26
		c0.05-0.17,0.08-0.63,0.09-1.36l0.02-1.19V5.47V2.45c-0.01-0.34-0.03-0.56-0.05-0.68c-0.08-0.26-0.24-0.39-0.47-0.39
		c-0.03,0-0.18,0.02-0.44,0.07c-0.12,0.02-0.23,0.03-0.3,0.03c-0.38,0-0.57-0.18-0.57-0.54c0-0.37,0.23-0.56,0.68-0.56
		c0.12,0,0.23,0.01,0.32,0.02l0.41,0.05c0.18,0.02,0.33,0.03,0.46,0.03c0.11,0,0.28-0.02,0.51-0.05c0.23-0.03,0.39-0.05,0.51-0.05
		c0.26,0,0.39,0.16,0.39,0.49c0,0.11-0.01,0.2-0.02,0.25C21.31,2,21.27,3.22,21.27,4.81z"/>
	<path d="M32.98,6.28c0-0.45,0.28-0.71,0.84-0.78c-0.06-0.39-0.25-0.7-0.57-0.93c-0.32-0.23-0.73-0.34-1.24-0.34
		c-0.78,0-1.4,0.31-1.88,0.93c-0.47,0.62-0.71,1.44-0.71,2.47c0,1.06,0.22,1.89,0.67,2.49c0.44,0.6,1.06,0.9,1.85,0.9
		c0.5,0,0.93-0.14,1.29-0.42c0.37-0.28,0.62-0.67,0.75-1.17c0.11-0.39,0.18-0.62,0.2-0.68c0.12-0.22,0.3-0.34,0.54-0.34
		c0.19,0,0.35,0.06,0.47,0.19c0.12,0.12,0.19,0.28,0.19,0.47c0,0.28-0.09,0.62-0.27,1.01c-0.18,0.39-0.39,0.72-0.64,0.98
		c-0.66,0.71-1.53,1.06-2.58,1.06c-1.15,0-2.08-0.41-2.78-1.22c-0.7-0.81-1.06-1.88-1.06-3.19c0-1.4,0.36-2.51,1.09-3.35
		s1.69-1.26,2.9-1.26c0.9,0,1.65,0.25,2.25,0.74c0.6,0.49,0.9,1.11,0.9,1.87c0,0.42-0.12,0.76-0.35,1.03
		c-0.23,0.27-0.53,0.41-0.89,0.41c-0.28,0-0.52-0.08-0.7-0.25C33.07,6.74,32.98,6.53,32.98,6.28z"/>
	<path d="M39.33,4.81v5.25c0.01,0.57,0.17,0.86,0.46,0.86c0.07,0,0.21-0.03,0.43-0.08c0.14-0.02,0.23-0.03,0.27-0.03
		c0.38,0,0.56,0.19,0.56,0.57c0,0.37-0.23,0.56-0.69,0.56c-0.18,0-0.47-0.02-0.86-0.07c-0.39-0.04-0.7-0.07-0.91-0.07
		c-0.18,0-0.45,0.02-0.81,0.07c-0.36,0.04-0.62,0.07-0.79,0.07h-0.08c-0.47,0-0.71-0.2-0.71-0.61c0-0.35,0.19-0.52,0.58-0.52
		c0.02,0,0.06,0,0.12,0c0.07,0.02,0.12,0.02,0.15,0.02c0.28,0.06,0.45,0.09,0.49,0.09c0.2,0,0.33-0.09,0.38-0.26
		c0.05-0.17,0.08-0.63,0.09-1.36l0.02-1.19V5.47V2.45c-0.01-0.34-0.03-0.56-0.05-0.68c-0.08-0.26-0.24-0.39-0.47-0.39
		c-0.03,0-0.18,0.02-0.44,0.07c-0.12,0.02-0.23,0.03-0.3,0.03c-0.38,0-0.57-0.18-0.57-0.54c0-0.37,0.23-0.56,0.68-0.56
		c0.12,0,0.23,0.01,0.32,0.02l0.41,0.05c0.18,0.02,0.33,0.03,0.46,0.03c0.11,0,0.28-0.02,0.51-0.05c0.23-0.03,0.39-0.05,0.51-0.05
		c0.26,0,0.39,0.16,0.39,0.49c0,0.11-0.01,0.2-0.02,0.25C39.37,2,39.33,3.22,39.33,4.81z"/>
	<path d="M44.63,6.96v2.2c0,0.56,0.01,0.9,0.02,1c0.06,0.51,0.21,0.76,0.46,0.76c0.06,0,0.2-0.03,0.42-0.08
		c0.06-0.02,0.14-0.03,0.25-0.03c0.43,0,0.64,0.19,0.64,0.56c0,0.16-0.07,0.29-0.21,0.41s-0.32,0.17-0.53,0.17
		c-0.18,0-0.45-0.03-0.82-0.08c-0.37-0.05-0.64-0.08-0.82-0.08c-0.29,0-0.62,0.02-0.98,0.07c-0.44,0.06-0.73,0.08-0.88,0.08
		c-0.45,0-0.68-0.19-0.68-0.57c0-0.37,0.19-0.56,0.58-0.56c0.09,0,0.22,0.02,0.4,0.05s0.31,0.05,0.4,0.05
		c0.27,0,0.44-0.36,0.49-1.08c0-0.04,0-0.54,0-1.47V6.96c0-0.93,0-1.42,0-1.47c-0.06-0.71-0.23-1.06-0.51-1.06
		c-0.09,0-0.22,0.02-0.38,0.06c-0.16,0.04-0.29,0.06-0.37,0.06c-0.41,0-0.61-0.18-0.61-0.54c0-0.38,0.25-0.57,0.74-0.57
		c0.21,0,0.37,0,0.46,0.02c0.36,0.04,0.59,0.07,0.69,0.07c0.09,0,0.23-0.01,0.41-0.04c0.19-0.03,0.32-0.04,0.41-0.04
		c0.33,0,0.49,0.22,0.49,0.66c0,0.04,0,0.11-0.01,0.2c-0.01,0.09-0.01,0.16-0.01,0.2c-0.01,0.09-0.02,0.44-0.03,1.05
		C44.64,6,44.63,6.48,44.63,6.96z M43.75,2.53c-0.26,0-0.48-0.09-0.67-0.28c-0.19-0.19-0.28-0.41-0.28-0.67s0.09-0.48,0.28-0.66
		c0.19-0.18,0.41-0.27,0.67-0.27s0.48,0.09,0.67,0.27c0.19,0.18,0.28,0.4,0.28,0.66s-0.09,0.48-0.28,0.67
		C44.24,2.44,44.01,2.53,43.75,2.53z"/>
	<path d="M49.72,3.9v0.54c0.63-0.88,1.49-1.32,2.58-1.32c1.13,0,2.02,0.39,2.69,1.17s1,1.83,1,3.16c0,1.43-0.35,2.57-1.06,3.42
		c-0.7,0.85-1.65,1.28-2.83,1.28c-0.98,0-1.77-0.34-2.38-1.03v1.4c0,0.43,0.01,0.7,0.03,0.83c0.07,0.35,0.23,0.52,0.49,0.52
		c0.08,0,0.2-0.02,0.35-0.05c0.16-0.03,0.28-0.05,0.35-0.05c0.36,0,0.54,0.19,0.54,0.56c0,0.37-0.24,0.56-0.71,0.56
		c-0.17,0-0.42-0.02-0.76-0.07c-0.25-0.03-0.62-0.05-1.11-0.05c-0.27,0-0.49,0.01-0.67,0.03c-0.45,0.06-0.75,0.08-0.89,0.08
		c-0.19,0-0.35-0.06-0.49-0.17c-0.13-0.12-0.2-0.25-0.2-0.41c0-0.36,0.19-0.53,0.57-0.53c0.07,0,0.17,0.01,0.32,0.04
		c0.19,0.04,0.33,0.06,0.42,0.06c0.21,0,0.34-0.11,0.39-0.33c0.05-0.22,0.08-0.83,0.09-1.83V5.19c-0.01-0.52-0.16-0.78-0.44-0.78
		c-0.08,0-0.2,0.02-0.36,0.06c-0.16,0.04-0.29,0.06-0.38,0.06c-0.41,0-0.62-0.19-0.62-0.56c0-0.36,0.25-0.54,0.74-0.54
		c0.12,0,0.26,0,0.41,0.02c0.28,0.02,0.49,0.03,0.62,0.03c0.1,0,0.25-0.01,0.44-0.03c0.19-0.02,0.33-0.02,0.42-0.02
		C49.58,3.43,49.72,3.59,49.72,3.9z M49.97,5.96c-0.1,0.44-0.16,0.97-0.17,1.61c0,0.04-0.01,0.13-0.02,0.25c0,0.1,0,0.18,0,0.24
		c0,0.75,0.06,1.3,0.19,1.65c0.12,0.34,0.37,0.65,0.73,0.92c0.37,0.27,0.82,0.41,1.36,0.41c0.81,0,1.44-0.29,1.88-0.89
		c0.44-0.59,0.67-1.43,0.67-2.53c0-2.25-0.8-3.38-2.4-3.38c-0.54,0-1.02,0.16-1.44,0.49C50.35,5.06,50.08,5.47,49.97,5.96z"/>
	<path d="M60.82,3.12c0.75,0,1.38,0.2,1.89,0.59V3.65c0-0.42,0.18-0.62,0.54-0.62c0.37,0,0.56,0.18,0.56,0.54
		c0,0.07-0.01,0.24-0.03,0.51c-0.04,0.23-0.06,0.45-0.06,0.68c0,0.13,0.01,0.33,0.04,0.59c0.03,0.26,0.04,0.46,0.04,0.59
		c0,0.43-0.18,0.64-0.55,0.64c-0.35,0-0.54-0.18-0.55-0.54V5.47C62.7,5.14,62.5,4.85,62.13,4.6c-0.38-0.24-0.82-0.36-1.33-0.36
		c-0.52,0-0.95,0.13-1.3,0.4c-0.35,0.27-0.52,0.59-0.52,0.99c0,0.72,0.5,1.15,1.49,1.28l0.98,0.14c1.91,0.26,2.87,1.05,2.87,2.38
		c0,0.81-0.31,1.47-0.93,1.97s-1.43,0.75-2.43,0.75c-0.93,0-1.74-0.26-2.43-0.79c0,0.11,0,0.22,0,0.32c0,0.41-0.19,0.61-0.57,0.61
		c-0.42,0-0.62-0.23-0.62-0.69c0,0.08,0.03-0.21,0.1-0.88c0.02-0.16,0.03-0.32,0.03-0.47c0-0.27-0.02-0.52-0.07-0.76
		s-0.07-0.42-0.07-0.56c0-0.39,0.18-0.59,0.54-0.59c0.24,0,0.39,0.06,0.45,0.17c0.06,0.11,0.1,0.41,0.11,0.9
		c0.01,0.48,0.26,0.88,0.76,1.18c0.5,0.3,1.13,0.46,1.89,0.46c0.55,0,1.01-0.14,1.37-0.42S63,9.97,63,9.54
		c0-0.77-0.61-1.21-1.82-1.33c-1.16-0.12-2.04-0.35-2.65-0.68c-0.61-0.33-0.91-0.92-0.91-1.75c0-0.79,0.3-1.43,0.89-1.92
		C59.1,3.37,59.87,3.12,60.82,3.12z"/>
	<path d="M73.69,12.15c-1.18,0-2.13-0.41-2.84-1.22c-0.71-0.82-1.06-1.91-1.06-3.29s0.36-2.47,1.07-3.29
		c0.71-0.82,1.68-1.22,2.88-1.22c1.23,0,2.2,0.4,2.91,1.2c0.71,0.8,1.06,1.89,1.06,3.26s-0.37,2.48-1.1,3.31
		C75.88,11.73,74.91,12.15,73.69,12.15z M73.78,4.24c-0.79,0-1.41,0.28-1.86,0.83s-0.7,1.33-0.74,2.35v0.22
		c0,1.06,0.22,1.89,0.67,2.49c0.44,0.6,1.07,0.9,1.87,0.9c0.82,0,1.47-0.3,1.93-0.9s0.7-1.44,0.7-2.51
		C76.34,5.37,75.49,4.24,73.78,4.24z"/>
	<path d="M81.61,3.93v0.48c0.68-0.86,1.58-1.28,2.7-1.28c0.61,0,1.18,0.16,1.72,0.46s0.91,0.7,1.1,1.16
		c0.16,0.38,0.24,0.88,0.24,1.5v3.21c0,0.48,0.01,0.77,0.02,0.86c0.06,0.38,0.21,0.57,0.46,0.57c0.1,0,0.23-0.01,0.4-0.04
		c0.16-0.03,0.28-0.04,0.35-0.04c0.15,0,0.27,0.05,0.38,0.15c0.11,0.1,0.16,0.23,0.16,0.37c0,0.17-0.07,0.31-0.2,0.42
		c-0.13,0.11-0.3,0.17-0.49,0.17c-0.16,0-0.42-0.02-0.78-0.07s-0.7-0.07-1.01-0.07c-0.29,0-0.54,0.01-0.73,0.03
		c-0.56,0.07-0.86,0.1-0.9,0.1c-0.45,0-0.68-0.2-0.68-0.59c0-0.35,0.2-0.52,0.59-0.52c0.09,0,0.19,0.01,0.31,0.03
		c0.22,0.04,0.36,0.07,0.41,0.07c0.28,0,0.42-0.31,0.45-0.93V9.12V8.09V6.81c0-0.6-0.03-1.01-0.08-1.23c-0.1-0.43-0.32-0.76-0.66-1
		C85,4.32,84.58,4.19,84.1,4.19c-0.9,0-1.54,0.32-1.94,0.96c-0.27,0.44-0.4,1.19-0.4,2.25v2.25c0,0.5,0.03,0.83,0.1,1.01
		c0.07,0.18,0.19,0.27,0.37,0.27c0.09,0,0.21-0.02,0.37-0.06c0.16-0.04,0.29-0.06,0.39-0.06c0.35,0,0.52,0.19,0.52,0.57
		c0,0.37-0.23,0.55-0.68,0.55c-0.09,0-0.38-0.03-0.88-0.1c-0.25-0.03-0.52-0.05-0.83-0.05c-0.24,0-0.55,0.02-0.95,0.07
		c-0.5,0.06-0.78,0.08-0.84,0.08c-0.47,0-0.71-0.19-0.71-0.57c0-0.36,0.18-0.54,0.55-0.54c0.06,0,0.16,0.02,0.32,0.05
		c0.15,0.03,0.31,0.05,0.46,0.05c0.34,0,0.52-0.33,0.53-0.98V8.06V6.01V5.42c-0.02-0.38-0.07-0.64-0.15-0.79
		c-0.07-0.14-0.2-0.21-0.39-0.21c-0.08,0-0.2,0.01-0.35,0.04c-0.16,0.03-0.27,0.04-0.35,0.04c-0.41,0-0.62-0.18-0.62-0.54
		c0-0.37,0.25-0.56,0.76-0.56c0.07,0,0.12,0.01,0.17,0.02l0.62,0.07c0.18,0,0.34-0.01,0.47-0.04c0.29-0.03,0.44-0.04,0.46-0.04
		C81.45,3.41,81.61,3.58,81.61,3.93z"/>
	<path d="M98.71,9.53V8.45c0.01-0.46,0.21-0.69,0.61-0.69c0.39,0,0.59,0.26,0.59,0.78c0,1.23-0.16,2.08-0.47,2.57
		c-0.42,0.65-1.12,0.98-2.1,0.98c-0.9,0-1.53-0.29-1.91-0.86c-0.28-0.42-0.42-1.13-0.42-2.13V5.03c0-0.24-0.11-0.35-0.33-0.35h-0.55
		c-0.18,0-0.34-0.06-0.46-0.18c-0.12-0.12-0.18-0.26-0.18-0.43c0-0.16,0.06-0.3,0.18-0.42c0.12-0.12,0.25-0.19,0.4-0.19h0.66
		c0.19,0,0.29-0.11,0.29-0.32V1.4c0-0.43,0.22-0.64,0.66-0.64c0.41,0,0.61,0.21,0.61,0.64v1.81c0,0.17,0.1,0.25,0.3,0.25h1.84
		c0.43,0,0.64,0.2,0.64,0.59c0,0.42-0.23,0.62-0.69,0.62h-1.86c-0.16,0-0.24,0.12-0.24,0.35v4.16c0,1.18,0.39,1.77,1.18,1.77
		C98.26,10.96,98.68,10.49,98.71,9.53z"/>
	<path d="M103.41,0.97l-0.07,3.29c0.45-0.43,0.86-0.72,1.24-0.89c0.37-0.16,0.81-0.25,1.32-0.25c0.97,0,1.75,0.28,2.34,0.83
		c0.59,0.55,0.88,1.28,0.88,2.18v2.82c0,0.67,0.01,1.03,0.02,1.1c0.04,0.56,0.19,0.84,0.44,0.84c0.09,0,0.22-0.03,0.39-0.09
		c0.07-0.02,0.16-0.02,0.27-0.02c0.42,0,0.62,0.19,0.62,0.57s-0.27,0.57-0.81,0.57c-0.15,0-0.36-0.02-0.64-0.05
		c-0.47-0.06-0.86-0.08-1.15-0.08c-0.29,0-0.52,0.01-0.68,0.03c-0.47,0.07-0.77,0.1-0.88,0.1c-0.2,0-0.37-0.06-0.51-0.18
		c-0.14-0.12-0.2-0.27-0.2-0.45c0-0.15,0.06-0.27,0.18-0.37c0.12-0.1,0.26-0.15,0.41-0.15c0.12,0,0.27,0.03,0.44,0.08
		c0.1,0.03,0.2,0.05,0.29,0.05c0.34,0,0.51-0.37,0.52-1.1c0-0.14,0.01-0.4,0.03-0.79V8.29V7.38c0-1.15-0.11-1.92-0.34-2.31
		c-0.33-0.59-0.9-0.88-1.73-0.88c-0.89,0-1.54,0.3-1.95,0.91c-0.28,0.42-0.43,1.09-0.44,2.01v1.22c0,0.07-0.02,0.18-0.07,0.34
		c0,0.15,0,0.25,0,0.32c0,0.64,0.01,1.01,0.02,1.12c0.06,0.55,0.23,0.83,0.5,0.83c0.09,0,0.22-0.03,0.39-0.08s0.29-0.08,0.37-0.08
		c0.37,0,0.56,0.18,0.56,0.54c0,0.41-0.25,0.61-0.75,0.61c-0.16,0-0.4-0.02-0.71-0.05c-0.43-0.04-0.8-0.07-1.11-0.07
		c-0.19,0-0.46,0.02-0.8,0.05c-0.45,0.04-0.74,0.07-0.87,0.07c-0.46,0-0.7-0.21-0.7-0.63c0-0.35,0.22-0.52,0.65-0.52
		c0.15,0,0.26,0.02,0.33,0.05c0.19,0.05,0.33,0.07,0.41,0.07c0.18,0,0.31-0.17,0.37-0.52c0.06-0.34,0.1-1.04,0.11-2.1V5.25
		c0-1.69-0.03-2.76-0.1-3.2c-0.07-0.45-0.23-0.67-0.47-0.67c-0.08,0-0.2,0.02-0.35,0.05c-0.16,0.03-0.28,0.05-0.37,0.05
		c-0.38,0-0.57-0.18-0.57-0.54c0-0.16,0.07-0.29,0.2-0.41c0.14-0.11,0.3-0.17,0.49-0.17c0.06,0,0.25,0.02,0.57,0.05
		c0.21,0.02,0.44,0.03,0.69,0.03c0.1,0,0.24-0.01,0.42-0.04s0.31-0.04,0.39-0.04c0.26,0,0.39,0.19,0.39,0.56V0.97z"/>
	<path d="M114.27,6.96v2.2c0,0.56,0.01,0.9,0.02,1c0.06,0.51,0.21,0.76,0.46,0.76c0.06,0,0.2-0.03,0.42-0.08
		c0.06-0.02,0.14-0.03,0.25-0.03c0.43,0,0.64,0.19,0.64,0.56c0,0.16-0.07,0.29-0.21,0.41s-0.32,0.17-0.53,0.17
		c-0.18,0-0.45-0.03-0.82-0.08c-0.37-0.05-0.64-0.08-0.82-0.08c-0.29,0-0.62,0.02-0.98,0.07c-0.44,0.06-0.73,0.08-0.88,0.08
		c-0.45,0-0.68-0.19-0.68-0.57c0-0.37,0.19-0.56,0.58-0.56c0.09,0,0.22,0.02,0.4,0.05s0.31,0.05,0.4,0.05
		c0.27,0,0.44-0.36,0.49-1.08c0-0.04,0-0.54,0-1.47V6.96c0-0.93,0-1.42,0-1.47c-0.06-0.71-0.23-1.06-0.51-1.06
		c-0.09,0-0.22,0.02-0.38,0.06c-0.16,0.04-0.29,0.06-0.37,0.06c-0.41,0-0.61-0.18-0.61-0.54c0-0.38,0.25-0.57,0.74-0.57
		c0.21,0,0.37,0,0.46,0.02c0.36,0.04,0.59,0.07,0.69,0.07c0.09,0,0.23-0.01,0.41-0.04c0.19-0.03,0.32-0.04,0.41-0.04
		c0.33,0,0.49,0.22,0.49,0.66c0,0.04,0,0.11-0.01,0.2c-0.01,0.09-0.01,0.16-0.01,0.2c-0.01,0.09-0.02,0.44-0.03,1.05
		C114.27,6,114.27,6.48,114.27,6.96z M113.39,2.53c-0.26,0-0.48-0.09-0.67-0.28c-0.19-0.19-0.28-0.41-0.28-0.67s0.09-0.48,0.28-0.66
		c0.19-0.18,0.41-0.27,0.67-0.27s0.48,0.09,0.67,0.27c0.19,0.18,0.28,0.4,0.28,0.66s-0.09,0.48-0.28,0.67
		C113.87,2.44,113.65,2.53,113.39,2.53z"/>
	<path d="M120.32,3.12c0.75,0,1.38,0.2,1.89,0.59V3.65c0-0.42,0.18-0.62,0.54-0.62c0.37,0,0.56,0.18,0.56,0.54
		c0,0.07-0.01,0.24-0.03,0.51c-0.04,0.23-0.06,0.45-0.06,0.68c0,0.13,0.01,0.33,0.04,0.59c0.03,0.26,0.04,0.46,0.04,0.59
		c0,0.43-0.18,0.64-0.55,0.64c-0.35,0-0.54-0.18-0.55-0.54V5.47c-0.01-0.34-0.21-0.63-0.58-0.87c-0.38-0.24-0.82-0.36-1.33-0.36
		c-0.52,0-0.95,0.13-1.3,0.4c-0.35,0.27-0.52,0.59-0.52,0.99c0,0.72,0.5,1.15,1.49,1.28l0.98,0.14c1.91,0.26,2.87,1.05,2.87,2.38
		c0,0.81-0.31,1.47-0.93,1.97s-1.43,0.75-2.43,0.75c-0.93,0-1.74-0.26-2.43-0.79c0,0.11,0,0.22,0,0.32c0,0.41-0.19,0.61-0.57,0.61
		c-0.42,0-0.62-0.23-0.62-0.69c0,0.08,0.03-0.21,0.1-0.88c0.02-0.16,0.03-0.32,0.03-0.47c0-0.27-0.02-0.52-0.07-0.76
		s-0.07-0.42-0.07-0.56c0-0.39,0.18-0.59,0.54-0.59c0.24,0,0.39,0.06,0.45,0.17c0.06,0.11,0.1,0.41,0.11,0.9
		c0.01,0.48,0.26,0.88,0.76,1.18c0.5,0.3,1.13,0.46,1.89,0.46c0.55,0,1.01-0.14,1.37-0.42s0.54-0.64,0.54-1.06
		c0-0.77-0.61-1.21-1.82-1.33c-1.16-0.12-2.04-0.35-2.65-0.68c-0.61-0.33-0.91-0.92-0.91-1.75c0-0.79,0.3-1.43,0.89-1.92
		C118.6,3.37,119.37,3.12,120.32,3.12z"/>
	<path d="M132.86,3.12c0.75,0,1.38,0.2,1.89,0.59V3.65c0-0.42,0.18-0.62,0.54-0.62c0.37,0,0.56,0.18,0.56,0.54
		c0,0.07-0.01,0.24-0.03,0.51c-0.04,0.23-0.06,0.45-0.06,0.68c0,0.13,0.01,0.33,0.04,0.59c0.03,0.26,0.04,0.46,0.04,0.59
		c0,0.43-0.18,0.64-0.55,0.64c-0.35,0-0.54-0.18-0.55-0.54V5.47c-0.01-0.34-0.21-0.63-0.58-0.87c-0.38-0.24-0.82-0.36-1.33-0.36
		c-0.52,0-0.95,0.13-1.3,0.4c-0.35,0.27-0.52,0.59-0.52,0.99c0,0.72,0.5,1.15,1.49,1.28l0.98,0.14c1.91,0.26,2.87,1.05,2.87,2.38
		c0,0.81-0.31,1.47-0.93,1.97S134,12.15,133,12.15c-0.93,0-1.74-0.26-2.43-0.79c0,0.11,0,0.22,0,0.32c0,0.41-0.19,0.61-0.57,0.61
		c-0.42,0-0.62-0.23-0.62-0.69c0,0.08,0.03-0.21,0.1-0.88c0.02-0.16,0.03-0.32,0.03-0.47c0-0.27-0.02-0.52-0.07-0.76
		s-0.07-0.42-0.07-0.56c0-0.39,0.18-0.59,0.54-0.59c0.24,0,0.39,0.06,0.45,0.17c0.06,0.11,0.1,0.41,0.11,0.9
		c0.01,0.48,0.26,0.88,0.76,1.18c0.5,0.3,1.13,0.46,1.89,0.46c0.55,0,1.01-0.14,1.37-0.42s0.54-0.64,0.54-1.06
		c0-0.77-0.61-1.21-1.82-1.33c-1.16-0.12-2.04-0.35-2.65-0.68c-0.61-0.33-0.91-0.92-0.91-1.75c0-0.79,0.3-1.43,0.89-1.92
		C131.13,3.37,131.91,3.12,132.86,3.12z"/>
	<path d="M140.35,6.96v2.2c0,0.56,0.01,0.9,0.02,1c0.06,0.51,0.21,0.76,0.46,0.76c0.06,0,0.2-0.03,0.42-0.08
		c0.06-0.02,0.14-0.03,0.25-0.03c0.43,0,0.64,0.19,0.64,0.56c0,0.16-0.07,0.29-0.21,0.41s-0.32,0.17-0.53,0.17
		c-0.18,0-0.45-0.03-0.82-0.08c-0.37-0.05-0.64-0.08-0.82-0.08c-0.29,0-0.62,0.02-0.98,0.07c-0.44,0.06-0.73,0.08-0.88,0.08
		c-0.45,0-0.68-0.19-0.68-0.57c0-0.37,0.19-0.56,0.58-0.56c0.09,0,0.22,0.02,0.4,0.05s0.31,0.05,0.4,0.05
		c0.27,0,0.44-0.36,0.49-1.08c0-0.04,0-0.54,0-1.47V6.96c0-0.93,0-1.42,0-1.47c-0.06-0.71-0.23-1.06-0.51-1.06
		c-0.09,0-0.22,0.02-0.38,0.06c-0.16,0.04-0.29,0.06-0.37,0.06c-0.41,0-0.61-0.18-0.61-0.54c0-0.38,0.25-0.57,0.74-0.57
		c0.21,0,0.37,0,0.46,0.02c0.36,0.04,0.59,0.07,0.69,0.07c0.09,0,0.23-0.01,0.41-0.04c0.19-0.03,0.32-0.04,0.41-0.04
		c0.33,0,0.49,0.22,0.49,0.66c0,0.04,0,0.11-0.01,0.2c-0.01,0.09-0.01,0.16-0.01,0.2c-0.01,0.09-0.02,0.44-0.03,1.05
		C140.36,6,140.35,6.48,140.35,6.96z M139.48,2.53c-0.26,0-0.48-0.09-0.67-0.28c-0.19-0.19-0.28-0.41-0.28-0.67s0.09-0.48,0.28-0.66
		c0.19-0.18,0.41-0.27,0.67-0.27s0.48,0.09,0.67,0.27c0.19,0.18,0.28,0.4,0.28,0.66s-0.09,0.48-0.28,0.67
		C139.96,2.44,139.73,2.53,139.48,2.53z"/>
	<path d="M147.55,9.53V8.45c0.01-0.46,0.21-0.69,0.61-0.69c0.39,0,0.59,0.26,0.59,0.78c0,1.23-0.16,2.08-0.47,2.57
		c-0.42,0.65-1.12,0.98-2.1,0.98c-0.9,0-1.53-0.29-1.91-0.86c-0.28-0.42-0.42-1.13-0.42-2.13V5.03c0-0.24-0.11-0.35-0.33-0.35h-0.55
		c-0.18,0-0.34-0.06-0.46-0.18c-0.12-0.12-0.18-0.26-0.18-0.43c0-0.16,0.06-0.3,0.18-0.42c0.12-0.12,0.25-0.19,0.4-0.19h0.66
		c0.19,0,0.29-0.11,0.29-0.32V1.4c0-0.43,0.22-0.64,0.66-0.64c0.41,0,0.61,0.21,0.61,0.64v1.81c0,0.17,0.1,0.25,0.3,0.25h1.84
		c0.43,0,0.64,0.2,0.64,0.59c0,0.42-0.23,0.62-0.69,0.62h-1.86c-0.16,0-0.24,0.12-0.24,0.35v4.16c0,1.18,0.39,1.77,1.18,1.77
		C147.1,10.96,147.52,10.49,147.55,9.53z"/>
	<path d="M157.28,6.89c0,0.43-0.03,0.69-0.08,0.79c-0.06,0.1-0.22,0.14-0.49,0.14h-5.37c-0.15,0-0.24,0.02-0.29,0.06
		c-0.04,0.04-0.07,0.1-0.07,0.19c0,0.84,0.25,1.55,0.76,2.11c0.51,0.56,1.14,0.84,1.89,0.84c0.5,0,0.95-0.13,1.36-0.41
		s0.68-0.61,0.8-1.03l0.15-0.49c0.08-0.27,0.26-0.41,0.56-0.41c0.42,0,0.62,0.21,0.62,0.64c0,0.73-0.37,1.38-1.12,1.95
		c-0.74,0.57-1.59,0.85-2.53,0.85c-1.18,0-2.12-0.4-2.82-1.19c-0.7-0.79-1.05-1.86-1.05-3.2c0-1.37,0.37-2.49,1.12-3.34
		c0.74-0.86,1.71-1.28,2.91-1.28c1.06,0,1.93,0.35,2.62,1.06C156.94,4.9,157.28,5.8,157.28,6.89z M151.15,6.45
		c0,0.16,0.12,0.24,0.37,0.24h4.04c0.24,0,0.35-0.08,0.35-0.24c0-0.6-0.23-1.12-0.68-1.55c-0.45-0.44-0.98-0.66-1.59-0.66
		c-0.63,0-1.21,0.23-1.72,0.68C151.41,5.38,151.15,5.89,151.15,6.45z"/>
	<path d="M170.02,12.08c-0.92,0-1.49-0.4-1.71-1.2c-0.57,0.84-1.48,1.27-2.7,1.27c-0.91,0-1.64-0.23-2.19-0.68s-0.82-1.05-0.82-1.81
		c0-0.93,0.4-1.62,1.2-2.06c0.3-0.17,0.57-0.28,0.79-0.33c0.22-0.05,0.66-0.12,1.33-0.19c0.95-0.1,1.56-0.24,1.85-0.42
		c0.29-0.18,0.43-0.51,0.43-1c0-0.46-0.16-0.83-0.48-1.09c-0.32-0.26-0.77-0.4-1.34-0.4c-0.51,0-0.98,0.14-1.42,0.42
		c-0.17,0.11-0.25,0.23-0.25,0.36c0,0.04,0.05,0.1,0.15,0.17c0.16,0.11,0.24,0.3,0.24,0.58c0,0.23-0.08,0.41-0.25,0.56
		s-0.37,0.22-0.62,0.22c-0.29,0-0.54-0.1-0.73-0.3c-0.2-0.2-0.3-0.45-0.3-0.74c0-0.63,0.31-1.17,0.94-1.62
		c0.62-0.45,1.38-0.68,2.27-0.68c2.05,0,3.07,0.98,3.07,2.95v3.41c0,0.54,0.01,0.86,0.03,0.96c0.07,0.39,0.26,0.59,0.57,0.59
		c0.39,0,0.59-0.36,0.59-1.07V9.14c0-0.36,0.17-0.54,0.52-0.54c0.37,0,0.55,0.27,0.55,0.81v0.08v0.96
		C171.72,11.54,171.15,12.08,170.02,12.08z M168.14,8.72v-1.2c-0.25,0.23-0.51,0.38-0.78,0.47c-0.27,0.09-0.77,0.17-1.47,0.24
		c-1.28,0.12-1.92,0.6-1.92,1.42c0,0.43,0.15,0.77,0.46,1.01c0.31,0.25,0.73,0.37,1.26,0.37c0.75,0,1.35-0.21,1.78-0.62
		C167.91,10,168.13,9.44,168.14,8.72z"/>
	<path d="M174.83,3.89v0.46c0.59-0.82,1.37-1.23,2.35-1.23c0.79,0,1.43,0.22,1.92,0.67c0.49,0.45,0.73,1.02,0.73,1.71
		c0,0.5-0.12,0.9-0.37,1.21c-0.25,0.31-0.57,0.46-0.98,0.46c-0.26,0-0.48-0.08-0.66-0.24c-0.18-0.16-0.27-0.35-0.27-0.57
		c0-0.18,0.07-0.34,0.2-0.48c0.14-0.14,0.29-0.21,0.47-0.21c0.03,0,0.11,0.02,0.22,0.05c0.07-0.13,0.1-0.26,0.1-0.37
		c0-0.33-0.14-0.6-0.43-0.83c-0.29-0.23-0.64-0.34-1.07-0.34c-0.88,0-1.46,0.39-1.76,1.18c-0.18,0.48-0.27,1.22-0.27,2.2v1.12
		c0,0.75,0.01,1.18,0.02,1.27c0.06,0.64,0.23,0.96,0.52,0.96c0.15,0,0.3-0.02,0.46-0.06c0.12-0.03,0.23-0.04,0.32-0.04
		c0.36,0,0.54,0.18,0.54,0.53c0,0.39-0.23,0.58-0.69,0.58h-0.07c-0.17,0-0.42-0.02-0.77-0.06c-0.34-0.04-0.6-0.06-0.77-0.06
		c-0.45,0-0.8,0.01-1.06,0.03l-0.94,0.08c-0.46,0-0.69-0.2-0.69-0.59c0-0.35,0.22-0.52,0.65-0.52c0.11,0,0.2,0.01,0.26,0.02
		l0.26,0.05c0.11,0.02,0.19,0.03,0.24,0.03c0.28,0,0.44-0.26,0.46-0.78V9.27l-0.05-3.83c-0.03-0.66-0.2-1-0.51-1
		c-0.09,0-0.21,0.02-0.37,0.05c-0.16,0.03-0.28,0.05-0.37,0.05c-0.37,0-0.56-0.18-0.56-0.54c0-0.39,0.24-0.59,0.73-0.59
		c0.11,0,0.28,0.01,0.51,0.04c0.23,0.03,0.39,0.04,0.51,0.04c0.09,0,0.24-0.01,0.44-0.04c0.09-0.03,0.2-0.04,0.32-0.04
		C174.69,3.41,174.83,3.57,174.83,3.89z"/>
	<path d="M188.25,6.89c0,0.43-0.03,0.69-0.08,0.79c-0.06,0.1-0.22,0.14-0.49,0.14h-5.37c-0.15,0-0.24,0.02-0.29,0.06
		c-0.04,0.04-0.07,0.1-0.07,0.19c0,0.84,0.25,1.55,0.76,2.11c0.51,0.56,1.14,0.84,1.89,0.84c0.5,0,0.95-0.13,1.36-0.41
		s0.68-0.61,0.8-1.03l0.15-0.49c0.08-0.27,0.26-0.41,0.56-0.41c0.42,0,0.62,0.21,0.62,0.64c0,0.73-0.37,1.38-1.12,1.95
		c-0.74,0.57-1.59,0.85-2.53,0.85c-1.18,0-2.12-0.4-2.82-1.19c-0.7-0.79-1.05-1.86-1.05-3.2c0-1.37,0.37-2.49,1.12-3.34
		c0.74-0.86,1.71-1.28,2.91-1.28c1.06,0,1.93,0.35,2.62,1.06C187.9,4.9,188.25,5.8,188.25,6.89z M182.12,6.45
		c0,0.16,0.12,0.24,0.37,0.24h4.04c0.24,0,0.35-0.08,0.35-0.24c0-0.6-0.23-1.12-0.68-1.55c-0.45-0.44-0.98-0.66-1.59-0.66
		c-0.63,0-1.21,0.23-1.72,0.68C182.37,5.38,182.12,5.89,182.12,6.45z"/>
	<path d="M198.72,1.88c0-0.16,0.06-0.3,0.17-0.42c-0.19-0.18-0.47-0.27-0.84-0.27c-0.48,0-0.86,0.15-1.14,0.46
		c-0.28,0.31-0.41,0.74-0.41,1.29v0.3c0,0.15,0.07,0.22,0.22,0.22h1.32c0.37,0,0.56,0.2,0.56,0.61s-0.19,0.61-0.56,0.61h-1.25
		c-0.19,0-0.29,0.1-0.29,0.3v4.73c0,0.42,0.01,0.66,0.02,0.73c0.06,0.3,0.2,0.46,0.42,0.46c0.06,0,0.2-0.03,0.42-0.08
		c0.16-0.02,0.27-0.03,0.34-0.03c0.38,0,0.57,0.19,0.57,0.56c0,0.39-0.23,0.59-0.69,0.59c-0.19,0-0.48-0.02-0.87-0.07
		s-0.68-0.07-0.87-0.07c-0.34,0-0.64,0.02-0.91,0.05c-0.44,0.06-0.72,0.08-0.84,0.08c-0.48,0-0.73-0.2-0.73-0.59
		c0-0.15,0.06-0.28,0.18-0.39c0.12-0.11,0.26-0.17,0.41-0.17c0.11,0,0.24,0.02,0.38,0.06c0.14,0.04,0.27,0.06,0.38,0.06
		c0.21,0,0.35-0.13,0.41-0.41c0.06-0.27,0.09-0.92,0.1-1.96V4.98c0-0.2-0.1-0.3-0.3-0.3h-0.84c-0.39,0-0.59-0.21-0.59-0.62
		c0-0.39,0.2-0.59,0.61-0.59h0.96c0.15,0,0.22-0.07,0.22-0.22v-0.3c0-0.89,0.24-1.57,0.71-2.04c0.47-0.47,1.14-0.71,2.01-0.71
		c0.71,0,1.28,0.14,1.71,0.43c0.43,0.29,0.64,0.67,0.64,1.16c0,0.25-0.08,0.45-0.24,0.6c-0.16,0.15-0.35,0.23-0.59,0.23
		c-0.23,0-0.41-0.07-0.57-0.21C198.8,2.25,198.72,2.08,198.72,1.88z"/>
	<path d="M202.12,3.89v0.46c0.59-0.82,1.37-1.23,2.35-1.23c0.79,0,1.43,0.22,1.92,0.67c0.49,0.45,0.73,1.02,0.73,1.71
		c0,0.5-0.12,0.9-0.37,1.21c-0.25,0.31-0.57,0.46-0.98,0.46c-0.26,0-0.48-0.08-0.66-0.24c-0.18-0.16-0.27-0.35-0.27-0.57
		c0-0.18,0.07-0.34,0.2-0.48c0.14-0.14,0.29-0.21,0.47-0.21c0.03,0,0.11,0.02,0.22,0.05c0.07-0.13,0.1-0.26,0.1-0.37
		c0-0.33-0.14-0.6-0.43-0.83c-0.29-0.23-0.64-0.34-1.07-0.34c-0.88,0-1.46,0.39-1.76,1.18c-0.18,0.48-0.27,1.22-0.27,2.2v1.12
		c0,0.75,0.01,1.18,0.02,1.27c0.06,0.64,0.23,0.96,0.52,0.96c0.15,0,0.3-0.02,0.46-0.06c0.12-0.03,0.23-0.04,0.32-0.04
		c0.36,0,0.54,0.18,0.54,0.53c0,0.39-0.23,0.58-0.69,0.58h-0.07c-0.17,0-0.42-0.02-0.77-0.06c-0.34-0.04-0.6-0.06-0.77-0.06
		c-0.45,0-0.8,0.01-1.06,0.03l-0.94,0.08c-0.46,0-0.69-0.2-0.69-0.59c0-0.35,0.22-0.52,0.65-0.52c0.11,0,0.2,0.01,0.26,0.02
		l0.26,0.05c0.11,0.02,0.19,0.03,0.24,0.03c0.28,0,0.44-0.26,0.46-0.78V9.27l-0.05-3.83c-0.03-0.66-0.2-1-0.51-1
		c-0.09,0-0.21,0.02-0.37,0.05c-0.16,0.03-0.28,0.05-0.37,0.05c-0.37,0-0.56-0.18-0.56-0.54c0-0.39,0.24-0.59,0.73-0.59
		c0.11,0,0.28,0.01,0.51,0.04c0.23,0.03,0.39,0.04,0.51,0.04c0.09,0,0.24-0.01,0.44-0.04c0.09-0.03,0.2-0.04,0.32-0.04
		C201.97,3.41,202.12,3.57,202.12,3.89z"/>
	<path d="M211.75,12.15c-1.18,0-2.13-0.41-2.84-1.22c-0.71-0.82-1.06-1.91-1.06-3.29s0.36-2.47,1.07-3.29
		c0.71-0.82,1.68-1.22,2.88-1.22c1.23,0,2.2,0.4,2.91,1.2c0.71,0.8,1.06,1.89,1.06,3.26s-0.37,2.48-1.1,3.31
		C213.94,11.73,212.96,12.15,211.75,12.15z M211.83,4.24c-0.79,0-1.41,0.28-1.86,0.83s-0.7,1.33-0.74,2.35v0.22
		c0,1.06,0.22,1.89,0.67,2.49c0.44,0.6,1.07,0.9,1.87,0.9c0.82,0,1.47-0.3,1.93-0.9s0.7-1.44,0.7-2.51
		C214.4,5.37,213.54,4.24,211.83,4.24z"/>
	<path d="M219.62,3.92v0.49c0.41-0.48,0.79-0.82,1.15-1c0.36-0.19,0.81-0.28,1.35-0.28c1.1,0,1.91,0.43,2.43,1.28
		c0.38-0.47,0.77-0.81,1.17-1c0.39-0.19,0.9-0.29,1.52-0.29c0.64,0,1.22,0.14,1.72,0.41c0.56,0.3,0.95,0.73,1.17,1.29
		c0.15,0.37,0.22,0.96,0.22,1.76v1.64v1.27c0,0.46,0,0.75,0.02,0.85c0.06,0.41,0.2,0.61,0.44,0.61c0.08,0,0.2-0.02,0.35-0.06
		c0.16-0.04,0.27-0.06,0.35-0.06c0.39,0,0.59,0.17,0.59,0.51c0,0.39-0.23,0.59-0.68,0.59c-0.17,0-0.43-0.02-0.77-0.06
		c-0.34-0.04-0.61-0.06-0.79-0.06c-0.19,0-0.47,0.02-0.84,0.06c-0.37,0.04-0.65,0.06-0.84,0.06c-0.47,0-0.71-0.2-0.71-0.59
		c0-0.34,0.18-0.51,0.54-0.51c0.04,0,0.16,0.01,0.34,0.03c0.07,0.02,0.16,0.03,0.27,0.03c0.19,0,0.31-0.1,0.36-0.29
		s0.08-0.67,0.09-1.44V8.14V7.03c0-0.78-0.06-1.34-0.18-1.7c-0.12-0.36-0.34-0.63-0.66-0.84c-0.32-0.2-0.7-0.3-1.11-0.3
		c-0.8,0-1.35,0.28-1.67,0.83c-0.25,0.44-0.37,1.21-0.37,2.3v1.2c0,1.06,0.03,1.72,0.08,1.98c0.05,0.27,0.18,0.4,0.4,0.4
		c0.07,0,0.17-0.01,0.29-0.03c0.13-0.02,0.23-0.03,0.3-0.03c0.16,0,0.29,0.05,0.4,0.16s0.16,0.24,0.16,0.39
		c0,0.37-0.27,0.55-0.79,0.55c-0.17,0-0.42-0.02-0.75-0.07c-0.33-0.04-0.58-0.07-0.75-0.07c-0.24,0-0.5,0.02-0.78,0.07
		c-0.28,0.04-0.53,0.07-0.74,0.07c-0.46,0-0.69-0.19-0.69-0.57c0-0.35,0.17-0.52,0.51-0.52c0.12,0,0.22,0.02,0.29,0.05
		c0.16,0.05,0.28,0.07,0.35,0.07c0.27,0,0.41-0.29,0.42-0.87l0.05-0.8c0-0.25,0-0.49,0-0.73c0-0.2,0-0.31,0-0.32V6.82
		c0-0.98-0.13-1.67-0.4-2.05s-0.73-0.58-1.41-0.58c-0.74,0-1.31,0.27-1.71,0.81c-0.33,0.44-0.49,1.21-0.49,2.31v2.26
		c0,0.45,0.01,0.72,0.02,0.8c0.04,0.38,0.17,0.58,0.37,0.58c0.06,0,0.17-0.03,0.35-0.09c0.02,0,0.06-0.01,0.1-0.02
		c0.04,0,0.08,0,0.12,0c0.44,0,0.66,0.19,0.66,0.56c0,0.36-0.25,0.54-0.76,0.54c-0.19,0-0.43-0.02-0.71-0.05
		c-0.38-0.04-0.71-0.07-0.98-0.07c-0.14,0-0.38,0.02-0.74,0.05c-0.48,0.04-0.78,0.07-0.88,0.07c-0.45,0-0.68-0.19-0.68-0.57
		c0-0.35,0.22-0.52,0.65-0.52c0.02,0,0.06,0,0.1,0c0.05,0.01,0.08,0.02,0.1,0.02l0.43,0.08c0.01,0.01,0.03,0.02,0.07,0.02
		c0.31,0,0.48-0.28,0.5-0.83V9.16V6.57c0-0.96-0.02-1.55-0.08-1.79c-0.05-0.24-0.19-0.36-0.41-0.36c-0.04,0-0.2,0.03-0.47,0.08
		c-0.11,0.02-0.2,0.03-0.27,0.03c-0.42,0-0.62-0.18-0.62-0.54c0-0.38,0.23-0.57,0.69-0.57c0.12,0,0.29,0.01,0.51,0.03
		s0.4,0.03,0.56,0.03c0.06,0,0.12,0,0.19,0c0.07,0,0.11,0,0.12,0l0.41-0.07h0.05C219.48,3.43,219.62,3.59,219.62,3.92z"/>
	<path d="M241.68,9.53V8.45c0.01-0.46,0.21-0.69,0.61-0.69c0.39,0,0.59,0.26,0.59,0.78c0,1.23-0.16,2.08-0.47,2.57
		c-0.42,0.65-1.12,0.98-2.1,0.98c-0.89,0-1.53-0.29-1.91-0.86c-0.28-0.42-0.42-1.13-0.42-2.13V5.03c0-0.24-0.11-0.35-0.33-0.35
		h-0.55c-0.18,0-0.34-0.06-0.46-0.18s-0.18-0.26-0.18-0.43c0-0.16,0.06-0.3,0.18-0.42c0.12-0.12,0.25-0.19,0.4-0.19h0.66
		c0.19,0,0.29-0.11,0.29-0.32V1.4c0-0.43,0.22-0.64,0.66-0.64c0.41,0,0.61,0.21,0.61,0.64v1.81c0,0.17,0.1,0.25,0.3,0.25h1.84
		c0.43,0,0.64,0.2,0.64,0.59c0,0.42-0.23,0.62-0.69,0.62h-1.86c-0.16,0-0.24,0.12-0.24,0.35v4.16c0,1.18,0.39,1.77,1.18,1.77
		C241.23,10.96,241.65,10.49,241.68,9.53z"/>
	<path d="M246.38,0.97l-0.07,3.29c0.45-0.43,0.86-0.72,1.24-0.89s0.81-0.25,1.32-0.25c0.97,0,1.75,0.28,2.34,0.83
		c0.59,0.55,0.88,1.28,0.88,2.18v2.82c0,0.67,0,1.03,0.02,1.1c0.04,0.56,0.19,0.84,0.44,0.84c0.09,0,0.22-0.03,0.39-0.09
		c0.07-0.02,0.16-0.02,0.27-0.02c0.42,0,0.62,0.19,0.62,0.57s-0.27,0.57-0.81,0.57c-0.15,0-0.36-0.02-0.64-0.05
		c-0.47-0.06-0.86-0.08-1.15-0.08s-0.52,0.01-0.68,0.03c-0.47,0.07-0.77,0.1-0.88,0.1c-0.2,0-0.37-0.06-0.51-0.18
		c-0.14-0.12-0.2-0.27-0.2-0.45c0-0.15,0.06-0.27,0.18-0.37c0.12-0.1,0.26-0.15,0.41-0.15c0.12,0,0.27,0.03,0.44,0.08
		c0.1,0.03,0.2,0.05,0.29,0.05c0.34,0,0.51-0.37,0.52-1.1c0-0.14,0.01-0.4,0.03-0.79V8.29V7.38c0-1.15-0.11-1.92-0.34-2.31
		c-0.33-0.59-0.9-0.88-1.73-0.88c-0.89,0-1.54,0.3-1.95,0.91c-0.28,0.42-0.43,1.09-0.44,2.01v1.22c0,0.07-0.02,0.18-0.07,0.34
		c0,0.15,0,0.25,0,0.32c0,0.64,0.01,1.01,0.02,1.12c0.06,0.55,0.23,0.83,0.5,0.83c0.09,0,0.22-0.03,0.39-0.08s0.29-0.08,0.37-0.08
		c0.37,0,0.56,0.18,0.56,0.54c0,0.41-0.25,0.61-0.75,0.61c-0.16,0-0.4-0.02-0.71-0.05c-0.43-0.04-0.8-0.07-1.11-0.07
		c-0.19,0-0.46,0.02-0.8,0.05c-0.45,0.04-0.74,0.07-0.87,0.07c-0.47,0-0.7-0.21-0.7-0.63c0-0.35,0.22-0.52,0.65-0.52
		c0.15,0,0.26,0.02,0.33,0.05c0.19,0.05,0.33,0.07,0.41,0.07c0.18,0,0.31-0.17,0.37-0.52c0.06-0.34,0.1-1.04,0.11-2.1V5.25
		c0-1.69-0.03-2.76-0.1-3.2c-0.07-0.45-0.23-0.67-0.47-0.67c-0.08,0-0.2,0.02-0.35,0.05c-0.16,0.03-0.28,0.05-0.37,0.05
		c-0.38,0-0.58-0.18-0.58-0.54c0-0.16,0.07-0.29,0.2-0.41c0.13-0.11,0.3-0.17,0.49-0.17c0.06,0,0.25,0.02,0.57,0.05
		c0.21,0.02,0.44,0.03,0.69,0.03c0.1,0,0.24-0.01,0.42-0.04c0.18-0.03,0.31-0.04,0.39-0.04c0.26,0,0.39,0.19,0.39,0.56V0.97z"/>
	<path d="M262.18,6.89c0,0.43-0.03,0.69-0.08,0.79c-0.06,0.1-0.22,0.14-0.49,0.14h-5.37c-0.15,0-0.24,0.02-0.29,0.06
		c-0.04,0.04-0.07,0.1-0.07,0.19c0,0.84,0.25,1.55,0.76,2.11c0.51,0.56,1.14,0.84,1.89,0.84c0.5,0,0.95-0.13,1.36-0.41
		c0.41-0.27,0.68-0.61,0.8-1.03l0.15-0.49c0.08-0.27,0.26-0.41,0.56-0.41c0.42,0,0.62,0.21,0.62,0.64c0,0.73-0.37,1.38-1.12,1.95
		c-0.74,0.57-1.59,0.85-2.53,0.85c-1.18,0-2.12-0.4-2.82-1.19c-0.7-0.79-1.05-1.86-1.05-3.2c0-1.37,0.37-2.49,1.11-3.34
		c0.74-0.86,1.71-1.28,2.91-1.28c1.06,0,1.93,0.35,2.62,1.06C261.83,4.9,262.18,5.8,262.18,6.89z M256.04,6.45
		c0,0.16,0.12,0.24,0.37,0.24h4.04c0.24,0,0.35-0.08,0.35-0.24c0-0.6-0.22-1.12-0.68-1.55c-0.45-0.44-0.98-0.66-1.59-0.66
		c-0.63,0-1.21,0.23-1.72,0.68C256.3,5.38,256.04,5.89,256.04,6.45z"/>
	<path d="M272.65,1.88c0-0.16,0.06-0.3,0.17-0.42c-0.19-0.18-0.47-0.27-0.84-0.27c-0.48,0-0.86,0.15-1.14,0.46
		c-0.28,0.31-0.41,0.74-0.41,1.29v0.3c0,0.15,0.07,0.22,0.22,0.22h1.32c0.37,0,0.56,0.2,0.56,0.61s-0.19,0.61-0.56,0.61h-1.25
		c-0.19,0-0.29,0.1-0.29,0.3v4.73c0,0.42,0,0.66,0.02,0.73c0.06,0.3,0.2,0.46,0.42,0.46c0.06,0,0.2-0.03,0.42-0.08
		c0.16-0.02,0.27-0.03,0.34-0.03c0.38,0,0.57,0.19,0.57,0.56c0,0.39-0.23,0.59-0.69,0.59c-0.19,0-0.48-0.02-0.87-0.07
		s-0.68-0.07-0.87-0.07c-0.34,0-0.64,0.02-0.91,0.05c-0.44,0.06-0.72,0.08-0.84,0.08c-0.48,0-0.73-0.2-0.73-0.59
		c0-0.15,0.06-0.28,0.18-0.39s0.26-0.17,0.41-0.17c0.11,0,0.24,0.02,0.38,0.06c0.14,0.04,0.27,0.06,0.38,0.06
		c0.21,0,0.35-0.13,0.41-0.41s0.09-0.92,0.1-1.96V4.98c0-0.2-0.1-0.3-0.3-0.3H268c-0.39,0-0.59-0.21-0.59-0.62
		c0-0.39,0.2-0.59,0.61-0.59h0.96c0.15,0,0.22-0.07,0.22-0.22v-0.3c0-0.89,0.24-1.57,0.71-2.04c0.47-0.47,1.14-0.71,2.01-0.71
		c0.71,0,1.28,0.14,1.71,0.43c0.43,0.29,0.64,0.67,0.64,1.16c0,0.25-0.08,0.45-0.24,0.6c-0.16,0.15-0.35,0.23-0.59,0.23
		c-0.22,0-0.41-0.07-0.57-0.21S272.65,2.08,272.65,1.88z"/>
	<path d="M276.7,6.96v2.2c0,0.56,0.01,0.9,0.02,1c0.06,0.51,0.21,0.76,0.46,0.76c0.06,0,0.2-0.03,0.42-0.08
		c0.06-0.02,0.14-0.03,0.25-0.03c0.43,0,0.64,0.19,0.64,0.56c0,0.16-0.07,0.29-0.21,0.41s-0.32,0.17-0.53,0.17
		c-0.18,0-0.46-0.03-0.82-0.08s-0.64-0.08-0.82-0.08c-0.29,0-0.62,0.02-0.98,0.07c-0.44,0.06-0.73,0.08-0.88,0.08
		c-0.45,0-0.68-0.19-0.68-0.57c0-0.37,0.19-0.56,0.58-0.56c0.09,0,0.22,0.02,0.4,0.05s0.31,0.05,0.4,0.05c0.27,0,0.44-0.36,0.5-1.08
		c0-0.04,0-0.54,0-1.47V6.96c0-0.93,0-1.42,0-1.47c-0.06-0.71-0.23-1.06-0.51-1.06c-0.09,0-0.22,0.02-0.38,0.06
		c-0.17,0.04-0.29,0.06-0.37,0.06c-0.41,0-0.61-0.18-0.61-0.54c0-0.38,0.25-0.57,0.74-0.57c0.21,0,0.37,0,0.46,0.02
		c0.36,0.04,0.59,0.07,0.69,0.07c0.09,0,0.23-0.01,0.41-0.04s0.32-0.04,0.41-0.04c0.33,0,0.49,0.22,0.49,0.66
		c0,0.04,0,0.11-0.01,0.2c-0.01,0.09-0.01,0.16-0.01,0.2c-0.01,0.09-0.02,0.44-0.03,1.05C276.71,6,276.7,6.48,276.7,6.96z
		 M275.83,2.53c-0.26,0-0.48-0.09-0.67-0.28c-0.19-0.19-0.28-0.41-0.28-0.67s0.09-0.48,0.28-0.66c0.19-0.18,0.41-0.27,0.67-0.27
		c0.26,0,0.48,0.09,0.67,0.27c0.19,0.18,0.28,0.4,0.28,0.66s-0.09,0.48-0.28,0.67C276.31,2.44,276.08,2.53,275.83,2.53z"/>
	<path d="M281.86,4.81v5.25c0.01,0.57,0.17,0.86,0.46,0.86c0.07,0,0.21-0.03,0.43-0.08c0.14-0.02,0.23-0.03,0.27-0.03
		c0.38,0,0.56,0.19,0.56,0.57c0,0.37-0.23,0.56-0.69,0.56c-0.18,0-0.47-0.02-0.86-0.07s-0.7-0.07-0.91-0.07
		c-0.18,0-0.45,0.02-0.81,0.07c-0.36,0.04-0.62,0.07-0.79,0.07h-0.08c-0.47,0-0.71-0.2-0.71-0.61c0-0.35,0.19-0.52,0.58-0.52
		c0.02,0,0.06,0,0.12,0c0.07,0.02,0.12,0.02,0.15,0.02c0.28,0.06,0.45,0.09,0.5,0.09c0.2,0,0.33-0.09,0.38-0.26
		c0.05-0.17,0.08-0.63,0.09-1.36l0.02-1.19V5.47V2.45c-0.01-0.34-0.03-0.56-0.05-0.68c-0.08-0.26-0.24-0.39-0.47-0.39
		c-0.03,0-0.18,0.02-0.44,0.07c-0.12,0.02-0.23,0.03-0.3,0.03c-0.38,0-0.57-0.18-0.57-0.54c0-0.37,0.23-0.56,0.68-0.56
		c0.12,0,0.23,0.01,0.32,0.02l0.41,0.05c0.18,0.02,0.33,0.03,0.46,0.03c0.11,0,0.28-0.02,0.51-0.05c0.23-0.03,0.39-0.05,0.51-0.05
		c0.26,0,0.39,0.16,0.39,0.49c0,0.11-0.01,0.2-0.02,0.25C281.9,2,281.86,3.22,281.86,4.81z"/>
	<path d="M286.96,3.92v0.49c0.41-0.48,0.79-0.82,1.15-1c0.36-0.19,0.81-0.28,1.35-0.28c1.1,0,1.91,0.43,2.43,1.28
		c0.38-0.47,0.77-0.81,1.17-1c0.39-0.19,0.9-0.29,1.52-0.29c0.64,0,1.22,0.14,1.72,0.41c0.56,0.3,0.95,0.73,1.17,1.29
		c0.15,0.37,0.22,0.96,0.22,1.76v1.64v1.27c0,0.46,0,0.75,0.02,0.85c0.06,0.41,0.2,0.61,0.43,0.61c0.08,0,0.2-0.02,0.35-0.06
		c0.16-0.04,0.27-0.06,0.35-0.06c0.39,0,0.59,0.17,0.59,0.51c0,0.39-0.23,0.59-0.68,0.59c-0.17,0-0.43-0.02-0.77-0.06
		c-0.34-0.04-0.61-0.06-0.79-0.06c-0.19,0-0.47,0.02-0.84,0.06c-0.37,0.04-0.65,0.06-0.84,0.06c-0.47,0-0.71-0.2-0.71-0.59
		c0-0.34,0.18-0.51,0.54-0.51c0.04,0,0.16,0.01,0.34,0.03c0.07,0.02,0.16,0.03,0.27,0.03c0.19,0,0.31-0.1,0.36-0.29
		s0.08-0.67,0.09-1.44V8.14V7.03c0-0.78-0.06-1.34-0.18-1.7c-0.12-0.36-0.34-0.63-0.66-0.84c-0.33-0.2-0.7-0.3-1.11-0.3
		c-0.8,0-1.35,0.28-1.67,0.83c-0.25,0.44-0.37,1.21-0.37,2.3v1.2c0,1.06,0.03,1.72,0.08,1.98c0.05,0.27,0.18,0.4,0.4,0.4
		c0.07,0,0.17-0.01,0.3-0.03c0.13-0.02,0.23-0.03,0.3-0.03c0.16,0,0.29,0.05,0.4,0.16s0.16,0.24,0.16,0.39
		c0,0.37-0.26,0.55-0.79,0.55c-0.17,0-0.42-0.02-0.75-0.07c-0.33-0.04-0.58-0.07-0.75-0.07c-0.24,0-0.5,0.02-0.78,0.07
		c-0.28,0.04-0.53,0.07-0.74,0.07c-0.46,0-0.69-0.19-0.69-0.57c0-0.35,0.17-0.52,0.51-0.52c0.12,0,0.22,0.02,0.29,0.05
		c0.16,0.05,0.28,0.07,0.35,0.07c0.27,0,0.41-0.29,0.42-0.87l0.05-0.8c0-0.25,0-0.49,0-0.73c0-0.2,0-0.31,0-0.32V6.82
		c0-0.98-0.13-1.67-0.4-2.05c-0.26-0.38-0.74-0.58-1.41-0.58c-0.74,0-1.31,0.27-1.71,0.81c-0.33,0.44-0.49,1.21-0.49,2.31v2.26
		c0,0.45,0.01,0.72,0.02,0.8c0.04,0.38,0.17,0.58,0.37,0.58c0.06,0,0.17-0.03,0.35-0.09c0.02,0,0.06-0.01,0.1-0.02
		c0.04,0,0.08,0,0.12,0c0.44,0,0.66,0.19,0.66,0.56c0,0.36-0.25,0.54-0.76,0.54c-0.19,0-0.43-0.02-0.71-0.05
		c-0.38-0.04-0.71-0.07-0.98-0.07c-0.14,0-0.38,0.02-0.74,0.05c-0.48,0.04-0.78,0.07-0.88,0.07c-0.45,0-0.68-0.19-0.68-0.57
		c0-0.35,0.22-0.52,0.65-0.52c0.02,0,0.06,0,0.1,0c0.05,0.01,0.08,0.02,0.1,0.02l0.43,0.08c0.01,0.01,0.03,0.02,0.07,0.02
		c0.31,0,0.48-0.28,0.5-0.83V9.16V6.57c0-0.96-0.03-1.55-0.08-1.79c-0.05-0.24-0.19-0.36-0.41-0.36c-0.04,0-0.2,0.03-0.47,0.08
		c-0.11,0.02-0.2,0.03-0.27,0.03c-0.42,0-0.62-0.18-0.62-0.54c0-0.38,0.23-0.57,0.69-0.57c0.12,0,0.29,0.01,0.51,0.03
		s0.4,0.03,0.56,0.03c0.06,0,0.12,0,0.19,0s0.11,0,0.12,0l0.41-0.07h0.05C286.82,3.43,286.96,3.59,286.96,3.92z"/>
	<path d="M305.61,2.53c0,0.18,0.11,0.28,0.32,0.29h0.34c0.24,0.01,0.44,0.12,0.62,0.32c0.17,0.2,0.26,0.43,0.26,0.69
		c0,0.32-0.11,0.58-0.34,0.79c-0.23,0.21-0.51,0.32-0.84,0.32c-0.39,0-0.72-0.16-0.97-0.46c-0.25-0.31-0.38-0.71-0.38-1.19
		c0-0.9,0.35-1.82,1.06-2.77c0.26-0.35,0.48-0.52,0.68-0.52c0.21,0,0.32,0.11,0.32,0.34c0,0.09-0.06,0.21-0.19,0.37
		c-0.23,0.28-0.43,0.61-0.61,0.99C305.7,2.07,305.61,2.35,305.61,2.53z M308.68,2.53c0,0.18,0.11,0.28,0.32,0.29h0.34
		c0.22,0.01,0.42,0.12,0.6,0.32c0.17,0.2,0.26,0.43,0.26,0.69c0,0.32-0.11,0.58-0.34,0.79c-0.23,0.21-0.51,0.32-0.84,0.32
		c-0.39,0-0.72-0.16-0.97-0.46c-0.25-0.31-0.38-0.71-0.38-1.19c0-0.9,0.35-1.82,1.06-2.77c0.26-0.35,0.48-0.52,0.68-0.52
		c0.21,0,0.32,0.11,0.32,0.34c0,0.09-0.06,0.21-0.19,0.37c-0.3,0.38-0.56,0.84-0.76,1.38C308.72,2.27,308.68,2.42,308.68,2.53z"/>
	<path d="M316.06,1.28l4.54,9.44V3.92c0-0.88-0.01-1.36-0.02-1.45c-0.1-0.58-0.38-0.88-0.84-0.88c-0.09,0-0.23,0.01-0.41,0.04
		c-0.18,0.03-0.32,0.04-0.41,0.04c-0.15,0-0.27-0.05-0.38-0.16c-0.11-0.11-0.16-0.23-0.16-0.38c0-0.41,0.25-0.61,0.76-0.61
		c0.1,0,0.17,0.01,0.22,0.02l0.76,0.1c0.34,0.04,0.65,0.07,0.95,0.07c0.29,0,0.68-0.03,1.17-0.09c0.17-0.02,0.37-0.05,0.59-0.08
		c0.02,0,0.06,0,0.12-0.02c0.04,0,0.08,0,0.12,0c0.48,0,0.73,0.19,0.73,0.58c0,0.38-0.23,0.57-0.69,0.57c-0.08,0-0.14,0-0.19,0
		h-0.17c-0.34,0-0.57,0.07-0.67,0.22c-0.1,0.15-0.17,0.47-0.19,0.96v0.96v1.72v4.5c0,0.78-0.09,1.32-0.26,1.64
		c-0.17,0.31-0.48,0.47-0.91,0.47c-0.55,0-1.02-0.39-1.41-1.18l-4.45-9.21v7.86c0,0.84,0.29,1.27,0.86,1.27
		c0.09,0,0.22-0.01,0.41-0.03c0.18-0.02,0.32-0.03,0.41-0.03c0.36,0,0.54,0.18,0.54,0.54c0,0.38-0.25,0.57-0.76,0.57
		c-0.02,0-0.06,0-0.1,0c-0.06-0.01-0.1-0.02-0.12-0.02l-0.69-0.1c-0.38-0.06-0.74-0.08-1.08-0.08c-0.29,0-0.67,0.03-1.13,0.08
		l-0.83,0.1c-0.02,0-0.06,0.01-0.12,0.02c-0.06,0-0.1,0-0.13,0c-0.48,0-0.73-0.2-0.73-0.59c0-0.35,0.18-0.52,0.54-0.52
		c0.06,0,0.21,0.01,0.46,0.03c0.12,0.03,0.24,0.05,0.36,0.05c0.57,0,0.86-0.42,0.86-1.27V8.46V6.98V5.52V2.85
		c0-0.84-0.29-1.27-0.87-1.27c-0.08,0-0.19,0.01-0.33,0.03c-0.21,0.03-0.37,0.05-0.47,0.05c-0.36,0-0.54-0.19-0.54-0.56
		c0-0.39,0.24-0.59,0.72-0.59c0.07,0,0.16,0.01,0.27,0.02c0.56,0.06,1,0.08,1.3,0.08c0.17,0,0.42-0.02,0.76-0.05
		s0.59-0.05,0.76-0.05c0.35,0,0.58,0.12,0.69,0.35L316.06,1.28z"/>
	<path d="M329.45,8.49c0-0.04,0-0.15,0-0.32c-0.01-0.18-0.02-0.33-0.02-0.46l-3.28-5.21c-0.21-0.34-0.35-0.54-0.41-0.59
		c-0.17-0.17-0.38-0.25-0.62-0.25c-0.14,0-0.24,0.02-0.3,0.07c-0.03,0-0.08,0-0.15,0c-0.08,0-0.14,0-0.17,0
		c-0.52,0-0.78-0.2-0.78-0.59c0-0.41,0.23-0.61,0.68-0.61c0.18,0,0.41,0.02,0.68,0.07c0.54,0.09,1.05,0.14,1.52,0.14
		c0.35,0,0.87-0.05,1.57-0.15c0.24-0.03,0.44-0.05,0.61-0.05c0.46,0,0.69,0.19,0.69,0.57c0,0.37-0.28,0.56-0.83,0.56h-0.17h-0.42
		h-0.34c-0.13-0.01-0.2,0.03-0.2,0.13c0,0.05,0.01,0.08,0.02,0.09c0.01,0.02,0.04,0.06,0.08,0.14l2.58,4.39l2.62-4.39
		c0.06-0.09,0.08-0.18,0.08-0.27c0-0.1-0.07-0.15-0.22-0.15h-0.03l-0.3,0.05L331.9,1.7c-0.19,0.02-0.34,0.03-0.44,0.03
		c-0.46,0-0.69-0.2-0.69-0.6c0-0.4,0.22-0.6,0.68-0.6c0.17,0,0.37,0.02,0.61,0.05c0.63,0.09,1.18,0.13,1.64,0.13
		c0.48,0,1.02-0.04,1.6-0.13c0.23-0.03,0.42-0.05,0.57-0.05c0.43,0,0.64,0.2,0.64,0.59c0,0.36-0.21,0.54-0.63,0.54
		c-0.17,0-0.3-0.01-0.39-0.03c-0.18-0.02-0.3-0.03-0.37-0.03c-0.29,0-0.53,0.13-0.71,0.41l-0.25,0.39l-3.33,5.22v0.71
		c0,1.15,0.05,1.86,0.14,2.15c0.1,0.28,0.33,0.42,0.72,0.42c0.09,0,0.23-0.01,0.41-0.04c0.19-0.03,0.32-0.04,0.41-0.04
		c0.35,0,0.52,0.18,0.52,0.54c0,0.41-0.25,0.61-0.76,0.61c-0.01,0-0.05,0-0.1,0c-0.04-0.01-0.08-0.02-0.12-0.02l-0.93-0.12
		c-0.35-0.04-0.69-0.07-1.03-0.07c-0.36,0-0.7,0.02-1.03,0.07l-0.86,0.12c-0.02,0-0.06,0.01-0.1,0.02c-0.06,0-0.1,0-0.12,0
		c-0.51,0-0.76-0.2-0.76-0.59c0-0.37,0.18-0.56,0.54-0.56c0.09,0,0.22,0.01,0.4,0.04c0.17,0.03,0.31,0.04,0.4,0.04
		c0.47,0,0.76-0.3,0.86-0.9C329.44,9.88,329.45,9.38,329.45,8.49z"/>
	<path d="M338.6,1.23l-0.03,0.19c0.28-0.45,0.54-0.75,0.76-0.91c0.22-0.16,0.53-0.24,0.91-0.24c0.55,0,1.2,0.29,1.94,0.86
		c0.83,0.64,1.48,0.96,1.93,0.96c0.47,0,0.77-0.16,0.88-0.49h-0.14c-0.16,0-0.3-0.07-0.43-0.21c-0.13-0.14-0.19-0.29-0.19-0.46
		c0-0.22,0.08-0.4,0.25-0.56c0.16-0.15,0.36-0.23,0.58-0.23c0.74,0,1.12,0.5,1.12,1.51c0,0.75-0.19,1.4-0.56,1.97
		c-0.24,0.35-0.49,0.66-0.76,0.92c-0.12,0.12-0.37,0.35-0.74,0.68c-0.77,0.67-1.29,1.28-1.57,1.85c-0.41,0.8-0.61,1.77-0.61,2.91
		c0-0.02,0,0.1,0.02,0.37c0.02,0.54,0.03,0.79,0.03,0.73c0,0.71-0.28,1.07-0.84,1.07c-0.59,0-0.88-0.46-0.88-1.38
		c0-1.45,0.27-2.72,0.81-3.8c0.44-0.88,1.37-1.9,2.8-3.07c0.59-0.48,0.92-0.88,1-1.2c-0.39,0.33-0.87,0.49-1.46,0.49
		c-0.72,0-1.43-0.26-2.12-0.78l-0.7-0.52c-0.25-0.18-0.53-0.27-0.83-0.27c-0.72,0-1.09,0.46-1.09,1.39c0,0.28,0.03,0.54,0.08,0.76
		c0.09,0.39,0.14,0.69,0.14,0.88s-0.07,0.35-0.19,0.49c-0.13,0.14-0.29,0.2-0.48,0.2c-0.45,0-0.68-0.24-0.68-0.73
		c0-0.19,0.03-0.48,0.08-0.88c0.05-0.39,0.08-0.7,0.08-0.91c0-0.31-0.02-0.65-0.05-1.01c-0.03-0.36-0.05-0.67-0.05-0.95
		c0-0.46,0.2-0.69,0.59-0.69c0.33,0,0.49,0.2,0.49,0.59C338.67,0.82,338.65,0.99,338.6,1.23z"/>
	<path d="M349.36,1.23l-0.03,0.19c0.28-0.45,0.54-0.75,0.76-0.91c0.22-0.16,0.53-0.24,0.91-0.24c0.55,0,1.2,0.29,1.94,0.86
		c0.83,0.64,1.48,0.96,1.93,0.96c0.47,0,0.77-0.16,0.88-0.49h-0.14c-0.16,0-0.3-0.07-0.43-0.21c-0.13-0.14-0.19-0.29-0.19-0.46
		c0-0.22,0.08-0.4,0.25-0.56c0.16-0.15,0.36-0.23,0.58-0.23c0.74,0,1.12,0.5,1.12,1.51c0,0.75-0.19,1.4-0.56,1.97
		c-0.24,0.35-0.49,0.66-0.76,0.92c-0.12,0.12-0.37,0.35-0.74,0.68c-0.77,0.67-1.29,1.28-1.57,1.85c-0.41,0.8-0.61,1.77-0.61,2.91
		c0-0.02,0,0.1,0.02,0.37c0.02,0.54,0.03,0.79,0.03,0.73c0,0.71-0.28,1.07-0.84,1.07c-0.59,0-0.88-0.46-0.88-1.38
		c0-1.45,0.27-2.72,0.81-3.8c0.44-0.88,1.37-1.9,2.8-3.07c0.59-0.48,0.92-0.88,1-1.2c-0.39,0.33-0.87,0.49-1.46,0.49
		c-0.72,0-1.43-0.26-2.12-0.78l-0.7-0.52c-0.25-0.18-0.53-0.27-0.83-0.27c-0.72,0-1.09,0.46-1.09,1.39c0,0.28,0.03,0.54,0.08,0.76
		c0.09,0.39,0.14,0.69,0.14,0.88s-0.07,0.35-0.19,0.49c-0.13,0.14-0.29,0.2-0.48,0.2c-0.45,0-0.68-0.24-0.68-0.73
		c0-0.19,0.03-0.48,0.08-0.88c0.05-0.39,0.08-0.7,0.08-0.91c0-0.31-0.02-0.65-0.05-1.01c-0.03-0.36-0.05-0.67-0.05-0.95
		c0-0.46,0.2-0.69,0.59-0.69c0.33,0,0.49,0.2,0.49,0.59C349.43,0.82,349.41,0.99,349.36,1.23z"/>
	<path d="M358.89,6.44c-0.29,0-0.54-0.1-0.74-0.31c-0.2-0.21-0.3-0.46-0.3-0.75s0.1-0.54,0.3-0.75c0.2-0.21,0.45-0.31,0.74-0.31
		s0.54,0.1,0.74,0.31c0.2,0.21,0.3,0.46,0.3,0.75s-0.1,0.54-0.3,0.75S359.19,6.44,358.89,6.44z M358.89,12.15
		c-0.29,0-0.54-0.1-0.74-0.31c-0.2-0.21-0.3-0.46-0.3-0.75s0.1-0.54,0.3-0.75c0.2-0.21,0.45-0.31,0.74-0.31s0.54,0.1,0.74,0.31
		c0.2,0.21,0.3,0.46,0.3,0.75s-0.1,0.54-0.3,0.75S359.19,12.15,358.89,12.15z"/>
	<path d="M371.46,9.63c0,0.84,0.29,1.27,0.86,1.27c0.09,0,0.23-0.01,0.41-0.04c0.18-0.03,0.32-0.04,0.41-0.04
		c0.15,0,0.27,0.05,0.38,0.16c0.11,0.11,0.16,0.23,0.16,0.38c0,0.39-0.25,0.59-0.76,0.59c-0.02,0-0.06,0-0.1,0
		c-0.06-0.01-0.1-0.02-0.12-0.02l-0.83-0.12c-0.32-0.04-0.67-0.07-1.06-0.07c-0.43,0-0.8,0.02-1.13,0.07l-0.84,0.12
		c-0.03,0-0.07,0.01-0.12,0.02c-0.06,0-0.1,0-0.12,0c-0.5,0-0.74-0.2-0.74-0.59c0-0.36,0.18-0.54,0.54-0.54
		c0.09,0,0.23,0.01,0.41,0.04c0.18,0.03,0.31,0.04,0.41,0.04c0.56,0,0.84-0.42,0.84-1.27V8.45V6.96V5.52V2.77
		c0-0.8-0.41-1.2-1.23-1.2h-0.52c-0.81,0-1.22,0.39-1.22,1.18c0,0.28,0.01,0.47,0.02,0.57l0.07,0.62c0.01,0.1,0.02,0.24,0.02,0.42
		c0,0.71-0.22,1.06-0.66,1.06c-0.42,0-0.62-0.26-0.62-0.78c0-0.15,0.01-0.4,0.03-0.76c0.03-0.54,0.05-0.88,0.05-1.03
		c0-0.28-0.01-0.58-0.03-0.88c-0.04-0.6-0.06-0.85-0.06-0.76c0-0.47,0.21-0.71,0.64-0.71c0.16,0,0.52,0.02,1.1,0.05
		c0.06,0,0.52,0.02,1.38,0.07h1.92c0.22,0,0.83-0.01,1.8-0.03c0.21,0,0.58-0.01,1.1-0.04c0.46-0.03,0.82-0.04,1.08-0.04
		c0.56,0,0.84,0.23,0.84,0.69v0.03c0,0.11-0.01,0.32-0.04,0.62c-0.03,0.3-0.06,0.63-0.09,0.98v0.19c0,0.17,0.02,0.43,0.05,0.79
		c0.04,0.47,0.07,0.77,0.07,0.88c0,0.46-0.22,0.69-0.66,0.69c-0.43,0-0.64-0.28-0.64-0.85c0-0.2,0.02-0.51,0.05-0.91
		c0.03-0.4,0.05-0.7,0.05-0.91c0-0.78-0.44-1.17-1.33-1.17h-0.47c-0.42,0-0.71,0.09-0.89,0.26c-0.18,0.17-0.28,0.46-0.3,0.87
		l-0.07,1.18V9.63z"/>
	<path d="M379.49,0.97l-0.07,3.29c0.45-0.43,0.86-0.72,1.24-0.89s0.81-0.25,1.32-0.25c0.97,0,1.75,0.28,2.34,0.83
		c0.59,0.55,0.88,1.28,0.88,2.18v2.82c0,0.67,0,1.03,0.02,1.1c0.04,0.56,0.19,0.84,0.44,0.84c0.09,0,0.22-0.03,0.39-0.09
		c0.07-0.02,0.16-0.02,0.27-0.02c0.42,0,0.62,0.19,0.62,0.57s-0.27,0.57-0.81,0.57c-0.15,0-0.36-0.02-0.64-0.05
		c-0.47-0.06-0.86-0.08-1.15-0.08s-0.52,0.01-0.68,0.03c-0.47,0.07-0.77,0.1-0.88,0.1c-0.2,0-0.37-0.06-0.51-0.18
		c-0.14-0.12-0.2-0.27-0.2-0.45c0-0.15,0.06-0.27,0.18-0.37c0.12-0.1,0.26-0.15,0.41-0.15c0.12,0,0.27,0.03,0.44,0.08
		c0.1,0.03,0.2,0.05,0.29,0.05c0.34,0,0.51-0.37,0.52-1.1c0-0.14,0.01-0.4,0.03-0.79V8.29V7.38c0-1.15-0.11-1.92-0.34-2.31
		c-0.33-0.59-0.9-0.88-1.73-0.88c-0.89,0-1.54,0.3-1.95,0.91c-0.28,0.42-0.43,1.09-0.44,2.01v1.22c0,0.07-0.02,0.18-0.07,0.34
		c0,0.15,0,0.25,0,0.32c0,0.64,0.01,1.01,0.02,1.12c0.06,0.55,0.23,0.83,0.5,0.83c0.09,0,0.22-0.03,0.39-0.08s0.29-0.08,0.37-0.08
		c0.37,0,0.56,0.18,0.56,0.54c0,0.41-0.25,0.61-0.75,0.61c-0.16,0-0.4-0.02-0.71-0.05c-0.43-0.04-0.8-0.07-1.11-0.07
		c-0.19,0-0.46,0.02-0.8,0.05c-0.45,0.04-0.74,0.07-0.87,0.07c-0.47,0-0.7-0.21-0.7-0.63c0-0.35,0.22-0.52,0.65-0.52
		c0.15,0,0.26,0.02,0.33,0.05c0.19,0.05,0.33,0.07,0.41,0.07c0.18,0,0.31-0.17,0.37-0.52c0.06-0.34,0.1-1.04,0.11-2.1V5.25
		c0-1.69-0.03-2.76-0.1-3.2c-0.07-0.45-0.23-0.67-0.47-0.67c-0.08,0-0.2,0.02-0.35,0.05c-0.16,0.03-0.28,0.05-0.37,0.05
		c-0.38,0-0.58-0.18-0.58-0.54c0-0.16,0.07-0.29,0.2-0.41c0.13-0.11,0.3-0.17,0.49-0.17c0.06,0,0.25,0.02,0.57,0.05
		c0.21,0.02,0.44,0.03,0.69,0.03c0.1,0,0.24-0.01,0.42-0.04c0.18-0.03,0.31-0.04,0.39-0.04c0.26,0,0.39,0.19,0.39,0.56V0.97z"/>
	<path d="M395.28,6.89c0,0.43-0.03,0.69-0.08,0.79c-0.06,0.1-0.22,0.14-0.49,0.14h-5.37c-0.15,0-0.24,0.02-0.29,0.06
		c-0.04,0.04-0.07,0.1-0.07,0.19c0,0.84,0.25,1.55,0.76,2.11c0.51,0.56,1.14,0.84,1.89,0.84c0.5,0,0.95-0.13,1.36-0.41
		c0.41-0.27,0.68-0.61,0.8-1.03l0.15-0.49c0.08-0.27,0.26-0.41,0.56-0.41c0.42,0,0.62,0.21,0.62,0.64c0,0.73-0.37,1.38-1.12,1.95
		c-0.74,0.57-1.59,0.85-2.53,0.85c-1.18,0-2.12-0.4-2.82-1.19c-0.7-0.79-1.05-1.86-1.05-3.2c0-1.37,0.37-2.49,1.11-3.34
		c0.74-0.86,1.71-1.28,2.91-1.28c1.06,0,1.93,0.35,2.62,1.06C394.94,4.9,395.28,5.8,395.28,6.89z M389.15,6.45
		c0,0.16,0.12,0.24,0.37,0.24h4.04c0.24,0,0.35-0.08,0.35-0.24c0-0.6-0.22-1.12-0.68-1.55c-0.45-0.44-0.98-0.66-1.59-0.66
		c-0.63,0-1.21,0.23-1.72,0.68C389.41,5.38,389.15,5.89,389.15,6.45z"/>
	<path d="M405.81,0.22c1.25,0,2.27,0.48,3.06,1.44V1.46c0-0.06,0-0.12,0-0.19c-0.02-0.07-0.03-0.11-0.03-0.12
		c-0.02-0.25-0.03-0.37-0.03-0.35c0-0.39,0.17-0.59,0.52-0.59c0.37,0,0.56,0.24,0.56,0.71c0,0.09-0.01,0.36-0.03,0.81
		c-0.07,0.56-0.1,0.95-0.1,1.17c0,0.3,0.02,0.61,0.06,0.93l0.08,0.64v0.17c0,0.51-0.2,0.76-0.61,0.76c-0.44,0-0.65-0.24-0.64-0.72
		v-0.6c0.02-0.8-0.23-1.46-0.76-1.96s-1.22-0.75-2.07-0.75c-1.11,0-1.98,0.43-2.61,1.28c-0.63,0.86-0.94,2.04-0.94,3.55
		c0,1.54,0.32,2.75,0.97,3.61c0.65,0.86,1.55,1.29,2.71,1.29c0.63,0,1.2-0.15,1.7-0.46c0.5-0.3,0.85-0.7,1.06-1.2
		c0.14-0.33,0.2-0.77,0.2-1.32c0-0.52,0.21-0.78,0.64-0.78c0.46,0,0.69,0.26,0.69,0.78c0,1.21-0.42,2.19-1.25,2.96
		c-0.83,0.77-1.91,1.15-3.23,1.15c-1.52,0-2.73-0.54-3.64-1.61c-0.91-1.07-1.36-2.49-1.36-4.27c0-1.83,0.46-3.32,1.39-4.44
		C403.06,0.78,404.29,0.22,405.81,0.22z"/>
	<path d="M415.4,12.15c-1.18,0-2.13-0.41-2.84-1.22c-0.71-0.82-1.06-1.91-1.06-3.29s0.36-2.47,1.07-3.29
		c0.71-0.82,1.67-1.22,2.88-1.22c1.23,0,2.2,0.4,2.91,1.2c0.71,0.8,1.06,1.89,1.06,3.26s-0.37,2.48-1.1,3.31
		C417.59,11.73,416.62,12.15,415.4,12.15z M415.49,4.24c-0.79,0-1.41,0.28-1.86,0.83s-0.7,1.33-0.74,2.35v0.22
		c0,1.06,0.22,1.89,0.67,2.49c0.45,0.6,1.07,0.9,1.87,0.9c0.82,0,1.47-0.3,1.93-0.9c0.47-0.6,0.7-1.44,0.7-2.51
		C418.06,5.37,417.2,4.24,415.49,4.24z"/>
	<path d="M424.63,12.15c-1.18,0-2.13-0.41-2.84-1.22c-0.71-0.82-1.06-1.91-1.06-3.29s0.36-2.47,1.07-3.29
		c0.71-0.82,1.67-1.22,2.88-1.22c1.23,0,2.2,0.4,2.91,1.2c0.71,0.8,1.06,1.89,1.06,3.26s-0.37,2.48-1.1,3.31
		C426.82,11.73,425.84,12.15,424.63,12.15z M424.71,4.24c-0.79,0-1.41,0.28-1.86,0.83s-0.7,1.33-0.74,2.35v0.22
		c0,1.06,0.22,1.89,0.67,2.49c0.45,0.6,1.07,0.9,1.87,0.9c0.82,0,1.47-0.3,1.93-0.9c0.47-0.6,0.7-1.44,0.7-2.51
		C427.28,5.37,426.42,4.24,424.71,4.24z"/>
	<path d="M432.62,4.81v5.25c0.01,0.57,0.17,0.86,0.46,0.86c0.07,0,0.21-0.03,0.43-0.08c0.14-0.02,0.23-0.03,0.27-0.03
		c0.38,0,0.56,0.19,0.56,0.57c0,0.37-0.23,0.56-0.69,0.56c-0.18,0-0.47-0.02-0.86-0.07s-0.7-0.07-0.91-0.07
		c-0.18,0-0.45,0.02-0.81,0.07c-0.36,0.04-0.62,0.07-0.79,0.07h-0.08c-0.47,0-0.71-0.2-0.71-0.61c0-0.35,0.19-0.52,0.58-0.52
		c0.02,0,0.06,0,0.12,0c0.07,0.02,0.12,0.02,0.15,0.02c0.28,0.06,0.45,0.09,0.5,0.09c0.2,0,0.33-0.09,0.38-0.26
		c0.05-0.17,0.08-0.63,0.09-1.36l0.02-1.19V5.47V2.45c-0.01-0.34-0.03-0.56-0.05-0.68c-0.08-0.26-0.24-0.39-0.47-0.39
		c-0.03,0-0.18,0.02-0.44,0.07c-0.12,0.02-0.23,0.03-0.3,0.03c-0.38,0-0.57-0.18-0.57-0.54c0-0.37,0.23-0.56,0.68-0.56
		c0.12,0,0.23,0.01,0.32,0.02l0.41,0.05c0.18,0.02,0.33,0.03,0.46,0.03c0.11,0,0.28-0.02,0.51-0.05c0.23-0.03,0.39-0.05,0.51-0.05
		c0.26,0,0.39,0.16,0.39,0.49c0,0.11-0.01,0.2-0.02,0.25C432.66,2,432.62,3.22,432.62,4.81z"/>
	<path d="M442.86,6.89c0,0.43-0.03,0.69-0.08,0.79c-0.06,0.1-0.22,0.14-0.49,0.14h-5.37c-0.15,0-0.24,0.02-0.29,0.06
		c-0.04,0.04-0.07,0.1-0.07,0.19c0,0.84,0.25,1.55,0.76,2.11c0.51,0.56,1.14,0.84,1.89,0.84c0.5,0,0.95-0.13,1.36-0.41
		c0.41-0.27,0.68-0.61,0.8-1.03l0.15-0.49c0.08-0.27,0.26-0.41,0.56-0.41c0.42,0,0.62,0.21,0.62,0.64c0,0.73-0.37,1.38-1.12,1.95
		c-0.74,0.57-1.59,0.85-2.53,0.85c-1.18,0-2.12-0.4-2.82-1.19c-0.7-0.79-1.05-1.86-1.05-3.2c0-1.37,0.37-2.49,1.11-3.34
		c0.74-0.86,1.71-1.28,2.91-1.28c1.06,0,1.93,0.35,2.62,1.06C442.51,4.9,442.86,5.8,442.86,6.89z M436.72,6.45
		c0,0.16,0.12,0.24,0.37,0.24h4.04c0.24,0,0.35-0.08,0.35-0.24c0-0.6-0.22-1.12-0.68-1.55c-0.45-0.44-0.98-0.66-1.59-0.66
		c-0.63,0-1.21,0.23-1.72,0.68C436.98,5.38,436.72,5.89,436.72,6.45z"/>
	<path d="M447.66,3.12c0.75,0,1.38,0.2,1.89,0.59V3.65c0-0.42,0.18-0.62,0.54-0.62c0.37,0,0.56,0.18,0.56,0.54
		c0,0.07-0.01,0.24-0.03,0.51c-0.04,0.23-0.06,0.45-0.06,0.68c0,0.13,0.01,0.33,0.04,0.59c0.03,0.26,0.04,0.46,0.04,0.59
		c0,0.43-0.18,0.64-0.55,0.64c-0.35,0-0.54-0.18-0.55-0.54V5.47c-0.01-0.34-0.21-0.63-0.58-0.87c-0.38-0.24-0.82-0.36-1.33-0.36
		c-0.52,0-0.95,0.13-1.3,0.4c-0.35,0.27-0.52,0.59-0.52,0.99c0,0.72,0.5,1.15,1.49,1.28l0.98,0.14c1.91,0.26,2.87,1.05,2.87,2.38
		c0,0.81-0.31,1.47-0.93,1.97c-0.62,0.5-1.43,0.75-2.43,0.75c-0.93,0-1.74-0.26-2.43-0.79c0,0.11,0,0.22,0,0.32
		c0,0.41-0.19,0.61-0.57,0.61c-0.42,0-0.62-0.23-0.62-0.69c0,0.08,0.03-0.21,0.1-0.88c0.02-0.16,0.03-0.32,0.03-0.47
		c0-0.27-0.02-0.52-0.07-0.76s-0.07-0.42-0.07-0.56c0-0.39,0.18-0.59,0.54-0.59c0.24,0,0.39,0.06,0.45,0.17
		c0.06,0.11,0.1,0.41,0.11,0.9c0.01,0.48,0.26,0.88,0.76,1.18c0.5,0.3,1.13,0.46,1.89,0.46c0.55,0,1.01-0.14,1.37-0.42
		c0.36-0.28,0.54-0.64,0.54-1.06c0-0.77-0.61-1.21-1.82-1.33c-1.16-0.12-2.04-0.35-2.65-0.68s-0.91-0.92-0.91-1.75
		c0-0.79,0.3-1.43,0.89-1.92C445.93,3.37,446.71,3.12,447.66,3.12z"/>
	<path d="M457.11,9.53V8.45c0.01-0.46,0.21-0.69,0.61-0.69c0.39,0,0.59,0.26,0.59,0.78c0,1.23-0.16,2.08-0.47,2.57
		c-0.42,0.65-1.12,0.98-2.1,0.98c-0.89,0-1.53-0.29-1.91-0.86c-0.28-0.42-0.42-1.13-0.42-2.13V5.03c0-0.24-0.11-0.35-0.33-0.35
		h-0.55c-0.18,0-0.34-0.06-0.46-0.18s-0.18-0.26-0.18-0.43c0-0.16,0.06-0.3,0.18-0.42c0.12-0.12,0.25-0.19,0.4-0.19h0.66
		c0.19,0,0.29-0.11,0.29-0.32V1.4c0-0.43,0.22-0.64,0.66-0.64c0.41,0,0.61,0.21,0.61,0.64v1.81c0,0.17,0.1,0.25,0.3,0.25h1.84
		c0.43,0,0.64,0.2,0.64,0.59c0,0.42-0.23,0.62-0.69,0.62h-1.86c-0.16,0-0.24,0.12-0.24,0.35v4.16c0,1.18,0.39,1.77,1.18,1.77
		C456.66,10.96,457.08,10.49,457.11,9.53z"/>
	<path d="M468.23,8.49c0-0.04,0-0.15,0-0.32c-0.01-0.18-0.02-0.33-0.02-0.46l-3.28-5.21c-0.21-0.34-0.35-0.54-0.41-0.59
		c-0.17-0.17-0.38-0.25-0.62-0.25c-0.14,0-0.24,0.02-0.3,0.07c-0.03,0-0.08,0-0.15,0c-0.08,0-0.14,0-0.17,0
		c-0.52,0-0.78-0.2-0.78-0.59c0-0.41,0.23-0.61,0.68-0.61c0.18,0,0.41,0.02,0.68,0.07c0.54,0.09,1.05,0.14,1.52,0.14
		c0.35,0,0.87-0.05,1.57-0.15c0.24-0.03,0.44-0.05,0.61-0.05c0.46,0,0.69,0.19,0.69,0.57c0,0.37-0.28,0.56-0.83,0.56h-0.17h-0.42
		h-0.34c-0.13-0.01-0.2,0.03-0.2,0.13c0,0.05,0.01,0.08,0.02,0.09c0.01,0.02,0.04,0.06,0.08,0.14l2.58,4.39l2.62-4.39
		c0.06-0.09,0.08-0.18,0.08-0.27c0-0.1-0.07-0.15-0.22-0.15h-0.03l-0.3,0.05l-0.44,0.04c-0.19,0.02-0.34,0.03-0.44,0.03
		c-0.46,0-0.69-0.2-0.69-0.6c0-0.4,0.22-0.6,0.68-0.6c0.17,0,0.37,0.02,0.61,0.05c0.63,0.09,1.18,0.13,1.64,0.13
		c0.48,0,1.02-0.04,1.6-0.13c0.23-0.03,0.42-0.05,0.57-0.05c0.43,0,0.64,0.2,0.64,0.59c0,0.36-0.21,0.54-0.63,0.54
		c-0.17,0-0.3-0.01-0.39-0.03c-0.18-0.02-0.3-0.03-0.37-0.03c-0.29,0-0.53,0.13-0.71,0.41l-0.25,0.39l-3.33,5.22v0.71
		c0,1.15,0.05,1.86,0.14,2.15c0.1,0.28,0.33,0.42,0.72,0.42c0.09,0,0.23-0.01,0.41-0.04c0.19-0.03,0.32-0.04,0.41-0.04
		c0.35,0,0.52,0.18,0.52,0.54c0,0.41-0.25,0.61-0.76,0.61c-0.01,0-0.05,0-0.1,0c-0.04-0.01-0.08-0.02-0.12-0.02l-0.93-0.12
		c-0.35-0.04-0.69-0.07-1.03-0.07c-0.36,0-0.7,0.02-1.03,0.07L467,11.93c-0.02,0-0.06,0.01-0.1,0.02c-0.06,0-0.1,0-0.12,0
		c-0.51,0-0.76-0.2-0.76-0.59c0-0.37,0.18-0.56,0.54-0.56c0.09,0,0.22,0.01,0.4,0.04c0.17,0.03,0.31,0.04,0.4,0.04
		c0.47,0,0.76-0.3,0.86-0.9C468.22,9.88,468.23,9.38,468.23,8.49z"/>
	<path d="M481.66,6.89c0,0.43-0.03,0.69-0.08,0.79c-0.06,0.1-0.22,0.14-0.49,0.14h-5.37c-0.15,0-0.24,0.02-0.29,0.06
		c-0.04,0.04-0.07,0.1-0.07,0.19c0,0.84,0.25,1.55,0.76,2.11c0.51,0.56,1.14,0.84,1.89,0.84c0.5,0,0.95-0.13,1.36-0.41
		c0.41-0.27,0.68-0.61,0.8-1.03l0.15-0.49c0.08-0.27,0.26-0.41,0.56-0.41c0.42,0,0.62,0.21,0.62,0.64c0,0.73-0.37,1.38-1.12,1.95
		c-0.74,0.57-1.59,0.85-2.53,0.85c-1.18,0-2.12-0.4-2.82-1.19c-0.7-0.79-1.05-1.86-1.05-3.2c0-1.37,0.37-2.49,1.11-3.34
		c0.74-0.86,1.71-1.28,2.91-1.28c1.06,0,1.93,0.35,2.62,1.06C481.32,4.9,481.66,5.8,481.66,6.89z M475.53,6.45
		c0,0.16,0.12,0.24,0.37,0.24h4.04c0.24,0,0.35-0.08,0.35-0.24c0-0.6-0.22-1.12-0.68-1.55c-0.45-0.44-0.98-0.66-1.59-0.66
		c-0.63,0-1.21,0.23-1.72,0.68C475.79,5.38,475.53,5.89,475.53,6.45z"/>
	<path d="M490.18,12.08c-0.92,0-1.49-0.4-1.71-1.2c-0.57,0.84-1.48,1.27-2.7,1.27c-0.91,0-1.64-0.23-2.19-0.68
		c-0.55-0.45-0.82-1.05-0.82-1.81c0-0.93,0.4-1.62,1.2-2.06c0.3-0.17,0.57-0.28,0.79-0.33s0.66-0.12,1.33-0.19
		c0.95-0.1,1.56-0.24,1.85-0.42c0.29-0.18,0.43-0.51,0.43-1c0-0.46-0.16-0.83-0.48-1.09s-0.77-0.4-1.34-0.4
		c-0.51,0-0.98,0.14-1.42,0.42c-0.17,0.11-0.25,0.23-0.25,0.36c0,0.04,0.05,0.1,0.15,0.17c0.16,0.11,0.24,0.3,0.24,0.58
		c0,0.23-0.08,0.41-0.25,0.56s-0.37,0.22-0.62,0.22c-0.29,0-0.54-0.1-0.74-0.3s-0.3-0.45-0.3-0.74c0-0.63,0.31-1.17,0.94-1.62
		c0.62-0.45,1.38-0.68,2.27-0.68c2.05,0,3.08,0.98,3.08,2.95v3.41c0,0.54,0.01,0.86,0.03,0.96c0.07,0.39,0.26,0.59,0.58,0.59
		c0.39,0,0.59-0.36,0.59-1.07V9.14c0-0.36,0.17-0.54,0.52-0.54c0.37,0,0.55,0.27,0.55,0.81v0.08v0.96
		C491.88,11.54,491.3,12.08,490.18,12.08z M488.3,8.72v-1.2c-0.25,0.23-0.51,0.38-0.78,0.47c-0.28,0.09-0.77,0.17-1.47,0.24
		c-1.28,0.12-1.92,0.6-1.92,1.42c0,0.43,0.16,0.77,0.46,1.01s0.73,0.37,1.26,0.37c0.75,0,1.35-0.21,1.78-0.62
		S488.29,9.44,488.3,8.72z"/>
	<path d="M494.99,3.89v0.46c0.58-0.82,1.37-1.23,2.35-1.23c0.79,0,1.43,0.22,1.92,0.67c0.49,0.45,0.74,1.02,0.74,1.71
		c0,0.5-0.12,0.9-0.37,1.21c-0.25,0.31-0.57,0.46-0.98,0.46c-0.26,0-0.48-0.08-0.66-0.24c-0.18-0.16-0.27-0.35-0.27-0.57
		c0-0.18,0.07-0.34,0.2-0.48c0.13-0.14,0.29-0.21,0.47-0.21c0.03,0,0.11,0.02,0.22,0.05c0.07-0.13,0.1-0.26,0.1-0.37
		c0-0.33-0.14-0.6-0.43-0.83s-0.65-0.34-1.07-0.34c-0.88,0-1.46,0.39-1.76,1.18c-0.18,0.48-0.27,1.22-0.27,2.2v1.12
		c0,0.75,0.01,1.18,0.02,1.27c0.06,0.64,0.23,0.96,0.52,0.96c0.15,0,0.3-0.02,0.46-0.06c0.12-0.03,0.23-0.04,0.32-0.04
		c0.36,0,0.54,0.18,0.54,0.53c0,0.39-0.23,0.58-0.69,0.58h-0.07c-0.17,0-0.42-0.02-0.77-0.06c-0.34-0.04-0.6-0.06-0.77-0.06
		c-0.45,0-0.8,0.01-1.06,0.03l-0.94,0.08c-0.46,0-0.69-0.2-0.69-0.59c0-0.35,0.22-0.52,0.65-0.52c0.11,0,0.2,0.01,0.26,0.02
		l0.26,0.05c0.11,0.02,0.19,0.03,0.24,0.03c0.28,0,0.44-0.26,0.46-0.78V9.27l-0.05-3.83c-0.03-0.66-0.2-1-0.51-1
		c-0.09,0-0.21,0.02-0.37,0.05c-0.16,0.03-0.28,0.05-0.37,0.05c-0.37,0-0.56-0.18-0.56-0.54c0-0.39,0.24-0.59,0.73-0.59
		c0.11,0,0.28,0.01,0.51,0.04c0.22,0.03,0.39,0.04,0.51,0.04c0.09,0,0.24-0.01,0.44-0.04c0.09-0.03,0.2-0.04,0.32-0.04
		C494.84,3.41,494.99,3.57,494.99,3.89z"/>
	<path d="M507.69,6.96v2.2c0,0.56,0.01,0.9,0.02,1c0.06,0.51,0.21,0.76,0.46,0.76c0.06,0,0.2-0.03,0.42-0.08
		c0.06-0.02,0.14-0.03,0.25-0.03c0.43,0,0.64,0.19,0.64,0.56c0,0.16-0.07,0.29-0.21,0.41s-0.32,0.17-0.53,0.17
		c-0.18,0-0.46-0.03-0.82-0.08s-0.64-0.08-0.82-0.08c-0.29,0-0.62,0.02-0.98,0.07c-0.44,0.06-0.73,0.08-0.88,0.08
		c-0.45,0-0.68-0.19-0.68-0.57c0-0.37,0.19-0.56,0.58-0.56c0.09,0,0.22,0.02,0.4,0.05s0.31,0.05,0.4,0.05c0.27,0,0.44-0.36,0.5-1.08
		c0-0.04,0-0.54,0-1.47V6.96c0-0.93,0-1.42,0-1.47c-0.06-0.71-0.23-1.06-0.51-1.06c-0.09,0-0.22,0.02-0.38,0.06
		c-0.17,0.04-0.29,0.06-0.37,0.06c-0.41,0-0.61-0.18-0.61-0.54c0-0.38,0.25-0.57,0.74-0.57c0.21,0,0.37,0,0.46,0.02
		c0.36,0.04,0.59,0.07,0.69,0.07c0.09,0,0.23-0.01,0.41-0.04s0.32-0.04,0.41-0.04c0.33,0,0.49,0.22,0.49,0.66
		c0,0.04,0,0.11-0.01,0.2c-0.01,0.09-0.01,0.16-0.01,0.2c-0.01,0.09-0.02,0.44-0.03,1.05C507.7,6,507.69,6.48,507.69,6.96z
		 M506.82,2.53c-0.26,0-0.48-0.09-0.67-0.28c-0.19-0.19-0.28-0.41-0.28-0.67s0.09-0.48,0.28-0.66c0.19-0.18,0.41-0.27,0.67-0.27
		c0.26,0,0.48,0.09,0.67,0.27c0.19,0.18,0.28,0.4,0.28,0.66s-0.09,0.48-0.28,0.67C507.3,2.44,507.07,2.53,506.82,2.53z"/>
	<path d="M512.78,3.93v0.48c0.67-0.86,1.58-1.28,2.7-1.28c0.61,0,1.18,0.16,1.72,0.46s0.91,0.7,1.1,1.16
		c0.16,0.38,0.24,0.88,0.24,1.5v3.21c0,0.48,0,0.77,0.02,0.86c0.06,0.38,0.21,0.57,0.46,0.57c0.1,0,0.23-0.01,0.4-0.04
		c0.16-0.03,0.28-0.04,0.35-0.04c0.15,0,0.27,0.05,0.38,0.15c0.11,0.1,0.16,0.23,0.16,0.37c0,0.17-0.07,0.31-0.2,0.42
		c-0.13,0.11-0.3,0.17-0.49,0.17c-0.16,0-0.42-0.02-0.78-0.07c-0.36-0.04-0.7-0.07-1.01-0.07c-0.29,0-0.54,0.01-0.73,0.03
		c-0.56,0.07-0.86,0.1-0.9,0.1c-0.45,0-0.68-0.2-0.68-0.59c0-0.35,0.2-0.52,0.59-0.52c0.09,0,0.2,0.01,0.31,0.03
		c0.22,0.04,0.36,0.07,0.41,0.07c0.28,0,0.42-0.31,0.45-0.93V9.12V8.09V6.81c0-0.6-0.03-1.01-0.08-1.23c-0.1-0.43-0.32-0.76-0.66-1
		c-0.37-0.26-0.79-0.39-1.26-0.39c-0.9,0-1.54,0.32-1.94,0.96c-0.27,0.44-0.4,1.19-0.4,2.25v2.25c0,0.5,0.03,0.83,0.1,1.01
		c0.07,0.18,0.19,0.27,0.37,0.27c0.09,0,0.21-0.02,0.37-0.06c0.16-0.04,0.29-0.06,0.39-0.06c0.35,0,0.52,0.19,0.52,0.57
		c0,0.37-0.22,0.55-0.68,0.55c-0.09,0-0.38-0.03-0.88-0.1c-0.25-0.03-0.52-0.05-0.83-0.05c-0.24,0-0.55,0.02-0.95,0.07
		c-0.5,0.06-0.78,0.08-0.84,0.08c-0.47,0-0.71-0.19-0.71-0.57c0-0.36,0.18-0.54,0.55-0.54c0.06,0,0.16,0.02,0.32,0.05
		c0.15,0.03,0.31,0.05,0.46,0.05c0.34,0,0.52-0.33,0.53-0.98V8.06V6.01V5.42c-0.02-0.38-0.07-0.64-0.15-0.79
		c-0.08-0.14-0.2-0.21-0.39-0.21c-0.08,0-0.2,0.01-0.35,0.04c-0.15,0.03-0.27,0.04-0.35,0.04c-0.41,0-0.62-0.18-0.62-0.54
		c0-0.37,0.25-0.56,0.76-0.56c0.07,0,0.12,0.01,0.17,0.02l0.62,0.07c0.18,0,0.34-0.01,0.47-0.04c0.29-0.03,0.44-0.04,0.46-0.04
		C512.62,3.41,512.78,3.58,512.78,3.93z"/>
	<path d="M528.42,5.36h5.41V2.87c0-0.84-0.29-1.27-0.86-1.27c-0.07,0-0.19,0.01-0.36,0.03c-0.17,0.02-0.32,0.03-0.45,0.03
		c-0.36,0-0.54-0.18-0.54-0.55c0-0.4,0.24-0.6,0.73-0.6c0.16,0,0.44,0.04,0.86,0.11c0.42,0.07,0.8,0.11,1.15,0.11
		c0.56,0,1.13-0.05,1.69-0.14c0.33-0.05,0.54-0.08,0.64-0.08c0.5,0,0.74,0.2,0.74,0.6c0,0.37-0.17,0.55-0.52,0.55
		c-0.09,0-0.23-0.01-0.41-0.03c-0.18-0.02-0.32-0.03-0.41-0.03c-0.57,0-0.86,0.42-0.86,1.27v6.74c0,0.84,0.28,1.27,0.84,1.27
		c0.09,0,0.23-0.01,0.41-0.04c0.19-0.03,0.32-0.04,0.41-0.04c0.35,0,0.52,0.18,0.52,0.54c0,0.41-0.25,0.61-0.74,0.61
		c-0.1,0-0.32-0.03-0.66-0.1c-0.39-0.08-0.82-0.12-1.28-0.12c-0.62,0-1.14,0.03-1.57,0.1c-0.5,0.08-0.77,0.12-0.81,0.12
		c-0.5,0-0.74-0.2-0.74-0.6c0-0.37,0.18-0.55,0.54-0.55c0.09,0,0.23,0.01,0.41,0.03c0.18,0.02,0.31,0.03,0.41,0.03
		c0.47,0,0.75-0.31,0.84-0.93c0.01-0.08,0.02-0.59,0.02-1.52V6.5h-5.41v1.93c0,0.94,0.01,1.44,0.02,1.52
		c0.09,0.62,0.37,0.93,0.84,0.93c0.09,0,0.23-0.01,0.41-0.04c0.19-0.03,0.32-0.04,0.41-0.04c0.35,0,0.52,0.18,0.52,0.54
		c0,0.41-0.25,0.61-0.74,0.61c-0.08,0-0.32-0.03-0.73-0.1c-0.54-0.09-1.01-0.14-1.42-0.14c-0.47,0-0.98,0.05-1.52,0.14l-0.41,0.07
		c-0.13,0.02-0.21,0.03-0.22,0.03c-0.52,0-0.78-0.2-0.78-0.6c0-0.14,0.05-0.27,0.16-0.38c0.11-0.11,0.23-0.17,0.38-0.17
		c0.1,0,0.25,0.01,0.46,0.04c0.12,0.03,0.24,0.04,0.35,0.04c0.58,0,0.86-0.42,0.86-1.27V2.84c0-0.84-0.29-1.27-0.86-1.27
		c-0.08,0-0.2,0.02-0.37,0.05c-0.17,0.03-0.32,0.05-0.44,0.05c-0.15,0-0.27-0.06-0.38-0.17c-0.11-0.11-0.16-0.24-0.16-0.39
		c0-0.39,0.26-0.59,0.78-0.59c0.1,0,0.31,0.03,0.62,0.08c0.43,0.08,0.95,0.12,1.57,0.12c0.24,0,0.59-0.03,1.06-0.1
		c0.47-0.07,0.81-0.1,1.04-0.1c0.5,0,0.74,0.2,0.74,0.6c0,0.16-0.05,0.29-0.15,0.39c-0.1,0.11-0.23,0.16-0.37,0.16
		c-0.12,0-0.28-0.01-0.46-0.04c-0.18-0.03-0.3-0.04-0.37-0.04c-0.55,0-0.83,0.42-0.84,1.27L528.42,5.36z"/>
	<path d="M546.08,6.89c0,0.43-0.03,0.69-0.08,0.79c-0.06,0.1-0.22,0.14-0.49,0.14h-5.37c-0.15,0-0.24,0.02-0.29,0.06
		c-0.04,0.04-0.07,0.1-0.07,0.19c0,0.84,0.25,1.55,0.76,2.11c0.51,0.56,1.14,0.84,1.89,0.84c0.5,0,0.95-0.13,1.36-0.41
		c0.41-0.27,0.68-0.61,0.8-1.03l0.15-0.49c0.08-0.27,0.26-0.41,0.56-0.41c0.42,0,0.62,0.21,0.62,0.64c0,0.73-0.37,1.38-1.12,1.95
		c-0.74,0.57-1.59,0.85-2.53,0.85c-1.18,0-2.12-0.4-2.82-1.19c-0.7-0.79-1.05-1.86-1.05-3.2c0-1.37,0.37-2.49,1.11-3.34
		c0.74-0.86,1.71-1.28,2.91-1.28c1.06,0,1.93,0.35,2.62,1.06C545.73,4.9,546.08,5.8,546.08,6.89z M539.94,6.45
		c0,0.16,0.12,0.24,0.37,0.24h4.04c0.24,0,0.35-0.08,0.35-0.24c0-0.6-0.22-1.12-0.68-1.55c-0.45-0.44-0.98-0.66-1.59-0.66
		c-0.63,0-1.21,0.23-1.72,0.68C540.2,5.38,539.94,5.89,539.94,6.45z"/>
	<path d="M549.98,4.81v5.25c0.01,0.57,0.17,0.86,0.46,0.86c0.07,0,0.21-0.03,0.43-0.08c0.14-0.02,0.23-0.03,0.27-0.03
		c0.38,0,0.56,0.19,0.56,0.57c0,0.37-0.23,0.56-0.69,0.56c-0.18,0-0.47-0.02-0.86-0.07s-0.7-0.07-0.91-0.07
		c-0.18,0-0.45,0.02-0.81,0.07c-0.36,0.04-0.62,0.07-0.79,0.07h-0.08c-0.47,0-0.71-0.2-0.71-0.61c0-0.35,0.19-0.52,0.58-0.52
		c0.02,0,0.06,0,0.12,0c0.07,0.02,0.12,0.02,0.15,0.02c0.28,0.06,0.45,0.09,0.5,0.09c0.2,0,0.33-0.09,0.38-0.26
		c0.05-0.17,0.08-0.63,0.09-1.36l0.02-1.19V5.47V2.45c-0.01-0.34-0.03-0.56-0.05-0.68c-0.08-0.26-0.24-0.39-0.47-0.39
		c-0.03,0-0.18,0.02-0.44,0.07c-0.12,0.02-0.23,0.03-0.3,0.03c-0.38,0-0.57-0.18-0.57-0.54c0-0.37,0.23-0.56,0.68-0.56
		c0.12,0,0.23,0.01,0.32,0.02l0.41,0.05c0.18,0.02,0.33,0.03,0.46,0.03c0.11,0,0.28-0.02,0.51-0.05c0.23-0.03,0.39-0.05,0.51-0.05
		c0.26,0,0.39,0.16,0.39,0.49c0,0.11-0.01,0.2-0.02,0.25C550.02,2,549.98,3.22,549.98,4.81z"/>
	<path d="M555.2,4.81v5.25c0.01,0.57,0.17,0.86,0.46,0.86c0.07,0,0.21-0.03,0.43-0.08c0.14-0.02,0.23-0.03,0.27-0.03
		c0.38,0,0.56,0.19,0.56,0.57c0,0.37-0.23,0.56-0.69,0.56c-0.18,0-0.47-0.02-0.86-0.07s-0.7-0.07-0.91-0.07
		c-0.18,0-0.45,0.02-0.81,0.07c-0.36,0.04-0.62,0.07-0.79,0.07h-0.08c-0.47,0-0.71-0.2-0.71-0.61c0-0.35,0.19-0.52,0.58-0.52
		c0.02,0,0.06,0,0.12,0c0.07,0.02,0.12,0.02,0.15,0.02c0.28,0.06,0.45,0.09,0.5,0.09c0.2,0,0.33-0.09,0.38-0.26
		c0.05-0.17,0.08-0.63,0.09-1.36l0.02-1.19V5.47V2.45c-0.01-0.34-0.03-0.56-0.05-0.68c-0.08-0.26-0.24-0.39-0.47-0.39
		c-0.03,0-0.18,0.02-0.44,0.07c-0.12,0.02-0.23,0.03-0.3,0.03c-0.38,0-0.57-0.18-0.57-0.54c0-0.37,0.23-0.56,0.68-0.56
		c0.12,0,0.23,0.01,0.32,0.02l0.41,0.05c0.18,0.02,0.33,0.03,0.46,0.03c0.11,0,0.28-0.02,0.51-0.05c0.23-0.03,0.39-0.05,0.51-0.05
		c0.26,0,0.39,0.16,0.39,0.49c0,0.11-0.01,0.2-0.02,0.25C555.24,2,555.2,3.22,555.2,4.81z"/>
	<path d="M559.49,2.43c0-0.18-0.11-0.28-0.32-0.29h-0.34c-0.23-0.01-0.43-0.12-0.6-0.32c-0.17-0.2-0.26-0.43-0.26-0.71
		c0-0.32,0.11-0.58,0.34-0.8S558.81,0,559.15,0c0.38,0,0.7,0.15,0.96,0.46c0.25,0.31,0.38,0.71,0.38,1.19
		c0,0.92-0.35,1.85-1.05,2.77c-0.26,0.35-0.48,0.52-0.68,0.52c-0.22,0-0.34-0.11-0.34-0.34c0-0.09,0.06-0.21,0.19-0.37
		c0.22-0.28,0.43-0.61,0.61-0.98C559.4,2.89,559.49,2.61,559.49,2.43z M562.55,2.43c0-0.18-0.1-0.28-0.3-0.29h-0.34
		c-0.24-0.01-0.44-0.12-0.62-0.32c-0.17-0.2-0.26-0.43-0.26-0.71c0-0.32,0.11-0.58,0.34-0.8c0.23-0.22,0.51-0.32,0.84-0.32
		c0.39,0,0.72,0.15,0.97,0.46c0.25,0.31,0.38,0.71,0.38,1.19c0,0.91-0.35,1.84-1.06,2.77c-0.27,0.35-0.5,0.52-0.68,0.52
		c-0.21,0-0.32-0.11-0.32-0.34c0-0.09,0.06-0.21,0.19-0.37c0.21-0.28,0.41-0.61,0.59-0.98C562.46,2.89,562.55,2.61,562.55,2.43z"/>
</g>
</svg>
