<?xml version="1.0" encoding="utf-8"?>
<!-- Generator: Adobe Illustrator 24.1.2, SVG Export Plug-In . SVG Version: 6.00 Build 0)  -->
<svg version="1.1" id="Layer_1" xmlns="http://www.w3.org/2000/svg" xmlns:xlink="http://www.w3.org/1999/xlink" x="0px" y="0px"
	 viewBox="0 0 473.53 263.47" style="enable-background:new 0 0 473.53 263.47;" xml:space="preserve">
<g id="XMLID_190_">
	<g id="XMLID_4_">
		<path id="XMLID_571_" d="M6.19,82c0.48-0.21,0.72-0.38,0.98-0.41c4.12-0.44,7.86-2.23,11.8-3.32c4.87-1.35,9.89-1.83,14.82-2.77
			c5.39-1.03,10.83-1.78,16.14-3.27c3.17-0.89,6.47-1.38,9.7-2.15c1.61-0.38,3.05-1.17,4.57-1.74c1.79-0.67,3.56-1.36,5.39-1.92
			c4.66-1.42,9.21-3.2,13.68-5.12c1.4-0.6,2.83-0.84,4.29-1.03c0.25-0.03,0.6-0.16,0.73,0.16c0.11,0.3-0.19,0.5-0.39,0.66
			c-0.43,0.33-0.87,0.67-1.35,0.91c-2.85,1.45-5.71,2.88-8.58,4.28c-0.61,0.3-1.01,0.57-0.58,1.3c0.1,0.16,0.11,0.37,0.14,0.57
			c0.11,0.69,0.31,1.64-0.41,1.85c-0.67,0.2-1.31-0.62-1.44-1.29c-0.28-1.41-0.99-1.14-1.9-0.7c-1.36,0.66-2.71,1.34-4.25,1.48
			c-0.94,0.09-1.24,0.62-0.98,1.55c0.99,3.53,1.48,7.18,2.75,10.64c0.17,0.47,0.23,0.99,0.29,1.49c0.03,0.25,0.11,0.6-0.22,0.72
			c-0.29,0.1-0.5-0.15-0.7-0.33c-0.61-0.58-0.98-1.31-1.26-2.08c-0.99-2.67-1.96-5.34-2.99-8c-0.2-0.51-0.35-1.44-0.92-1.3
			c-0.78,0.2-0.64,1.08-0.55,1.81c0.3,2.56,0.82,5.08,1.55,7.55c0.12,0.4,0.17,0.84,0.18,1.26c0.01,0.45,0.11,1.07-0.42,1.22
			c-0.47,0.14-0.83-0.34-1.14-0.69c-0.43-0.47-0.69-1.04-0.88-1.64c-0.34-1.08-0.64-2.17-0.98-3.25c-0.11-0.35-0.16-0.9-0.68-0.78
			c-0.52,0.13-0.28,0.64-0.24,1c0.54,5.12,2.05,9.99,3.72,14.83c0.22,0.63,0.46,1.25,0.47,1.92c0,0.26,0.11,0.61-0.17,0.75
			c-0.35,0.18-0.57-0.16-0.78-0.37c-0.85-0.85-1.3-1.94-1.76-3.01c-1.89-4.46-3.49-9.01-4.24-13.83c-0.26-1.66-1.7-2.64-3.37-2.34
			c-0.8,0.14-0.55,0.74-0.31,1.18c0.47,0.85,1,1.67,1.54,2.49c0.55,0.83,0.88,1.73,1.06,2.7c1.49,8.04,4.72,15.4,8.76,22.44
			c0.39,0.68,0.77,1.36,0.84,2.16c0.06,0.58-0.19,0.71-0.69,0.46c-0.77-0.38-1.25-1.03-1.71-1.72c-2.42-3.62-3.96-7.69-5.94-11.54
			c-1.78-3.45-2.44-7.34-4.23-10.77c-2.26-4.35-7.07-8.2-12.35-7.26c-6.64,1.18-13.4,1.57-20.05,2.64
			c-4.19,0.67-8.31,1.79-12.47,2.62C9.28,82.31,7.85,82.67,6.19,82z"/>
		<path id="XMLID_570_" d="M162.46,80.42c-1.04-0.78-2.09-1.51-3.08-2.31c-1.16-0.93-2.31-1.88-3.03-3.21
			c-0.16-0.29-0.42-0.68-0.18-0.97c0.25-0.3,0.65-0.1,0.98,0.01c0.52,0.17,1.02,0.4,1.45,0.75c2.81,2.33,6.1,3.92,9.08,5.98
			c1.58,1.09,3.54,1.42,5.17,2.45c0.32,0.2,0.83,0.12,1.39,0.19c-0.25-0.49-0.64-0.57-0.96-0.67c-4.8-1.64-8.37-4.89-11.46-8.77
			c-2.58-3.23-5.21-6.42-7.23-10.06c-1.75-3.16-4.3-5.61-7.07-7.88c-1.1-0.9-2.32-1.77-2.78-3.24c-0.1-0.32-0.37-0.68-0.04-0.98
			c0.25-0.23,0.6-0.08,0.89,0.01c0.41,0.13,0.87,0.21,1.18,0.47c2.51,2.12,5.5,3.56,8.01,5.69c3.69,3.12,6.23,7.17,9.03,11.01
			c1.42,1.95,2.79,3.96,4.1,5.99c0.72,1.12,1.65,1.9,2.81,2.54c3.62,2.01,7.29,3.9,11.24,5.2c1.01,0.33,1.01,0.35,1.95,0.28
			c-0.13-0.39-0.5-0.46-0.78-0.62c-2.12-1.17-4.09-2.58-6.07-3.97c-0.78-0.55-1.72-1.29-1.61-2.18c0.29-2.29-1.57-3.46-2.33-5.19
			c-0.34-0.79-0.79-1.52-0.8-2.41c-0.01-1.04,0.2-1.17,1.16-0.69c0.64,0.32,1.14,0.81,1.54,1.41c0.75,1.14,1.55,2.25,2.24,3.43
			c1.99,3.37,4.95,5.57,8.49,7.05c1.69,0.71,3.42,1.31,5.13,1.97c0.51,0.2,1,0.07,1.5-0.02c1.65-0.29,3.29-0.64,4.95-0.85
			c0.74-0.1,1.87-0.19,2.05,0.6c0.15,0.66-0.9,1.08-1.6,1.3c-3.27,1.04-6.46,2.33-9.82,3.03c-0.54,0.11-8.26,1.03-15.14,0.57
			c-5.19-0.35-9.92-1.94-14.52-4.14c-3.14-1.49-6.11-3.22-8.74-5.58c-2.37-2.13-5.05-3.92-7.6-5.85c-0.63-0.48-1.19-1-1.59-1.69
			c-0.28-0.48-0.18-0.71,0.41-0.69c0.77,0.02,1.44,0.32,2.06,0.75c3.08,2.14,6.14,4.28,9.22,6.41c3.03,2.1,6.4,3.56,9.8,4.94
			C162.01,80.55,162.2,80.61,162.46,80.42z"/>
		<path id="XMLID_569_" d="M291.13,90.68c-5.16-0.11-10.11-1.16-14.93-3.03c-5.21-2.03-7.18-7.76-4.95-12.31
			c2.06-4.18,4.69-7.88,8.21-10.97c3.43-3,7.43-4.3,11.92-4.37c5.63-0.09,11.11,0.8,16.49,2.37c1.57,0.46,3.15,1.02,3.97,2.64
			c0.13,0.26,0.41,0.57,0.19,0.85c-0.22,0.27-0.59,0.09-0.88,0.03c-0.26-0.06-0.53-0.14-0.78-0.25c-7.83-3.51-15.74-2.72-23.66-0.44
			c-1.39,0.4-2.6,1.26-3.72,2.17c-3.29,2.67-5.86,5.93-7.57,9.82c-1.21,2.75-0.54,5.08,2.1,6.47c3.58,1.89,7.18,3.79,11.28,4.39
			c1.2,0.18,2.37,0.5,3.37,1.24c0.32,0.24,0.87,0.46,0.7,0.95c-0.13,0.36-0.65,0.35-1.04,0.4C291.6,90.67,291.36,90.67,291.13,90.68
			z"/>
		<path id="XMLID_568_" d="M238.81,81.96c2.23,0.59,4.59,0.94,6.82,1.78c4.64,1.75,9.2,3.67,13.63,5.9c4.7,2.36,9.68,3.9,14.75,5.2
			c1.24,0.32,2.5,0.6,3.74,0.93c1.01,0.27,1.98,0.69,2.25,1.8c0.14,0.55-1.48,1.45-2.6,1.45c-1.42-0.01-2.77-0.39-4.12-0.79
			c-6.38-1.86-12.52-4.37-18.62-6.98c-5.16-2.21-10.26-4.58-15.38-6.89c-0.42-0.19-0.84-0.43-1.19-0.73
			c-0.36-0.31-1.04-0.62-0.84-1.13C237.47,81.98,238.2,82.1,238.81,81.96z"/>
		<path id="XMLID_567_" d="M159.63,218.12c0.41-0.44,0.88-0.52,1.33-0.53c2.19-0.02,4.33-0.57,6.51-0.69
			c1.19-0.06,2.25-0.44,3.27-1.12c0.86-0.58,1.51-1.23,1.78-2.22c0.33-1.19,1.04-1.93,2.2-2.38c1.05-0.41,2.01-0.95,2.68-1.98
			c0.56-0.86,2.49-0.87,3.69-0.12c1.39,0.87,2.28,2.24,3.33,3.43c0.63,0.72,0.05,2.35-1.02,3.2c-1.32,1.06-2.89,1.66-4.42,2.35
			c-4.46,2-9.06,1.57-13.69,1.07c-1.32-0.14-2.64-0.22-3.96-0.35C160.73,218.73,160.15,218.63,159.63,218.12z"/>
		<path id="XMLID_566_" d="M260.19,40.44c-0.02,0.44-0.28,0.64-0.49,0.85c-0.75,0.74-1.72,1.03-2.7,1.31
			c-2.43,0.71-4.87,1.42-7.29,2.16c-2.46,0.76-4.63,2.01-6.47,3.85c-2.42,2.43-4.9,4.81-7.34,7.22c-0.74,0.73-1.58,1.26-2.6,1.49
			c-0.63,0.14-0.92-0.08-0.73-0.73c0.12-0.41,0.21-0.87,0.47-1.18c1.85-2.23,3.11-4.85,4.81-7.19c4.27-5.87,10.26-8.26,17.2-8.86
			c1.23-0.11,2.49-0.38,3.71,0.07C259.33,39.66,259.87,39.94,260.19,40.44z"/>
		<path id="XMLID_565_" d="M30.82,85.97c0.49-0.52,1.03-0.6,1.56-0.65c2.51-0.22,4.9-0.89,7.23-1.82c2.42-0.96,4.83-0.26,6.61,2.27
			c1.03,1.46,2.2,2.82,3.11,4.37c1.34,2.26,2.41,4.64,3.21,7.13c0.94,2.92,2.28,5.62,4.15,8.06c1.19,1.56,2.15,3.24,2.93,5.04
			c1.33,3.08,2.84,6.08,4.76,8.85c0.33,0.48,1.01,1.22,0.48,1.62c-0.62,0.47-1.29-0.29-1.71-0.82c-1.08-1.38-2.08-2.82-2.95-4.35
			c-1.25-2.2-2.33-4.52-3.95-6.49c-2.58-3.16-4.11-6.84-5.69-10.55c-1.36-3.18-3.03-6.24-5.1-9.04c-0.95-1.28-1.91-2.56-2.78-3.9
			c-0.4-0.61-0.77-0.7-1.44-0.54c-2.38,0.57-4.75,1.26-7.22,1.4C32.93,86.62,31.87,86.63,30.82,85.97z"/>
		<path id="XMLID_564_" d="M52.15,84.65c0.12,1.27-0.57,1.51-1.29,1.8c-0.75,0.31-1.09,0.05-1.45-0.63
			c-0.89-1.7-1.91-3.28-3.69-4.26c-0.48-0.26-0.84-0.4-1.38-0.33c-4.01,0.52-7.97,1.42-12.01,1.74c-3.49,0.27-6.99,0.56-10.48,0.86
			c-1.04,0.09-2.08,0.35-3.12-0.03c-0.56-0.2-0.69-0.46-0.23-0.9c0.57-0.55,1.25-0.91,2.02-1.11c3.06-0.83,6.21-1.08,9.35-1.36
			c4.77-0.42,9.57-0.47,14.28-1.52c1.11-0.25,2.25-0.15,3.37,0.02c1.22,0.18,2.06,0.66,2.68,1.9c0.52,1.04,1.46,1.9,1.75,3.11
			C52.05,84.26,52.14,84.6,52.15,84.65z"/>
		<path id="XMLID_563_" d="M98.31,155.32c-3.8-2.68-6.73-6.27-10.14-9.35c-0.83-0.75-1.48-1.6-1.71-2.73
			c-0.14-0.71,0.09-0.96,0.81-0.66c0.55,0.23,1.03,0.55,1.49,0.92c4.96,3.97,9.67,8.27,15.39,11.2c0.86,0.44,1.43,1.19,1.77,2.1
			c0.31,0.82,0.11,1.26-0.83,1.32c-2.75,0.2-5.43-0.2-8.13-0.68c-2.55-0.44-4.66-1.71-6.68-3.21c-0.24-0.17-0.65-0.34-0.55-0.68
			c0.11-0.37,0.56-0.34,0.9-0.38c1.05-0.1,2,0.23,2.92,0.69C95.05,154.62,96.65,155.03,98.31,155.32z"/>
		<path id="XMLID_562_" d="M234.28,22.08c-6.47-0.39-12.52-2.41-18.52-4.66c-0.89-0.33-2.07-0.97-1.84-1.82
			c0.22-0.79,1.55-0.6,2.41-0.37c5.85,1.62,11.86,1.69,17.86,1.81c1.53,0.03,2.96,0.29,4.06,1.45c0.84,0.88,0.82,1.6-0.08,2.41
			C237.06,21.87,235.74,22.23,234.28,22.08z"/>
		<path id="XMLID_561_" d="M52.9,180.01c-0.79,0.64-1.62,0.62-2.43,0.59c-2.18-0.09-4.36-0.19-6.54-0.38
			c-1.34-0.11-2.65,0-3.95,0.23c-5.79,1.02-11.25,3.16-16.77,5.07c-1.06,0.37-2.09,0.56-3.2,0.2c-0.88-0.29-0.97-0.76-0.52-1.49
			c0.43-0.69,0.98-1.24,1.73-1.52c4.19-1.6,8.39-3.18,12.84-3.94c4.62-0.79,9.24-0.58,13.86,0.09c1.08,0.16,2.17,0.23,3.25,0.36
			C51.79,179.29,52.38,179.46,52.9,180.01z"/>
		<path id="XMLID_560_" d="M117.06,158.54c-0.94,0.04-1.57-0.16-2.17-0.45c-5.87-2.82-11.36-6.21-16.15-10.66
			c-0.74-0.69-1.47-1.4-1.84-2.39c-0.14-0.37-0.36-0.78-0.12-1.12c0.3-0.42,0.8-0.17,1.2-0.1c0.63,0.11,1.17,0.44,1.65,0.85
			c5,4.28,10.7,7.4,16.75,9.89c0.85,0.35,1.59,0.83,2.13,1.58c0.9,1.26,0.61,2-0.89,2.31C117.35,158.53,117.07,158.54,117.06,158.54
			z"/>
		<path id="XMLID_559_" d="M13.79,193.93c-0.68-0.02-1.16,0.03-1.41-0.41c-0.26-0.46,0.1-0.81,0.31-1.17
			c0.29-0.49,0.73-0.81,1.23-1.04c1.2-0.56,2.37-1.2,3.62-1.65c4.58-1.66,9.06-3.58,13.76-4.9c2.67-0.75,5.38-0.83,8.09-1.02
			c0.34-0.02,0.7,0.08,1.03,0.17c0.47,0.13,1.2,0.17,1.18,0.74c-0.02,0.52-0.73,0.64-1.21,0.75c-0.79,0.19-1.6,0.31-2.41,0.42
			c-4.34,0.56-8.35,2.16-12.37,3.8c-3.53,1.44-7.13,2.74-10.7,4.08C14.48,193.85,14.01,193.88,13.79,193.93z"/>
		<path id="XMLID_558_" d="M139.25,211.27c0.84-0.4,1.55-0.44,2.3-0.33c7.37,1.03,14.78,1.7,22.21,2.03c1.01,0.04,2.03-0.01,3.04,0
			c1,0.01,1.92,0.29,2.68,0.98c0.51,0.46,0.53,0.88-0.03,1.34c-1.01,0.83-2.18,0.97-3.42,0.85c-4.19-0.39-8.37-0.81-12.53-1.47
			c-3.88-0.62-7.8-1.03-11.62-2.03C140.96,212.38,140.01,212.14,139.25,211.27z"/>
		<path id="XMLID_557_" d="M160.54,210.58c-0.28-0.12-0.68-0.19-0.68-0.55s0.4-0.46,0.67-0.55c1.87-0.57,3.81-0.71,5.73-1
			c2.44-0.37,4.66-1.19,6.68-2.58c0.85-0.58,0.71-1.42,0.46-2.21c-0.41-1.34-0.76-2.7-0.94-4.09c-0.15-1.08,0.01-2.09,0.6-3.03
			c0.27-0.43,0.51-0.45,0.72,0.04c1.12,2.6,2.29,5.18,3.34,7.81c0.48,1.21-0.44,3.24-1.72,4.06c-1.87,1.19-3.93,1.93-6.14,2.05
			C167.43,210.63,161.59,211.03,160.54,210.58z"/>
		<path id="XMLID_556_" d="M203,78c-1.95-2.56-4.15-4.85-6.96-6.51c-0.61-0.36-1.1-0.87-1.46-1.49c-0.33-0.56-0.22-0.86,0.48-0.89
			c0.94-0.05,1.77,0.27,2.54,0.74c3.11,1.9,6.08,3.96,7.99,7.19c0.25,0.43,0.58,0.33,0.9,0.27c2.3-0.42,4.59-0.08,6.88,0.03
			c0.84,0.04,1.6,0.32,2.27,0.84c0.51,0.4,0.57,0.75-0.12,0.95c-0.63,0.18-1.28,0.39-1.93,0.42c-2.5,0.11-4.96,0.41-7.42,0.85
			C204.26,80.76,203.24,78.31,203,78z"/>
		<path id="XMLID_555_" d="M28.61,227.87c0.35,0.1,1.08-0.21,1.24,0.3c0.17,0.53-0.46,0.92-0.87,1.28
			c-0.94,0.81-2.13,1.12-3.23,1.62c-4.33,1.96-8.75,3.7-13.3,5.12c-1.45,0.45-2.91,0.9-4.4,1.15c-0.79,0.14-1.92,0.2-2.17-0.6
			c-0.19-0.62,0.82-1.16,1.48-1.43c1.3-0.52,2.66-0.88,3.98-1.35c5.02-1.8,9.86-4.1,14.96-5.68
			C27.03,228.06,27.74,227.84,28.61,227.87z"/>
		<path id="XMLID_554_" d="M137.54,170.04c-0.92-0.02-1.64-0.3-2.35-0.63c-3.67-1.68-6.94-4.04-10.39-6.1
			c-1.06-0.63-1.86-2.23-1.55-2.82c0.31-0.59,2.06-0.64,3.16,0.12c3.38,2.3,7.08,3.94,10.84,5.48c0.77,0.32,1.4,0.85,1.86,1.56
			c0.82,1.27,0.58,1.9-0.87,2.27C137.96,169.98,137.69,170.01,137.54,170.04z"/>
		<path id="XMLID_553_" d="M136.21,181.29c-0.82,0.02-1.42-0.14-1.99-0.41c-4.77-2.32-9.53-4.65-13.83-7.8
			c-0.69-0.5-1.41-0.96-1.9-1.71c-0.38-0.59-0.31-1.19,0.07-1.62c0.39-0.45,0.88,0.01,1.24,0.24c2.51,1.58,5.14,2.94,7.72,4.4
			c2.35,1.33,4.84,2.33,7.28,3.44c0.79,0.36,1.51,0.8,2.12,1.43c0.41,0.43,0.84,0.93,0.56,1.54
			C137.21,181.38,136.56,181.25,136.21,181.29z"/>
		<path id="XMLID_552_" d="M118.32,145.39c-0.78-0.07-1.47-0.29-2.14-0.64c-5.18-2.73-9.64-6.47-14.17-10.11
			c-0.46-0.37-0.75-0.89-1.01-1.42c-0.21-0.43-0.24-0.89,0.05-1.21c0.36-0.39,0.73,0.04,1.01,0.23c2.29,1.55,4.57,3.12,6.85,4.7
			c2.82,1.96,5.65,3.91,8.69,5.51c0.63,0.33,1.19,0.75,1.58,1.37c0.22,0.36,0.62,0.74,0.39,1.16
			C119.32,145.43,118.75,145.35,118.32,145.39z"/>
		<path id="XMLID_551_" d="M241.87,40.03c-0.21,0.83-0.66,1.54-1.29,2.15c-1.26,1.22-2.47,2.49-3.75,3.69
			c-1.89,1.77-3.61,3.66-4.89,5.93c-0.49,0.86-1.17,1.54-2.15,1.89c-0.62,0.22-0.91,0.13-0.74-0.59c0.02-0.08,0.02-0.16,0.05-0.23
			c2.24-5.01,4.52-9.98,9.75-12.7c0.79-0.41,1.58-0.66,2.46-0.58C241.57,39.61,241.89,39.58,241.87,40.03z"/>
		<path id="XMLID_550_" d="M119.29,212.32c0.69-1.09,1.38-1.43,2.61-1.16c6.25,1.36,12.52,2.58,18.87,3.41
			c0.97,0.13,1.93,0.3,2.74,0.92c0.53,0.4,0.57,0.69-0.12,0.95c-0.72,0.27-1.46,0.28-2.19,0.16c-6.93-1.12-13.86-2.22-20.67-3.92
			C120.15,212.58,119.78,212.46,119.29,212.32z"/>
		<path id="XMLID_549_" d="M116.72,210.83c-0.8,0.27-1.5,0.19-2.18,0.1c-2.66-0.36-5.32-0.75-7.95-1.36
			c-2.75-0.64-5.55-1.1-8.31-1.71c-1.03-0.23-1.98-0.72-2.74-1.49c-0.24-0.24-0.57-0.51-0.4-0.9c0.15-0.34,0.55-0.23,0.84-0.25
			c2.21-0.12,4.3,0.59,6.42,1c4.37,0.84,8.48,2.65,12.83,3.57C115.8,209.91,116.34,210.16,116.72,210.83z"/>
		<path id="XMLID_548_" d="M78.02,139.35c-0.03,0.27-0.06,0.54-0.1,0.81c-0.05,0.37-0.22,0.72-0.56,0.83
			c-0.38,0.13-0.51-0.28-0.69-0.51c-3.24-4.17-5.93-8.69-8.53-13.28c-0.4-0.71-0.67-1.49-0.54-2.35c0.1-0.68,0.37-0.9,1-0.46
			c0.62,0.44,1.05,1.03,1.42,1.68c2.38,4.17,4.85,8.28,7.57,12.23C77.8,138.62,78.1,138.91,78.02,139.35z"/>
		<path id="XMLID_547_" d="M36.14,192.99c-0.94-0.07-1.95-0.01-2.2-0.83c-0.25-0.85,0.67-1.33,1.31-1.72
			c1.15-0.69,2.45-1.02,3.78-1.13c1.99-0.17,3.98-0.07,5.97,0c0.94,0.03,1.74,0.41,2.43,1.02c0.61,0.54,0.46,0.93-0.27,1.15
			c-0.6,0.18-1.21,0.29-1.84,0.27c-2.75-0.08-5.45,0.19-8.07,1.06C36.85,192.94,36.4,192.94,36.14,192.99z"/>
		<path id="XMLID_546_" d="M47.61,96.89c1.13,1.27,1.78,2.56,2.19,3.99c0.99,3.5,3,6.47,4.85,9.53c0.68,1.13,1.29,2.32,1.28,3.7
			c-0.01,0.44,0.13,1.1-0.39,1.22c-0.45,0.1-0.74-0.49-0.96-0.89c-0.69-1.26-1.2-2.61-2.02-3.8c-0.4-0.58-0.69-1.24-1.14-1.76
			c-1.97-2.28-2.77-5-3.14-7.9C48.1,99.68,47.63,98.44,47.61,96.89z"/>
		<path id="XMLID_545_" d="M138,176.25c-4.05-1.29-7.95-2.87-10.76-6.32c-0.16-0.2-0.38-0.46-0.24-0.74c0.2-0.39,0.55-0.11,0.84-0.1
			c0.19,0.01,0.39,0.05,0.57,0.13c3.02,1.35,6.01,2.75,9.16,3.8c0.93,0.31,1.42,1.3,2.05,2.04c0.35,0.41,0.16,0.69-0.3,0.88
			C138.9,176.1,138.48,176.16,138,176.25z"/>
		<path id="XMLID_544_" d="M53.37,89.19c1.03-0.07,1.45,0.64,1.71,1.45c0.38,1.19,0.67,2.4,1.03,3.59c0.5,1.69,1.25,3.27,1.92,4.89
			c0.24,0.59,0.63,1.44,0,1.79c-0.52,0.29-1.08-0.46-1.47-0.92c-0.38-0.44-0.72-0.94-0.95-1.46c-0.94-2.14-2.32-4.05-3.3-6.17
			c-0.2-0.42-0.38-0.86-0.48-1.31C51.53,89.67,51.94,89.21,53.37,89.19z"/>
		<path id="XMLID_543_" d="M69.91,135.69c-0.81-0.18-1.27-0.66-1.65-1.19c-3.21-4.36-6.54-8.63-9.34-13.29
			c-0.41-0.68-0.67-1.41-0.73-2.19c-0.02-0.27-0.01-0.59,0.3-0.7c0.24-0.09,0.44,0.11,0.62,0.26c0.42,0.35,0.76,0.78,1.02,1.27
			c2.7,4.93,6.1,9.41,9.08,14.16C69.51,134.49,69.93,134.92,69.91,135.69z"/>
		<path id="XMLID_542_" d="M111.27,125.33c-0.79-0.04-1.37-0.26-1.9-0.6c-3.13-2.03-5.79-4.61-8.36-7.28
			c-0.58-0.6-1.28-1.63-0.71-2.23c0.51-0.53,1.54,0.19,2.13,0.74c2.7,2.53,5.34,5.13,8.34,7.33c0.41,0.3,0.67,0.75,0.89,1.22
			C111.92,125.06,111.88,125.43,111.27,125.33z"/>
		<path id="XMLID_541_" d="M23.05,226.18c-0.5,0-0.65,0.02-0.81,0c-0.38-0.05-0.87-0.03-0.96-0.49c-0.07-0.36,0.32-0.61,0.62-0.78
			c0.4-0.23,0.82-0.46,1.26-0.58c4.22-1.14,8.28-2.76,12.32-4.4c0.32-0.13,0.66-0.24,1-0.32c0.5-0.11,1.11-0.25,1.31,0.37
			c0.17,0.53-0.35,0.87-0.76,1.04C32.64,222.8,23.06,226.18,23.05,226.18z"/>
		<path id="XMLID_540_" d="M190.92,79.87c-0.6,0.02-1.14-0.21-1.68-0.44c-3.23-1.35-6.05-3.38-8.89-5.36
			c-0.6-0.42-1.44-1.14-1.09-1.74c0.34-0.57,1.31,0.01,1.89,0.33c3.24,1.8,6.44,3.66,9.92,4.95c0.18,0.07,0.36,0.17,0.5,0.31
			c0.43,0.41,1.28,0.71,1.03,1.37C192.37,79.87,191.55,79.85,190.92,79.87z"/>
		<path id="XMLID_539_" d="M125.03,103.32c0.6,0,1.36,0.2,2,0.67c1.49,1.07,2.96,2.16,4.41,3.28c0.36,0.28,0.65,0.68,0.88,1.07
			c0.24,0.41,0.69,0.9,0.3,1.37c-0.33,0.4-0.93,0.35-1.43,0.28c-0.62-0.09-1.22-0.27-1.74-0.65c-1.42-1.02-2.85-2.05-4.25-3.1
			c-0.57-0.43-0.98-1-1.25-1.67C123.55,103.61,123.75,103.34,125.03,103.32z"/>
		<path id="XMLID_538_" d="M124.48,95.44c-0.75-0.06-1.47-0.26-2.04-0.77c-2.05-1.85-4.09-3.71-6.12-5.59
			c-0.64-0.59-1.07-1.33-1.23-2.21c-0.1-0.55,0.11-0.74,0.64-0.53c0.55,0.22,1.06,0.5,1.48,0.91c1.99,1.92,4.24,3.54,6.35,5.33
			c0.66,0.56,1.28,1.15,1.54,2.01C125.3,95.26,125.17,95.43,124.48,95.44z"/>
		<path id="XMLID_537_" d="M96.62,202.77c-1.42-0.17-2.89-0.36-4.31-0.78c-2.24-0.66-4.47-1.36-6.68-2.1
			c-0.77-0.26-1.5-0.64-2.21-1.04c-0.39-0.22-0.91-0.57-0.71-1.07c0.2-0.51,0.82-0.52,1.33-0.46c0.26,0.03,0.54,0.13,0.76,0.27
			c3.65,2.18,7.68,3.09,11.83,3.66c0.04,0.01,0.08,0,0.12,0.01c0.63,0.16,1.62,0.25,1.58,0.89
			C98.29,202.87,97.31,202.71,96.62,202.77z"/>
		<path id="XMLID_536_" d="M219.74,11.25c1.52,0.34,3.34,0.29,4.73,1.59c1.04,0.98,0.92,1.68-0.38,2.27
			c-1.88,0.85-5.16-0.19-6.23-1.98c-0.73-1.22-0.54-1.62,0.88-1.81C219,11.29,219.27,11.28,219.74,11.25z"/>
		<path id="XMLID_535_" d="M111.96,110.8c-0.82-0.02-1.51-0.26-1.92-0.86c-0.96-1.43-2.41-2.29-3.7-3.34
			c-1.82-1.48-3.48-3.1-4.96-4.92c-0.23-0.29-0.62-0.66-0.26-1.02c0.43-0.44,0.78,0.01,1.06,0.31c2.78,2.92,6.18,5.08,9.23,7.68
			c0.42,0.36,0.8,0.73,1.05,1.23C112.76,110.5,112.63,110.85,111.96,110.8z"/>
		<path id="XMLID_534_" d="M130.67,185.03c-2.34-0.84-4.76-1.58-6.4-3.69c-0.32-0.41-0.69-1.02-0.29-1.48
			c0.31-0.35,0.91-0.05,1.31,0.13c1.79,0.84,3.56,1.73,5.32,2.64c0.33,0.17,0.61,0.48,0.86,0.77c0.26,0.32,0.71,0.65,0.53,1.09
			C131.79,185,131.17,184.78,130.67,185.03z"/>
		<path id="XMLID_533_" d="M86.12,201.91c1.56,0.37,3.3,1.18,4.89,2.31c0.41,0.29,0.34,0.55-0.08,0.79
			c-0.48,0.28-1.01,0.48-1.54,0.48c-1.47-0.02-2.96-0.06-4.31-0.74c-0.71-0.36-1.69-0.81-1.45-1.72
			C83.85,202.14,84.85,201.93,86.12,201.91z"/>
		<path id="XMLID_532_" d="M60.33,176.99c-0.57-0.02-0.94-0.01-1.07-0.33c-0.14-0.35,0.18-0.61,0.43-0.75
			c2.58-1.45,4.85-3.34,7.23-5.06c0.15-0.11,0.35-0.19,0.54-0.21c0.4-0.05,0.92-0.31,1.17,0.14c0.21,0.38-0.18,0.74-0.45,0.99
			c-2,1.78-3.93,3.66-6.42,4.78C61.22,176.77,60.65,176.89,60.33,176.99z"/>
		<path id="XMLID_531_" d="M44.49,95.13c-0.05,0.39,0.11,0.94-0.31,1.07c-0.47,0.15-0.6-0.43-0.74-0.74
			c-0.91-2.09-2.18-3.94-3.7-5.63c-0.63-0.7-1.03-1.55-1.06-2.54c-0.01-0.55,0.19-0.73,0.7-0.47c0.21,0.11,0.43,0.22,0.59,0.38
			c2.08,2.05,3.81,4.32,4.46,7.26C44.47,94.67,44.47,94.91,44.49,95.13z"/>
		<path id="XMLID_530_" d="M191.56,73.72c0.3,0.03,0.55,0.01,0.76,0.09c2.21,0.9,4.3,2,5.95,3.77c0.22,0.24,0.57,0.52,0.39,0.89
			c-0.16,0.33-0.58,0.35-0.93,0.4c-0.77,0.11-1.47-0.15-2.1-0.56c-1.56-1.03-3.08-2.12-4.49-3.34c-0.3-0.26-0.85-0.5-0.6-0.99
			C190.73,73.6,191.25,73.81,191.56,73.72z"/>
		<path id="XMLID_529_" d="M121.81,166.49c-2.26-0.34-4.29-1.17-5.7-3.12c-0.22-0.3-0.48-0.7-0.26-1.07
			c0.23-0.39,0.71-0.28,1.07-0.21c2.14,0.43,3.98,1.48,5.62,2.87c0.31,0.26,0.71,0.67,0.56,1.08
			C122.9,166.54,122.3,166.36,121.81,166.49z"/>
		<path id="XMLID_528_" d="M120.73,179.17c-0.94-0.02-1.54-0.18-2.09-0.49c-1.23-0.69-2.36-1.51-3.38-2.49
			c-0.2-0.19-0.38-0.4-0.52-0.63c-0.38-0.6-0.88-1.4-0.41-1.9c0.42-0.44,1.14,0.22,1.6,0.57c1.22,0.91,2.48,1.75,3.78,2.53
			c0.54,0.33,0.95,0.79,1.29,1.33C121.44,178.8,121.34,179.2,120.73,179.17z"/>
		<path id="XMLID_527_" d="M53.06,118.31c0.61,0.39,0.89,0.87,1.1,1.36c1.08,2.54,2.8,4.65,4.58,6.71c0.41,0.47,0.79,0.96,1.01,1.55
			c0.08,0.22,0.23,0.46,0.03,0.65c-0.27,0.26-0.5-0.03-0.71-0.16c-0.17-0.1-0.32-0.23-0.45-0.37c-2.05-2.19-3.99-4.46-5.19-7.26
			C53.1,120.03,52.86,119.27,53.06,118.31z"/>
		<path id="XMLID_526_" d="M14.01,186.25c0.71,0.05,1.63-0.16,1.82,0.52c0.16,0.56-0.69,0.95-1.21,1.26
			c-0.97,0.58-1.94,1.17-3.08,1.38c-0.87,0.16-1.88-0.04-2.16-0.73c-0.32-0.79,0.62-1.3,1.29-1.7
			C11.72,186.34,12.91,186.37,14.01,186.25z"/>
		<path id="XMLID_525_" d="M153.74,218.3c-1.04,0.17-4.12-0.9-4.16-1.33c-0.04-0.44,0.18-0.82,0.6-0.88
			c1.8-0.27,3.62-0.52,5.35,0.28c0.54,0.25,1.34,0.59,1.19,1.23c-0.14,0.59-0.99,0.63-1.6,0.69
			C154.75,218.33,154.36,218.3,153.74,218.3z"/>
		<path id="XMLID_524_" d="M209.14,74.27c0.09,0.64-0.22,0.92-0.93,0.91c-1.76-0.04-3.44-1.7-3.48-3.46
			c-0.02-0.77,0.34-1.02,1.07-0.99C207.49,70.81,209.11,72.48,209.14,74.27z"/>
		<path id="XMLID_523_" d="M68.12,101.71c0.13-0.54-0.08-1.01,0.3-1.16c0.39-0.15,0.62,0.28,0.79,0.56c1.03,1.65,1.96,3.35,3.1,4.93
			c0.41,0.56,0.03,1.21-0.1,1.79c-0.08,0.35-0.54,0.44-0.75,0.13C70.11,105.94,68.57,104.01,68.12,101.71z"/>
		<path id="XMLID_522_" d="M101.9,111.02c-0.59-0.08-1.08-0.25-1.49-0.55c-1.53-1.14-3.01-2.35-4.32-3.74
			c-0.47-0.5-1.12-1.3-0.68-1.8c0.38-0.44,1.18,0.26,1.66,0.66c1.47,1.21,2.92,2.46,4.35,3.71c0.32,0.28,0.56,0.64,0.81,0.99
			c0.13,0.18,0.32,0.41,0.14,0.62C102.27,111.02,102.01,110.99,101.9,111.02z"/>
		<path id="XMLID_521_" d="M112.95,180.59c-1.8-0.02-4.66-2.06-5.07-3.63c-0.11-0.43-0.33-1.13,0.52-0.81
			c1.94,0.73,3.76,1.71,5.19,3.26c0.22,0.24,0.47,0.55,0.34,0.94C113.85,180.55,113.58,180.6,112.95,180.59z"/>
		<path id="XMLID_520_" d="M90.97,139.11c-1.74,0.02-4.34-2.23-4.58-3.87c-0.11-0.7,0.16-0.85,0.77-0.66
			c1.88,0.59,3.38,1.69,4.41,3.38C92.02,138.72,91.81,139.13,90.97,139.11z"/>
		<path id="XMLID_519_" d="M60.18,104.39c0.06-0.36-0.12-0.9,0.3-1.13c0.49-0.27,0.89,0.18,1.21,0.48c1.13,1.07,1.93,2.33,2.02,3.94
			c0.05,0.92-0.36,1.09-1.15,0.75C61.21,107.84,60.17,106.11,60.18,104.39z"/>
		<path id="XMLID_518_" d="M95.42,127.72c-1.2-0.13-2.08-0.86-2.95-1.58c-0.78-0.64-1.54-1.32-2.28-2c-0.24-0.22-0.63-0.48-0.2-0.85
			c0.33-0.29,0.8-0.89,1.15-0.55c1.53,1.48,3.62,2.36,4.74,4.29c0.11,0.2,0.27,0.41,0.09,0.64
			C95.82,127.86,95.61,127.76,95.42,127.72z"/>
		<path id="XMLID_517_" d="M48.15,183.92c1.49,0.34,3.11,0.24,4.42,1.23c0.26,0.2,0.69,0.39,0.58,0.78c-0.11,0.37-0.6,0.4-0.9,0.38
			c-1.93-0.12-3.84-0.44-5.63-1.21c-0.2-0.09-0.46-0.2-0.44-0.48c0.02-0.27,0.28-0.35,0.49-0.43
			C47.14,183.99,47.62,183.88,48.15,183.92z"/>
		<path id="XMLID_516_" d="M170.82,73.91c-1.7,0.01-4.17-1.99-4.45-3.48c-0.09-0.49,0.08-0.72,0.53-0.58
			c1.77,0.55,3.44,1.27,4.42,2.99C171.73,73.55,171.54,73.93,170.82,73.91z"/>
		<path id="XMLID_515_" d="M86.82,150.56c-1.47,0.03-3.05-1.01-3.61-2.35c-0.28-0.67-0.17-1.02,0.62-1.07
			c1.47-0.08,3.17,1.01,3.68,2.41C87.79,150.31,87.63,150.54,86.82,150.56z"/>
		<path id="XMLID_514_" d="M119.61,101.42c-1.35,0-2.53-0.77-3.04-1.99c-0.4-0.96-0.18-1.32,0.83-1.34
			c1.32-0.02,2.55,0.76,3.07,1.95C120.92,101.08,120.7,101.42,119.61,101.42z"/>
		<path id="XMLID_513_" d="M113.96,167.45c-1.4-0.19-2.7-0.83-3.44-2.34c-0.4-0.8-0.1-1.08,0.72-0.96c1.4,0.21,2.54,0.93,3.53,1.89
			c0.3,0.29,0.75,0.67,0.56,1.07C115.16,167.49,114.59,167.44,113.96,167.45z"/>
		<path id="XMLID_512_" d="M42.11,218.28c0.35-0.41,0.42-0.56,0.54-0.63c1.86-1.06,3.88-1.52,6-1.64c0.18-0.01,0.42-0.03,0.51,0.19
			c0.08,0.22-0.08,0.38-0.24,0.48C46.93,217.93,44.78,218.49,42.11,218.28z"/>
		<path id="XMLID_511_" d="M117.98,116.14c-1.29-0.01-2.69-1.12-2.94-2.31c-0.15-0.71,0.02-1.14,0.88-1.03
			c1.23,0.16,2.44,1.2,2.73,2.39C118.8,115.81,118.65,116.18,117.98,116.14z"/>
		<path id="XMLID_510_" d="M107.53,116.55c-1.29-0.03-2.59-1.17-2.79-2.42c-0.1-0.65,0.14-0.95,0.82-0.9
			c1.21,0.08,2.48,1.14,2.78,2.32C108.53,116.28,108.24,116.58,107.53,116.55z"/>
		<path id="XMLID_509_" d="M72.13,72.76c0.08-0.39-0.13-1.03,0.36-1.2c0.48-0.17,0.78,0.4,1.08,0.74c0.74,0.84,1.17,1.82,1.15,2.96
			c-0.01,0.3,0.09,0.68-0.21,0.86c-0.36,0.21-0.67-0.09-0.94-0.28C72.55,75.09,72.12,74.06,72.13,72.76z"/>
		<path id="XMLID_508_" d="M106.7,99.53c-1.28,0-2.56-1.01-2.87-2.21c-0.23-0.87,0.15-1.17,0.96-1c1.29,0.27,2.1,1.07,2.54,2.29
			C107.56,99.28,107.35,99.58,106.7,99.53z"/>
		<path id="XMLID_507_" d="M231.39,81.76c-1.33,0.05-2.17-0.31-2.89-0.97c-0.45-0.42-0.48-0.76,0.13-1.06
			c1.23-0.61,3.11-0.15,3.92,0.97c0.31,0.43,0.28,0.72-0.24,0.87C231.89,81.68,231.47,81.74,231.39,81.76z"/>
		<path id="XMLID_506_" d="M133.4,211.66c-1.05-0.13-1.9-0.46-2.44-1.34c-0.13-0.21-0.2-0.48,0.04-0.63
			c0.85-0.53,1.76-0.57,2.69-0.22c0.04,0.01,0.07,0.03,0.11,0.05c0.57,0.32,1.45,0.61,1.3,1.31
			C134.95,211.59,133.98,211.48,133.4,211.66z"/>
		<path id="XMLID_505_" d="M167.18,162.95c0.41,0.11,1.13-0.19,1.28,0.38c0.13,0.49-0.46,0.86-0.88,1.11
			c-1.16,0.7-2.38,0.89-3.65,0.31c-0.2-0.09-0.48-0.24-0.52-0.41c-0.07-0.31,0.28-0.42,0.5-0.54
			C164.9,163.25,165.98,162.98,167.18,162.95z"/>
		<path id="XMLID_504_" d="M10.19,230.17c-0.36-0.06-0.93,0.04-1.07-0.42c-0.15-0.48,0.37-0.74,0.73-0.92
			c1.01-0.5,2.03-0.98,3.2-0.91c0.58,0.04,0.67,0.24,0.34,0.72C12.8,229.49,11.43,230.17,10.19,230.17z"/>
		<path id="XMLID_503_" d="M50.98,202.92c1.18-1.45,2.53-1.98,4.14-1.91c0.22,0.01,0.52-0.05,0.6,0.24
			c0.07,0.25-0.16,0.42-0.33,0.58C54.18,202.91,52.79,203.29,50.98,202.92z"/>
		<path id="XMLID_502_" d="M66.93,113.85c0.03,0.56-0.31,0.64-0.76,0.59c-0.98-0.11-1.99-1.09-2.13-2.06
			c-0.06-0.43-0.03-0.78,0.54-0.8C65.52,111.54,66.94,112.91,66.93,113.85z"/>
		<path id="XMLID_501_" d="M152.73,72.22c-1.05-0.09-1.84-0.59-2.24-1.59c-0.34-0.85-0.06-1.2,0.83-1.05c1,0.17,1.66,0.76,2.08,1.68
			C153.73,71.98,153.51,72.28,152.73,72.22z"/>
		<path id="XMLID_500_" d="M135.93,86.37c-1.09-0.04-2.06-0.97-2.08-1.85c-0.01-0.62,0.38-0.67,0.85-0.66
			c0.98,0.02,2.11,1.06,2.05,1.89C136.7,86.38,136.2,86.29,135.93,86.37z"/>
		<path id="XMLID_499_" d="M122.92,83.21c-0.07,0.76-0.48,1.25-1.24,1.26c-0.7,0.01-1.18-0.46-1.2-1.16
			c-0.03-0.76,0.45-1.25,1.21-1.26C122.41,82.04,122.79,82.52,122.92,83.21z"/>
		<path id="XMLID_498_" d="M97.25,98.04c-0.81-0.02-2.09-1.04-1.99-1.69c0.06-0.39-0.01-1.03,0.68-1.02c0.66,0,1.87,1.46,1.89,2.2
			C97.85,97.97,97.62,98.07,97.25,98.04z"/>
		<path id="XMLID_497_" d="M64.33,178.02c0.39,0.08,1.15-0.03,1.06,0.62c-0.12,0.86-0.89,1.21-1.73,1.19
			c-0.48-0.01-1.09,0.08-1.17-0.61C62.43,178.67,63.42,178.03,64.33,178.02z"/>
		<path id="XMLID_496_" d="M58.95,189.41c0,0.5-0.3,0.67-0.75,0.68c-0.79,0.01-1.8-0.78-1.77-1.42c0.02-0.58,0.45-0.67,0.9-0.66
			C58.15,188.03,58.96,188.74,58.95,189.41z"/>
		<path id="XMLID_495_" d="M69.8,90.16c-0.05,0.34,0.04,0.8-0.52,0.86c-0.59,0.07-1.34-0.89-1.3-1.68c0.02-0.42,0.03-1.02,0.63-0.88
			C69.4,88.65,69.78,89.3,69.8,90.16z"/>
		<path id="XMLID_494_" d="M88.94,196.27c-0.79-0.01-1.5-0.18-1.6-0.86c-0.09-0.65,0.65-0.69,1.12-0.66c0.66,0.04,1.44,0.23,1.49,1
			C89.97,196.31,89.24,196.18,88.94,196.27z"/>
		<path id="XMLID_493_" d="M71.91,139.7c0.64-0.06,1.76,1.43,1.55,2.06c-0.08,0.24-0.23,0.29-0.44,0.22
			c-0.87-0.29-1.28-0.96-1.45-1.8C71.51,139.93,71.59,139.71,71.91,139.7z"/>
		<path id="XMLID_492_" d="M112.28,94.98c0.79,0.13,1.32,0.54,1.43,1.33c0.05,0.38-0.29,0.42-0.57,0.38
			c-0.76-0.12-1.29-0.6-1.5-1.29C111.52,95.01,112,95.02,112.28,94.98z"/>
		<path id="XMLID_491_" d="M110.57,102.9c-0.66-0.12-1.16-0.43-1.19-1.19c-0.02-0.43,0.29-0.53,0.63-0.48
			c0.7,0.1,1.15,0.49,1.22,1.2C111.26,102.86,110.93,102.92,110.57,102.9z"/>
		<path id="XMLID_490_" d="M337.88,14.73c0.76-0.47,1.44-0.46,2.09-0.38c5.05,0.63,10.13,0.37,15.19,0.34
			c9.44-0.06,18.76,0.9,28.03,2.54c1.11,0.2,2.25,0.26,3.34,0.53c0.98,0.24,2.27,0.71,2.09,1.83c-0.16,1.02-1.49,1.3-2.52,1.23
			c-2.69-0.18-5.32-0.76-7.97-1.25c-7.38-1.36-14.86-1.74-22.31-2.49c-5.2-0.53-10.43-0.59-15.61-1.36
			C339.39,15.59,338.66,15.31,337.88,14.73z"/>
		<path id="XMLID_489_" d="M375.97,45.71c-1.28,0-2.26-0.02-3.23,0c-1.25,0.03-2.41-0.22-3.4-1.01c-0.57-0.46-1.26-0.34-1.89-0.5
			c-0.67-0.17-1.69-0.35-1.68-1.02c0.01-0.8,1.05-0.94,1.76-0.98c3.19-0.14,6.36-0.53,9.57-0.34c2.28,0.13,4.59-0.03,6.88-0.1
			c1-0.03,1.93,0.11,2.8,0.63c0.52,0.31,0.59,0.66,0.22,1.14c-0.73,0.94-1.69,1.45-2.85,1.66
			C381.34,45.71,378.52,46.07,375.97,45.71z"/>
		<path id="XMLID_488_" d="M301.65,49.98c-0.75-0.02-1.73,0.01-1.97-0.7c-0.25-0.74,0.61-1.3,1.22-1.66
			c2.78-1.63,5.76-2.77,8.98-3.11c3.17-0.34,6.37-0.51,9.41-1.6c0.84-0.3,1.68-0.32,2.5,0.1c1.04,0.53,1.18,1.17,0.4,2.02
			c-0.74,0.81-1.69,1.2-2.77,1.38c-2.35,0.39-4.72,0.53-7.08,0.81c-2.91,0.34-5.73,1.09-8.45,2.18
			C303.17,49.7,302.46,50.02,301.65,49.98z"/>
		<path id="XMLID_487_" d="M437.1,45.18c-1.52,0-3.04,0.03-4.56-0.01c-1.11-0.02-2.15-0.33-3.04-1.03
			c-0.75-0.58-0.61-1.05,0.11-1.53c0.82-0.55,1.71-0.71,2.67-0.67c2.33,0.1,4.67,0.19,7,0.27c1.37,0.05,2.73,0.02,4.06-0.3
			c0.51-0.12,1-0.09,1.5,0.01c0.53,0.11,1.22,0.13,1.4,0.68c0.21,0.65-0.33,1.15-0.78,1.59c-1.1,1.07-2.55,1.11-3.93,1.2
			c-1.47,0.09-2.96,0.02-4.44,0.02C437.1,45.33,437.1,45.25,437.1,45.18z"/>
		<path id="XMLID_486_" d="M422.99,21.83c-0.69,0.52-1.4,0.47-2.09,0.46c-4.02-0.03-8.03-0.09-12.04,0.16
			c-0.51,0.03-1.02-0.01-1.5-0.19c-0.53-0.2-1.33-0.3-1.32-0.94c0.01-0.59,0.77-0.81,1.31-1.01c0.7-0.26,1.44-0.28,2.19-0.25
			c3.86,0.13,7.69,0.64,11.53,1C421.74,21.12,422.37,21.3,422.99,21.83z"/>
		<path id="XMLID_485_" d="M417.25,43.54c-1.33-0.12-2.81,0.08-4.12-0.67c-0.33-0.19-0.78-0.35-0.74-0.8
			c0.04-0.37,0.46-0.5,0.77-0.66c1.41-0.7,2.9-0.39,4.35-0.29c1.04,0.07,2.11,0.12,2.99,0.82c0.27,0.21,0.69,0.36,0.63,0.76
			c-0.06,0.37-0.49,0.46-0.8,0.6C419.37,43.73,418.35,43.54,417.25,43.54z"/>
		<path id="XMLID_484_" d="M392.26,20.76c0.37-0.45,0.9-0.4,1.38-0.41c1.04-0.02,2.07,0.13,3.13-0.04c0.97-0.16,1.61,0.68,2.28,1.24
			c0.41,0.34-0.1,0.49-0.34,0.6C396.99,22.94,393.63,22.22,392.26,20.76z"/>
		<path id="XMLID_483_" d="M356.66,31.73c-0.43,1.6-1.15,3.16-2.71,4.2c-0.21,0.14-0.48,0.35-0.75,0.16
			c-0.25-0.18-0.21-0.5-0.16-0.76c0.31-1.76,1.17-3.2,2.51-4.36c0.23-0.2,0.52-0.47,0.82-0.33
			C356.78,30.81,356.6,31.25,356.66,31.73z"/>
		<path id="XMLID_482_" d="M240.84,178.49c-2.81-0.24-5.57-0.75-8.15-1.92c-6.14-2.79-12.28-5.6-18.41-8.4
			c-0.21-0.1-0.43-0.2-0.61-0.34c-0.52-0.39-1.44-0.76-1.24-1.39c0.23-0.72,1.22-0.71,1.96-0.71c0.83,0,1.61,0.3,2.37,0.6
			c5.64,2.16,11.27,4.38,16.84,6.72c8.03,3.38,11.85,1.73,13.25,1.27c2.95-0.96,5.38-2.69,7.31-5.06c3.37-4.13,6.19-8.6,8.16-13.59
			c1-2.52,1.73-5.09,2.11-7.77c0.19-1.33,0.74-2.46,1.71-3.37c0.91-0.85,1.6-0.77,2.32,0.25c0.7,1,0.97,2.14,0.8,3.34
			c-1.37,9.69-5.68,17.88-12.91,24.41c-3.75,3.39-8.3,5.32-13.43,5.71C242.23,178.29,241.56,178.59,240.84,178.49z"/>
		<path id="XMLID_481_" d="M180.6,142.25c0.38-5.73,1.7-11.23,4.1-16.46c0.41-0.89,1.17-2.18,1.97-1.83
			c0.9,0.39,0.36,1.75-0.01,2.63c-2.12,5.09-2.6,10.4-2.13,15.83c0.06,0.73,0.27,1.45,0.4,2.18c0.22,1.22,0.21,2.41-0.48,3.5
			c-0.48,0.77-1.07,0.95-1.84,0.36c-1-0.75-1.55-1.75-1.72-2.95C180.72,144.44,180.55,143.35,180.6,142.25z"/>
		<path id="XMLID_480_" d="M198.72,161.87c-1.36-0.01-2.62-0.64-3.91-1.18c-2.38-1-4.29-2.64-6.11-4.41
			c-0.54-0.52-0.89-1.18-1.09-1.9c-0.07-0.24-0.29-0.53-0.02-0.75c0.24-0.19,0.53-0.03,0.78,0.05c0.53,0.15,0.99,0.46,1.37,0.86
			c2.28,2.37,5.04,3.87,8.25,4.55c0.82,0.17,1.56,0.49,2.12,1.14c0.27,0.31,0.69,0.64,0.5,1.1c-0.18,0.43-0.69,0.45-1.11,0.52
			C199.28,161.86,199.04,161.85,198.72,161.87z"/>
		<path id="XMLID_479_" d="M206.75,164.42c-0.99-0.02-1.97-0.76-1.94-1.47c0.04-0.79,0.66-0.86,1.26-0.87
			c0.89-0.02,1.85,0.73,1.83,1.46C207.88,164.35,207.25,164.38,206.75,164.42z"/>
		<path id="XMLID_478_" d="M264.16,127.72c-3.51-0.51-7.01-1.07-10.53-1.51c-4.72-0.59-9.45-1.05-14.17-1.62
			c-7.2-0.87-14.37-1.89-21.48-3.29c-0.98-0.19-2.37-0.58-2.2-1.6c0.12-0.73,1.63-0.52,2.54-0.31c4.2,0.96,8.5,1.03,12.77,1.45
			c4.54,0.45,9.08,0.87,13.62,1.28c4.27,0.38,8.57,0.34,12.81,1.09c2.11,0.37,4.23,0.66,6.34,1.04c0.57,0.1,1.15,0.28,1.65,0.56
			c0.7,0.39,1.64,0.89,1.41,1.79c-0.21,0.85-1.23,0.96-2.05,1.07c-0.23,0.03-0.47,0-0.7,0
			C264.16,127.69,264.16,127.71,264.16,127.72z"/>
		<path id="XMLID_477_" d="M204.25,95.53c-0.39-0.05-0.78-0.07-1.16-0.17c-0.54-0.14-1.34-0.13-1.38-0.82
			c-0.03-0.64,0.71-0.85,1.23-1.1c0.24-0.12,0.51-0.23,0.77-0.25c3.21-0.21,6.05-1.72,9.07-2.63c1.84-0.56,3.7-0.94,5.63-0.84
			c0.89,0.05,1.69,0.31,2.35,0.9c0.76,0.67,0.75,1.18-0.12,1.63c-1.14,0.58-2.29,1.33-3.59,1.33c-3.47,0.02-6.77,1.01-10.14,1.63
			C206.04,95.37,205.14,95.42,204.25,95.53z"/>
		<path id="XMLID_476_" d="M269.51,122.7c-5.29-0.04-9.8-1.08-14.3-2.23c-0.62-0.16-1.61-0.47-1.5-1.05
			c0.12-0.68,1.12-0.46,1.74-0.41c1.08,0.08,2.16,0.3,3.23,0.47c4.1,0.63,8.16,0.08,12.23-0.36c1.46-0.16,2.95-0.53,4.3,0.42
			c1,0.7,1.02,1.05,0.09,1.86c-0.7,0.61-1.53,0.94-2.44,1.03C271.54,122.56,270.22,122.64,269.51,122.7z"/>
		<path id="XMLID_475_" d="M281.16,121.08c-0.82-0.18-1.87,0-2.15-0.91c-0.26-0.84,0.46-1.51,1.08-2.06c0.23-0.2,0.49-0.42,0.78-0.5
			c1.66-0.47,3.16-1.26,4.6-2.2c0.77-0.5,1.29-0.29,1.5,0.66c0.29,1.36-0.12,2.5-1.18,3.31
			C284.42,120.43,282.8,120.84,281.16,121.08z"/>
		<path id="XMLID_474_" d="M208.19,118.72c-1.95-0.53-4.09-0.95-5.22-3.09c-0.49-0.93-0.29-1.32,0.78-1.3
			c2.32,0.03,4.19,1.22,5.97,2.55c0.33,0.24,0.71,0.63,0.58,1.08c-0.15,0.51-0.72,0.51-1.17,0.62
			C208.87,118.64,208.6,118.66,208.19,118.72z"/>
		<path id="XMLID_472_" d="M215.74,216.87c1.81,1.66,3.79,2.18,5.78,2.74c4.63,1.29,8.75,0.4,12.43-2.66
			c3.9-3.24,7.84-6.43,10.8-10.64c1.59-2.26,2.75-4.7,3.57-7.33c0.43-1.39,1.16-2.56,2.45-3.3c1.12-0.65,2-0.44,2.7,0.66
			c0.79,1.23,0.83,2.56,0.46,3.94c-1.51,5.61-4.55,10.24-9.05,13.87c-2.82,2.28-5.79,4.34-8.92,6.22
			c-4.35,2.62-8.92,2.98-13.75,2.01c-2.84-0.57-5.36-1.71-7.73-3.43c-3.14-2.29-6.38-4.48-10.05-5.92c-0.62-0.24-1.58-0.59-1.39-1.3
			c0.14-0.55,1.14-0.32,1.8-0.34c2.79-0.07,5.35,0.92,7.97,1.65c0.11,0.03,0.23,0.1,0.34,0.09c3.46-0.25,6.24,1.98,9.46,2.62
			c0.47,0.09,0.76,0.05,1.17-0.15c4.22-2.13,7.01-5.65,9.32-9.61c2.04-3.5,4.03-7.04,5.03-11.03c0.25-1.01,0.87-1.83,1.71-2.45
			c0.85-0.63,1.7-0.8,2.44,0.19c0.12,0.15,0.25,0.33,0.41,0.4c1.6,0.74,2.14,1.64,1.94,3.31c-0.37,3.2-1.4,6.12-3.35,8.74
			c-2.1,2.81-3.99,5.83-6.9,7.89c-2.41,1.71-4.64,3.69-7.27,5.09c-1.29,0.69-2.56,0.72-4.04,0.57c-2.26-0.22-4.33-0.87-6.37-1.74
			C216.51,216.85,216.26,216.9,215.74,216.87z"/>
		<path id="XMLID_471_" d="M181.79,184.91c0.08-1.18-0.09-2.7,0.85-3.99c0.24-0.33,0.47-0.83,0.96-0.72
			c0.43,0.09,0.49,0.59,0.53,0.96c0.15,1.43,0.15,2.88,0.4,4.3c0.71,4.07,1.56,8.11,3.14,11.95c0.49,1.18,0.82,2.35,0.41,3.62
			c-0.21,0.65-0.6,0.86-1.24,0.69c-1.46-0.38-2.31-1.39-2.81-2.73c-1.04-2.8-1.4-5.74-1.78-8.68
			C182.03,188.62,181.75,186.92,181.79,184.91z"/>
		<path id="XMLID_470_" d="M197.24,208.72c-1.67-0.37-3.31-0.99-4.36-2.6c-0.18-0.27-0.47-0.62-0.19-0.95
			c0.21-0.26,0.58-0.17,0.88-0.1c1.71,0.38,3.13,1.32,4.41,2.47c0.25,0.22,0.59,0.54,0.44,0.89
			C198.23,208.85,197.73,208.62,197.24,208.72z"/>
		<path id="XMLID_323_" d="M471.08,30.39c-1.37-4.54-4.78-7.25-8.46-9.59c-2.34-1.49-5.08-2.39-7.84-3.01
			c-4.35-0.97-8.8-1.27-13.19-1.91c-11.71-1.71-23.48-2.6-35.31-3.01c-5.96-0.21-11.91-0.77-17.81-1.75
			c-7.35-1.22-14.71-2.46-22.13-3.04c-10.26-0.8-20.54-1.3-30.82-1.78c-7.98-0.37-15.98,0.14-23.94-0.85
			c-5.06-0.63-10.2-0.05-15.29-0.58c-2.21-0.23-4.45-0.12-6.67-0.18c-14.59-0.38-29.17-1.07-43.75-1.73
			c-3.47-0.16-6.95-0.22-10.39-0.71c-11.07-1.57-22.18-2.36-33.37-2.24c-8.86,0.09-24.01,1.81-36.23,7.46
			c-5.32,2.46-10.51,5.16-15.59,8.06c-8.74,4.99-17.4,10.12-26.04,15.27c-3.08,1.84-6.07,3.83-9.25,5.51
			c-8.31,4.39-16.65,8.73-24.97,13.12c-6.81,3.59-13.88,6.59-21.23,8.88c-6.71,2.09-13.58,3.5-20.48,4.84
			c-8.27,1.61-16.51,3.4-24.88,4.41c-5.04,0.6-10.05,1.29-14.99,2.48c-1.48,0.36-2.83,0.87-3.86,2.03
			c-1.27,1.44-1.08,2.53,0.61,3.48c1.22,0.68,2.56,0.82,3.86,0.49c8.01-2.04,16.27-2.46,24.37-3.89c9.26-1.63,18.5-3.31,27.66-5.44
			c6.72-1.57,13.48-3.15,19.61-6.48c4.69-2.54,9.5-4.84,14.16-7.47c12.16-6.86,24.68-13.04,36.67-20.24
			c9.25-5.56,18.6-10.99,28.13-16.1c5.28-2.83,10.7-5.33,16.19-7.69c3.32-1.43,6.96-2,10.54-2.63c10.67-1.9,21.38-1.34,32.1-0.58
			c5.88,0.42,11.72,1.17,17.56,1.95c5.5,0.73,11.06,0.65,16.59,0.98c2.96,0.18,5.92,0.35,8.88,0.48c0.82,0.04,0.9,0.27,0.58,0.98
			c-0.46,1.04-0.95,2.05-1.58,2.99c-2.77,4.1-4.98,8.48-6.44,13.21c-0.32,1.03-0.77,1.3-1.76,0.92c-0.5-0.19-1.06-0.23-1.6-0.32
			c-9.77-1.62-19.61-2.76-29.27-5.1c-6.63-1.61-13.42-2.6-19.37-6.29c-0.83-0.51-1.81-0.47-2.74-0.27c-1.14,0.25-1.3,0.66-0.7,1.65
			c0.58,0.94,1.33,1.72,2.27,2.32c2.35,1.51,4.88,2.65,7.52,3.48c11.1,3.5,22.39,6.18,33.95,7.75c5.06,0.68,10.1,1.59,14.95,3.29
			c0.43,0.15,5.41,2.41,6.2,2.95c7.44,5.02,15.26,9.43,22.93,14.08c8.44,5.11,17.38,9.35,26.27,13.64c1.19,0.57,1.61,1.76,1.08,2.99
			c-0.22,0.5-0.4,1.01-0.47,1.56c-0.61,4.43-2.53,8.16-5.94,11.09c-2.57,2.21-5.07,4.51-7.76,6.6c-0.74,0.57-1.41,1.24-2.03,1.93
			c-0.52,0.58-1.18,1.51-0.72,2.04s1.33-0.24,1.9-0.64c3.48-2.38,6.87-4.87,10.16-7.51c3.22-2.58,5.37-5.83,6.65-9.7
			c0.26-0.8,0.44-1.63,0.68-2.56c0.92,1.2,1.6,2.31,1.05,3.81c-0.33,0.91-0.47,1.89-0.76,2.82c-0.31,1-0.51,2.09-1.21,2.9
			c-1.56,1.8-2.95,3.72-4.51,5.53c-4.51,5.24-9.72,9.32-16.62,10.93c-2.22,0.52-4.45,0.77-6.71,0.96c-0.8,0.07-1.52,0.31-2.19,0.74
			c-0.53,0.34-0.57,0.68-0.08,1.09c0.84,0.71,1.81,0.98,2.91,1.04c4.62,0.25,8.96-1.05,13.32-2.26c2.28-0.63,4.37-1.66,6.27-3.07
			c2.21-1.64,4.44-3.25,6.44-5.31c0.19,1.8,0.1,2.18-0.91,3.52c-1.66,2.19-3.73,3.94-6.19,5.08c-9.95,4.61-20.28,6.36-31.09,3.71
			c-5.81-1.43-11.26-3.94-16.93-5.8c-3.08-1.01-6.11-2.18-8.99-3.66c-6.57-3.4-13.52-5.87-20.49-8.27
			c-6.1-2.11-12.25-2.48-18.54-0.94c-3.56,0.87-7.11,1.8-10.62,2.84c-11.08,3.27-22.24,4.92-33.68,1.97
			c-3.04-0.79-6.24-0.98-9.08-2.56c-4.58-2.55-8.67-5.84-13.14-8.55c-0.23-0.14-0.43-0.34-0.62-0.53c-2.35-2.29-4.87-4.39-7.51-6.34
			c-1.3-0.97-2.37-2.12-3.16-3.55c-0.57-1.02-1.24-1.99-1.94-2.92c-0.38-0.51-1.02-1.29-1.55-0.95c-0.48,0.31-0.06,1.25,0.25,1.82
			c1.19,2.2,2.39,4.39,3.92,6.37c2.1,2.74,4.67,4.98,7.32,7.2c5.93,4.99,12.02,9.69,19.17,12.83c2.32,1.02,1.91,0.84,1.06,2.94
			c-0.31,0.77-0.66,0.88-1.39,0.48c-4.63-2.58-9.36-5.01-13.59-8.26c-1.55-1.19-3.14-2.31-4.72-3.46c-0.65-0.47-1.33-0.89-2.24-0.88
			c0.18,1.01,0.77,1.63,1.44,2.16c5.63,4.39,11.03,9.08,17.14,12.83c1.46,0.89,1.44,0.93,0.56,2.44c-0.06,0.1-0.12,0.2-0.17,0.31
			c-0.26,0.6-0.63,0.67-1.2,0.34c-5.51-3.11-11.04-6.18-15.73-10.51c-0.49-0.45-1.04-0.82-1.68-1.05c-0.56-0.2-0.73-0.01-0.56,0.55
			c0.24,0.82,0.77,1.42,1.36,2.01c4.18,4.21,8.99,7.6,13.91,10.86c1.9,1.26,1.84,1.22,0.5,3.12c-0.63,0.89-1.13,0.88-1.98,0.36
			c-4.45-2.73-8.91-5.43-13.07-8.63c-4.08-3.14-8.22-6.21-12.21-9.47c-0.52-0.42-1.1-0.73-1.75-0.93c-0.68-0.21-0.88,0.08-0.72,0.7
			c0.26,0.99,0.92,1.69,1.68,2.34c3.84,3.26,8.01,6.1,12,9.16c5.92,4.54,11.83,9.07,18.07,13.15c2.39,1.56,2.35,1.58,0.63,3.86
			c-0.44,0.59-0.81,0.67-1.46,0.35c-2.31-1.14-4.57-2.38-6.76-3.74c-5.91-3.67-11.43-7.88-16.99-12.05
			c-0.76-0.57-1.54-1.07-2.51-1.18c-0.66-0.08-0.88,0.21-0.65,0.83c0.31,0.83,0.86,1.48,1.54,2.03c7.01,5.6,14.1,11.11,21.55,16.13
			c2.24,1.52,2.24,1.46,0.58,3.58c-0.52,0.67-0.91,0.74-1.62,0.28c-3.37-2.19-6.77-4.33-10.16-6.5c-0.84-0.54-1.7-0.94-2.72-0.96
			c-0.78-0.01-0.95,0.34-0.73,1.03c0.32,0.97,0.94,1.69,1.76,2.28c2.92,2.09,5.82,4.2,8.75,6.28c1.56,1.1,1.58,1.08,0.12,2.3
			c-1.55,1.3-1.55,1.3-3.22,0.22c-7.59-4.94-15.05-10.06-22.32-15.46c-0.7-0.52-1.44-0.93-2.32-1.04c-0.74-0.09-1.07,0.12-0.68,0.9
			c0.41,0.84,1.07,1.43,1.79,1.97c6.95,5.17,13.9,10.34,20.85,15.52c0.34,0.26,0.69,0.51,1.02,0.78c0.17,0.14,0.39,0.25,0.22,0.56
			c-0.54,1.01-2.66,1.62-3.59,0.98c-4.63-3.18-9.26-6.37-13.88-9.56c-0.78-0.54-1.59-0.98-2.55-1.09c-0.84-0.1-1.21,0.15-0.8,1.04
			c0.39,0.84,0.97,1.49,1.72,2.02c4.39,3.12,8.79,6.22,12.96,9.63c0.21,0.18,0.77,0.25,0.41,0.76c-0.49,0.68-1.85,1.01-2.58,0.61
			c-3.08-1.69-6.17-3.38-9-5.47c-3.73-2.76-7.43-5.57-11.15-8.36c-0.69-0.52-1.4-1.01-2.27-1.16c-0.49-0.09-1.12-0.28-1.44,0.13
			c-0.35,0.45,0.1,0.96,0.37,1.37c0.26,0.38,0.56,0.77,0.92,1.05c6.23,4.82,12.04,10.19,18.7,14.46c0.5,0.32,1.06,0.57,0.56,1.34
			c-0.24,0.37,0.04,0.66,0.4,0.82c0.58,0.26,1.2,0.46,1.82,0.35c0.97-0.18,1.77,0.15,2.54,0.63c1.75,1.09,3.49,2.21,5.23,3.34
			c0.19,0.12,0.56,0.17,0.42,0.65c-1.55-0.06-3.18,0.61-4.65-0.35c-2.9-1.91-5.75-3.88-8.6-5.86c-3.2-2.23-6.27-4.65-9.62-6.66
			c-0.85-0.51-1.74-0.88-2.74-0.92c-0.9-0.04-1.2,0.4-0.95,1.25c0.33,1.13,1.04,1.99,1.99,2.67c1.3,0.94,2.61,1.85,3.86,2.86
			c3.29,2.64,6.75,5.05,10.32,7.26c3.42,2.13,6.51,4.71,9.95,6.8c0.08,0.05,0.13,0.17,0.31,0.44c-1.53-0.15-2.92,0.64-4.29-0.3
			c-2.69-1.87-5.45-3.64-8.06-5.63c-3.83-2.91-8.09-5.15-11.98-7.96c-5.69-4.12-11.31-8.33-16.96-12.51
			c-0.73-0.54-1.45-1.07-2.37-1.21c-0.25-0.04-0.58-0.16-0.74,0.13c-0.13,0.23,0.08,0.44,0.2,0.64c0.42,0.68,1.02,1.18,1.62,1.67
			c5.19,4.26,10.47,8.41,15.54,12.81c5.36,4.65,11.26,8.51,17.2,12.32c0.35,0.22,1.64,0.12,0.71,1.22
			c-0.14,0.16,0.28,0.29,0.47,0.39c0.76,0.37,1.72,0.06,2.39,0.46c1.98,1.2,3.91,2.47,5.94,3.65c-1.23,0.05-2.51,0.5-3.58-0.09
			c-4.09-2.27-8.35-4.23-12.23-6.87c-1.05-0.71-2.85-0.88-2.92-0.39c-0.17,1.16,0.53,1.99,1.36,2.69c1.41,1.18,2.99,2.11,4.63,2.96
			c0.75,0.39,1.48,0.79,2.22,1.19c-1.9,0.09-3.74,0.33-5.51-0.49c-4.65-2.15-9.05-4.75-13.45-7.35c-2.6-1.53-5.1-3.22-7.25-5.33
			c-2.44-2.38-5.16-4.41-7.71-6.64c-0.83-0.72-1.71-1.37-2.79-1.66c-0.43-0.11-0.66-0.06-0.55,0.5c0.25,1.37,0.68,2.58,1.79,3.57
			c2.4,2.12,4.82,4.21,7.33,6.19c4.48,3.53,9.12,6.82,13.99,9.79c3.17,1.93,6.52,3.52,9.74,5.36c3.52,2.02,7.13,3.86,10.82,5.53
			c0.89,0.4,1.89,0.5,2.86,0.55c0.62,0.03,1.45,0.02,1.67-0.57c0.24-0.63-0.46-1.1-0.95-1.46c-0.4-0.29-0.89-0.47-1.35-0.69
			c-2.36-1.14-4.72-2.28-7.08-3.43c0.63-0.18,1.22-0.2,1.8-0.18c2.77,0.11,5.52,0.52,8.3,0.35c11.18-0.72,22.02-2.93,32.3-7.53
			c0.46-0.2,0.89-0.56,1.18,0.25c0.25,0.68,0.25,1.09-0.58,1.24c-0.33,0.06-0.66,0.25-0.95,0.45c-4.43,3-9.34,4.8-14.51,6.02
			c-0.72,0.17-1.5,0.31-2.03,1.01c0.84,0.5,1.66,0.62,2.54,0.47c1.77-0.3,3.54-0.6,5.31-0.88c4.16-0.66,8.15-1.75,11.67-4.3
			c0.54,0.96,0.6,1.74-0.46,2.47c-1.29,0.89-2.61,1.69-4.09,2.23c-1.44,0.53-2.58,1.62-2.35,2.15c0.28,0.65,2.05,0.94,3.39,0.5
			c0.96-0.31,1.91-0.68,2.84-1.09c1.71-0.74,1.75-0.76,1.73,1.15c-0.02,1.23,0.22,2.55-0.6,3.62c-2.58,3.38-3.59,7.25-3.54,11.4
			c0.06,5.47,0.45,10.92,1.31,16.32c1.36,8.48,5.12,15.28,13.36,19.01c5.29,2.4,10.33,5.33,15.58,7.82c2.74,1.3,5.12,3.16,7.51,5.29
			c-1.44,0.35-2.74,0.26-4,0.32c-4.91,0.24-9.82,0.52-14.74,0.31c-5.73-0.25-11.45-0.6-17.18-0.79c-4.16-0.14-8.34-0.01-12.5-0.32
			c-4.32-0.32-8.64-0.58-12.94-1.07c-5.82-0.66-39.16-4.37-56.38-11.32c-0.71-0.29-1.87-1.66-2.5-2.61
			c25.39,7.68,68.91,13.17,79.17,13.64c5.46,0.25,10.92,0.18,16.39,0.34c3.9,0.11,14.24-1.13,15.3-1.5
			c0.49-0.17,0.55-0.47,0.29-0.91c-0.48-0.83-1.11-1.5-1.98-1.94c-2.9-1.45-5.74-3-8.55-4.6c-1.05-0.6-2.14-1.14-3.25-1.59
			c-1.43-0.58-2.24-0.25-3.06,1.05c-0.35,0.55-3.19,2.49-4.19,2.93c-3.3,1.47-6.64,2.45-10.38,2.19
			c-5.41-0.37-10.84-0.34-16.26-0.54c-2.61-0.1-5.23-0.13-7.82-0.53c-4.69-0.73-9.42-1.09-14.06-2.2
			c-5.38-1.29-10.95-1.7-16.29-3.21c-0.68-0.19-8.07-1.97-10.86-2.51c-3.2-0.62-6.3-1.61-9.52-2.15c-3.15-0.52-6.27-1.26-9.4-1.87
			c-0.64-0.12-1.19-0.35-1.65-0.81c-1.78-1.8-3.69-3.51-5.32-5.44c-1.02-1.21-5.14-6.19-6.09-7.2c-0.47-0.5-0.19-0.66,0.37-0.8
			c1.55-0.39,3.06-0.47,4.6,0.03c0.56,0.18,1.42,0.56,1.71-0.05c0.31-0.68-0.46-1.23-1-1.66c-0.24-0.19-0.54-0.32-0.83-0.43
			c-1.84-0.69-3.78-0.92-5.62-0.28c-1.34,0.46-2.09,0.06-2.89-0.89c-0.49-0.58-0.46-0.91,0.21-1.24c0.56-0.27,1.1-0.59,1.66-0.87
			c0.6-0.3,1.15-0.67,1.55-1.22c0.22-0.3,0.61-0.63,0.37-1.03c-0.21-0.35-0.68-0.36-1.06-0.35c-1,0.03-1.88,0.41-2.74,0.93
			c-3,1.8-1.78,1.72-4.66-0.24c-0.03-0.02-0.06-0.04-0.1-0.06c-0.71-0.42-0.59-0.79,0.05-1.17c1.28-0.74,2.55-1.51,3.84-2.25
			c0.8-0.45,1.48-1.01,1.92-1.83c0.42-0.79,0.11-1.18-0.7-1.27c-0.93-0.1-1.77,0.16-2.56,0.64c-1.4,0.86-2.7,1.86-3.96,2.91
			c-0.89,0.75-1.75,1.31-2.89,0.44c-0.23-0.18-0.59-0.23-0.89-0.25c-0.33-0.02-0.76-0.22-0.96,0.16c-0.16,0.3,0.12,0.6,0.31,0.83
			c0.34,0.43,0.63,0.8,0.01,1.26c-0.29,0.21-0.77,0.45-0.55,0.9c0.18,0.35,0.65,0.38,1.04,0.42c0.31,0.03,0.65,0.11,0.93,0.01
			c1.75-0.61,2.76,0.56,3.85,1.54c0.49,0.44,0.58,0.83-0.1,1.15c-2.71,1.25-5.22,3-8.3,3.36c-0.84,0.1-1.66,0.44-2.46,0.74
			c-0.49,0.19-1.23,0.38-1.12,1.01c0.12,0.69,0.91,0.44,1.4,0.45c2.03,0.06,3.89-0.73,5.8-1.26c0.47-0.13,3.2,1.22,2.55,2.19
			c-0.51,0.76-1.67,1.09-2.54,1.6c-0.37,0.21-0.78,0.37-1.15,0.58c-0.34,0.19-0.66,0.41-0.97,0.65c-0.21,0.16-0.5,0.34-0.43,0.64
			c0.09,0.35,0.46,0.38,0.76,0.43c0.67,0.1,1.33,0.01,1.94-0.28c0.85-0.4,1.69-0.8,2.52-1.25c2.23-1.2,2.2-1.19,3.78,0.77
			c0.51,0.63,0.32,0.9-0.28,1.24c-1.19,0.67-2.37,1.35-3.51,2.11c-1.89,1.26-3.79,2.48-5.99,3.14c-0.46,0.14-0.96,0.32-1.24,0.93
			c0.76,0.24,1.48,0.22,2.21,0.05c1.53-0.35,2.95-1.01,4.33-1.73c1.87-0.97,3.67-2.07,5.63-2.86c0.81-0.33,2.43,0.82,2.38,1.69
			c-0.01,0.24-0.18,0.35-0.35,0.42c-1.56,0.65-2.94,2.26-4.88,0.86c-0.23-0.17-0.71-0.38-0.98-0.07c-0.33,0.39,0.09,0.72,0.3,1.02
			c0.34,0.49,0.65,0.91-0.12,1.3c-3.37,1.71-6.41,4.05-10.06,5.23c-0.47,0.15-0.91,0.45-1.34,0.7c-0.2,0.11-0.46,0.26-0.4,0.52
			c0.08,0.34,0.42,0.28,0.68,0.31c0.76,0.08,1.46-0.11,2.18-0.35c3.46-1.14,6.62-2.96,9.94-4.42c1.76-0.77,1.96-0.73,3.13,0.73
			c0.41,0.52,0.34,0.8-0.23,1.06c-0.96,0.43-1.94,0.84-2.86,1.34c-0.84,0.45-1.66,0.63-2.57,0.26c-0.62-0.25-1.24-0.06-1.83,0.16
			c-0.33,0.12-0.61,0.41-0.23,0.69c1.07,0.79,0.18,1.01-0.36,1.31c-0.47,0.27-0.96,0.51-1.46,0.74c-7.7,3.57-15.73,6.24-23.76,8.94
			c-0.74,0.25-1.49,0.47-2.11,0.97c-0.79,0.64-0.69,1.28,0.29,1.62c0.84,0.29,1.69,0.21,2.53-0.06c2.05-0.65,4.04-1.46,6.02-2.28
			c7.02-2.93,14.06-5.83,21.04-8.84c1.52-0.66,2.69-0.3,3.92,0.5c0.64,0.42,0.48,0.68-0.09,0.96c-1.39,0.71-2.81,1.36-4.31,1.82
			c-4.39,1.33-8.49,3.32-12.57,5.37c-5.19,2.6-10.41,5.16-15.89,7.15c-3.08,1.12-6.15,2.31-9.07,3.77
			c-6.81,3.39-13.5,7.01-20.68,9.58c-0.84,0.3-1.47,0.87-1.91,1.65c-0.62,1.12-0.32,1.75,0.96,1.97c1.09,0.18,2.07-0.16,3.06-0.58
			c3.16-1.35,6.32-2.69,9.48-4.01c4.1-1.72,8.32-3.19,12.28-5.19c4.94-2.49,9.97-4.8,14.88-7.37c4.53-2.37,9.17-4.51,13.66-6.96
			c4.17-2.28,8.53-4.19,13.14-5.47c0.47-0.13,0.94-0.2,1.37,0.03c1.19,0.63,2.36,1.3,3.52,1.94c-0.07,0.34-0.3,0.35-0.47,0.39
			c-5.17,1.49-9.81,4.22-14.7,6.34c-3.84,1.66-7.34,3.96-11.1,5.78c-5.31,2.56-10.8,4.72-16.14,7.19
			c-9.06,4.19-17.95,8.76-27.45,11.93c-1.01,0.34-1.57,1.06-1.46,2.13c0.11,1.11,0.83,1.73,1.91,1.91c1.22,0.2,2.41-0.08,3.59-0.37
			c7.91-1.88,15.23-5.3,22.56-8.68c14.44-6.66,28.57-14.04,43.69-19.19c5.9-2.01,11.84-4.05,18.03-4.49
			c12.49-0.9,34.18,3.2,36.89,3.71c7.86,1.46,53.95,6.26,55.61,6.34c8.06,0.42,16.11,1.07,24.19,0.29
			c3.33-0.32,6.69-0.56,10.05-0.36c0.51,0.03,1.01,0.02,1.47,0.29c1.86,1.13,3.74,2.24,6.08,2.91c-1.03,0.52-1.91,0.51-2.77,0.49
			c-13.03-0.28-26.04-0.94-39.07-1.15c-10.18-0.17-20.31-1.2-30.42-2.39c-10.35-1.22-40.34-5.98-41.75-6.04
			c-0.16-0.01-15.42-1.58-20.08-1.17c-5.27,0.46-10.44,1.74-15.3,3.74c-14.09,5.81-28.55,10.76-42.05,17.97
			c-2.48,1.32-20.71,8.87-25.74,10.41c-0.75,0.23-1.49,0.49-2.11,0.98c-0.65,0.51-1.5,1.09-1.35,1.92c0.15,0.88,1.2,0.98,1.99,1.18
			c0.69,0.17,1.39,0.17,2.08-0.02c0.94-0.27,1.87-0.54,2.81-0.8c9.43-2.62,18.87-5.21,28.08-8.57
			c13.05-4.76,25.74-10.43,38.52-15.86c4.87-2.07,9.91-3.74,15.13-4.39c8.55-1.07,24.55,0.75,30.52,1.68c6.1,0.95,22.1,4,30.67,5.02
			c10.39,1.25,20.81,2.05,31.27,2.21c9.52,0.14,19.03,0.65,28.55,0.86c3.74,0.08,7.49,0.59,11.22,0.08
			c2.82-0.39,5.61-0.97,8.43-1.39c9.51-1.4,17.92-5.03,24.15-12.55c5.09-6.14,9.24-12.94,12.5-20.26c0.6-1.36,0.98-2.8,1.15-4.28
			c0.41-3.44-0.42-6.51-2.83-9.06c-0.51-0.54-1.19-0.93-1.91-1.47c0.59-0.24,1.04-0.16,1.49-0.13c0.75,0.05,1.47-0.02,2.19-0.25
			c8.59-2.86,15.25-7.97,19.33-16.24c2.82-5.7,5.9-11.26,7.05-17.64c0.61-3.41,0.17-6.43-2.15-9.08c-0.26-0.29-0.49-0.59-0.61-0.98
			c-0.29-1.04-0.95-1.86-1.68-2.64c-1.72-1.82-3.56-3.5-5.67-4.86c-1.4-0.9-1.36-1.06,0.19-1.78c3.36-1.56,6.69-3.18,9.8-5.22
			c2.95-1.93,5-4.46,6.32-7.74c2.45-6.05,4.36-12.27,6.31-18.49c0.93-2.98,1.89-5.96,1.88-9.13c0-0.54,0.32-0.85,0.68-1.16
			c1.26-1.11,2.48-2.27,3.55-3.56c5.38-6.48,7.39-13.88,5.96-22.17c-0.16-0.92-0.11-1.17,0.85-1.08c3.46,0.32,6.91,0.67,10.38,0.87
			c13.91,0.78,27.76,0.24,41.54-1.92c5.55-0.87,11.12-1.62,16.7-2.2c8.52-0.89,17.05-0.54,25.6-0.02c12.3,0.75,24.5,0.13,36.33-3.78
			c2.56-0.84,5.24-1.55,7.37-3.22c6.34-4.97,9.82-11.48,10.03-19.62C473.63,38.27,472.28,34.36,471.08,30.39z M165.99,93.75
			c0.35-0.03,2.11,1.15,2.14,1.5c-0.36,0.59-0.24,1.51-1.04,1.9c-0.29,0.14-2.45-1.09-2.48-1.33
			C164.58,95.53,165.75,93.78,165.99,93.75z M162.42,99.14c0.06-0.08,0.19-0.1,0.37-0.19c0.94,0.55,1.99,1.03,2.84,1.74
			c0.31,0.26-0.33,0.87-0.48,1.34c-0.34,1.02-0.91,1.24-1.8,0.58c-0.25-0.18-0.56-0.28-0.82-0.45c-0.47-0.32-1.38-0.38-1.34-0.95
			C161.23,100.42,161.95,99.81,162.42,99.14z M157.51,107.08c-0.43-0.25-0.59-0.49-0.17-0.88c0.09-0.08,0.14-0.19,0.23-0.26
			c0.61-0.51,0.87-1.83,1.65-1.59c1.23,0.38,2.29,1.28,3.42,1.98c0.08,0.05,0.09,0.2,0.14,0.32c-0.42,0.84-0.77,1.72-1.4,2.41
			c-0.22,0.24-0.52-0.02-0.74-0.15C159.59,108.31,158.56,107.68,157.51,107.08z M158.86,121.5c0.09-0.1,0.26-0.13,0.43-0.22
			c0.71,0.44,1.4,0.87,2.09,1.31c2.09,1.34,2.05,1.31,0.21,3.01c-0.73,0.67-1.35,0.81-2.13,0.22c-0.18-0.14-0.42-0.21-0.61-0.34
			c-0.73-0.5-2.18-0.8-2.09-1.43C156.9,123.01,158.11,122.34,158.86,121.5z M165.87,141.81c-0.79,1.68-2.66,2.29-3.98,1.27
			C163.29,142.64,164.51,142.25,165.87,141.81z M151.34,128.74c0.06-0.05,0.11-0.11,0.18-0.15c0.76-0.52,1.37-1.66,2.21-1.56
			c1.15,0.14,2.05,1.15,3.06,1.8c0.18,0.12,0.28,0.32,0.09,0.48c-0.71,0.59-1.43,1.18-2.35,1.59c-1.05-0.55-2.11-1.1-3.17-1.67
			C151.16,129.11,151.14,128.91,151.34,128.74z M147.46,131.41c1.11-0.17,1.9,0.87,2.85,1.34c0.09,0.05,0.15,0.16,0.22,0.24
			c-0.03,0.09-0.04,0.16-0.07,0.23c-0.25,0.48-2.53,1.22-3.04,0.99c-0.14-0.06-0.29-0.13-0.41-0.22c-0.6-0.45-1.9-0.64-1.73-1.24
			C145.48,132.03,146.64,131.54,147.46,131.41z M139.9,136.74c-0.66-0.47-0.86-0.67,0-1.24c1.18-0.79,2.09-0.79,3.21,0.1
			c2.75,2.19,6.29,3.05,9.05,5.25c0.3,0.24,0.64,0.42,1.1,0.72c-2.29,0.87-4.38,0.66-6.32-0.43
			C144.53,139.78,142.15,138.36,139.9,136.74z M148.43,155.08c-1.23,0.37-2.12,0.51-2.75-0.76c-0.43-0.86-1.45-1.12-2.26-1.56
			c-0.4-0.21-0.86-0.34-1.18-0.79c2.4-0.45,4.53-0.06,6.35,1.61C148.43,154.06,146.89,154.23,148.43,155.08z M147.71,148.26
			c-1.42-1.14-3.05-2.01-4.54-3.13c1.84-0.01,3.69-0.56,5.33,0.91c1.12,1,2.45,1.78,3.8,2.74
			C150.58,149.39,149.15,149.41,147.71,148.26z M152.98,151.34c1.43,0.05,2.68-0.83,3.77,0.51
			C155.46,152.31,154.3,152.5,152.98,151.34z M153.41,144.97c2.69-0.91,5.16-0.87,7.15,1.33
			C158.37,147.9,155.3,147.37,153.41,144.97z M153,137.55c2.84-1.2,5.51-0.7,7.66,1.43C157.77,140.28,155.22,139.76,153,137.55z
			 M161.48,150.03c1.5-0.28,2.92-1.52,4.53-0.31C164.51,149.89,163.06,151.19,161.48,150.03z M168.27,117.95
			c-0.55,0.77-1.07,1.64-1.84,2.31c-0.05,0.04-0.17,0.05-0.22,0.02c-1.29-0.72-2.58-1.45-3.87-2.18c-0.03-0.02-0.08-0.06-0.08-0.08
			c0.13-0.96,1.03-1.39,1.46-2.15c0.19-0.33,0.46-0.5,0.88-0.27c1.13,0.62,2.27,1.21,3.4,1.82
			C168.18,117.53,168.36,117.64,168.27,117.95z M171.83,111.84c-0.23,0.65-0.54,1.49-1.03,2.24c-0.2,0.3-0.47,0.2-0.72,0.07
			c-1.04-0.52-2.07-1.05-3.11-1.58c-0.42-0.21-0.56-0.5-0.27-0.93c0.36-0.55,0.7-1.12,1.05-1.68c0.18-0.29,0.42-0.45,0.78-0.29
			c1.02,0.47,2.04,0.93,3.06,1.41C171.81,111.19,171.94,111.38,171.83,111.84z M172.28,106.71c-0.62,0.16-1.28-0.26-1.82-0.63
			c-0.52-0.36-0.05-0.8,0.16-1.1c0.37-0.55,0.45-1.67,1.17-1.54c0.85,0.15,0.48,1.24,0.64,1.92c0.01,0.04,0.01,0.08,0.02,0.18
			C172.41,105.9,172.84,106.56,172.28,106.71z M76.87,205.6c0.49-0.2,1.06-0.6,1.52-0.22c0.77,0.64,1.41,1.43,2.11,2.16
			c0.11,0.11,0.2,0.26,0.09,0.41c-0.21,0.28-0.54,0.26-0.78,0.29c-0.58-0.01-2.9-1.77-3.06-2.26
			C76.69,205.81,76.69,205.67,76.87,205.6z M75.08,201.01c0.05,0.06,0.1,0.12,0.13,0.19c0.24,0.43,0.91,0.81,0.68,1.26
			c-0.32,0.59-1.15,0.49-1.69,0.69c-0.52,0-2.12-1.46-2.13-1.87c0-0.1,0.05-0.22,0.11-0.31C72.79,200.19,74.48,200.22,75.08,201.01z
			 M67.39,194.42c-1.05,0.74-2.04,1.02-3.1-0.03c-0.38-0.38-1-1.01-0.66-1.17c1.27-0.6,2.57-1.13,3.8-1.8
			c1.23-0.68,1.47,0.39,1.94,1c0.6,0.79-0.18,0.98-0.65,1.26C68.28,193.94,67.8,194.13,67.39,194.42z M71.09,198.85
			c-0.71,0.41-1.24,0.31-1.85-0.28c-1.84-1.77-1.88-1.76,0.4-2.85c0.48-0.23,1.05-0.88,1.56-0.35c0.66,0.69,1.12,1.57,1.58,2.23
			c0.02,0.48-0.2,0.59-0.41,0.68C71.94,198.48,71.49,198.62,71.09,198.85z M73.22,215.33c-1.29,0.51-2.57,0.99-3.83-0.07
			c-0.26-0.22-0.57-0.37-1.01-0.65c1.08-0.69,2.1-0.94,3.09-1.25c0.47-0.15,2.09,1.14,2.11,1.59
			C73.59,215.21,73.4,215.26,73.22,215.33z M75.01,209.08c-0.59,0.19-1.18,0.36-1.81,0.54c-0.95-0.37-1.73-1.01-2.5-1.64
			c-0.31-0.26,0.01-0.45,0.24-0.61c1.63-1.09,3.2-0.72,4.26,0.99C75.41,208.72,75.41,208.95,75.01,209.08z M75.42,218.32
			c1.43-0.47,1.71-0.39,2.57,0.65C77.11,218.94,76.37,218.72,75.42,218.32z M76.68,212.26c-0.32-0.25-0.13-0.48,0.2-0.57
			c0.64-0.17,1.25-0.35,1.82,0.26c0.65,0.7,1.37,1.33,2.06,2.46C78.94,214.08,77.82,213.14,76.68,212.26z M82.93,218.09
			c-0.18-0.1-0.48-0.23-0.35-0.5c0.13-0.29,0.47-0.28,0.71-0.18c0.63,0.28,1.11,0.76,1.8,1.52
			C84.03,218.9,83.51,218.42,82.93,218.09z M82.67,211.44c-0.14-0.17-0.42-0.35-0.25-0.57c0.12-0.16,0.4-0.23,0.62-0.26
			s0.51-0.02,0.67,0.1c1.61,1.12,3.17,2.3,5.07,3.36C86,214.42,84.17,213.28,82.67,211.44z M89.03,217.2
			c1.56,0.15,3.35-0.77,4.72,1.02C91.96,218.54,90.38,218.49,89.03,217.2z M188.07,93.04c0.81-0.12,1.18,0.11,1.14,0.95
			c-0.02,0.39,0,0.78,0,1.17c0.02,0,0.43,1.59-0.1,1.71c-0.61,0.13-1.3-0.2-1.68-0.81c-0.22-0.36-0.33-0.79-0.47-1.19
			C186.38,93.25,186.39,93.28,188.07,93.04z M241.36,234.44c-1.54-0.46-3.21-0.46-4.83-0.82c3.61-0.57,7.27-0.25,10.89-0.73
			C245.49,233.78,243.76,235.15,241.36,234.44z M236.74,223.8c-3.09,1.23-6.39,1.38-9.63,1.75c-2.32,0.27-4.68,0.23-6.79,0.62
			c-0.62,0.05-0.97-0.12-1.31-0.32c-1.53-0.87-2.96-1.85-4.23-3.1c-2.22-2.18-4.9-3.73-7.63-5.17c-4.94-2.6-9.92-5.11-14.85-7.72
			c-6.28-3.33-10.59-8.14-11.41-15.52c-0.43-3.91-1.27-7.8-1.02-11.76c0.22-3.43,1.07-6.77,1.89-10.1c0.26-1.05,0.96-1.86,1.78-2.56
			c2.1-1.8,4.5-3.08,7-4.21c0.4-0.18,0.75-0.12,1.12,0.02c2.46,0.95,5.08,1.44,7.48,2.6c5.48,2.64,11.19,4.79,16.79,7.16
			c4.5,1.9,8.81,4.19,13.12,6.46c8.37,4.41,17.11,7.75,26.33,9.86c2.05,0.47,2.7,1.7,2.2,3.74c-1.79,7.28-4.81,13.98-9.8,19.59
			C244.66,218.66,241.26,221.99,236.74,223.8z M266.71,210.65c-1.68,3.44-3.51,6.82-5.96,9.76c-1.99,2.37-4.61,3.99-7.76,4.57
			c3.33-3.15,6.24-6.59,8.97-10.2c0.99-1.31,1.89-2.67,2.67-4.11c0.63-1.17,0.42-2.62,1.2-3.76c0.13-0.19,0.21-0.41,0.47-0.62
			C266.84,207.7,267.44,209.15,266.71,210.65z M262.45,172.02c-2.16,2.41-5.14,3.63-7.85,5.23c-1,0.6-5.35,1.77-5.73,1.91
			c-0.48,0.18-1.06,0.36-1.04,0.95c0.02,0.67,0.64,0.87,1.19,0.88c0.65,0.02,11.17-1.94,14.36-3.21c0.65-0.26,3.07,0.86,3.65,1.17
			c0.41,0.21,0.8,0.47,1.33,0.78c-1.53,1.02-14.45,2.93-16.29,3c-4.76,0.19-9.35-0.84-13.99-1.73c-5.35-1.03-9.67-4.2-14.5-6.29
			c-6.59-2.86-13.4-5.14-19.99-7.97c-4.73-2.03-9.61-3.73-14.14-6.18c-4.28-2.31-7.6-5.48-9.19-10.29c-1.03-3.1-2.65-6.06-2.58-9.41
			c0.13-7.02,1.27-13.78,6.19-19.26c2.03-2.26,4.66-3.76,7.27-5.26c0.28-0.16,0.51-0.15,0.74,0.05c0.12,0.1,0.25,0.19,0.37,0.29
			c8.25,7.06,18.08,9.93,28.65,11.01c3.52,0.36,6.99,1.25,10.51,1.68c12.93,1.58,25.51,4.78,38.09,8c3.38,0.87,6.24,2.81,9.21,4.51
			c0.14,0.08,0.25,0.18,0.39,0.25c2.56,1.26,3.19,3.55,3.64,6.14c0.32,1.8,0.52,3.59,0.67,5.4c0.13,1.6-0.2,3.1-0.92,4.53
			s-1.49,2.83-2.19,4.27c-0.84,1.74-2.48,2.49-4.06,3.35c1.29-3.34,2.09-6.76,3.02-10.13c0.55-2.01,0.11-4.02,0.08-6.03
			c-0.01-0.61-0.33-1.25-0.81-1.65c-0.87-0.72-1.65-1.46-2.15-2.5c-0.31-0.65-0.93-0.61-1.49-0.18c-0.87,0.68-1.36,1.58-1.57,2.66
			c-0.39,1.95-0.73,3.91-1.2,5.84C270.44,160.71,267.17,166.76,262.45,172.02z M279.02,185.33c-2.6,1.19-4.92,0.27-7.63-0.75
			c2.41-0.77,4.19-2.2,6.67-1.91c2.09,0.25,4.11-0.59,6.14-1.24C282.8,183.2,281.05,184.4,279.02,185.33z M291.83,159.33
			c0.1-1.18,1.12-2.02,1.93-2.85c0.44-0.45,0.61-0.02,0.62,0.37c0.03,0.9,0.11,1.81,0,2.69c-0.47,3.8-1.43,7.49-3.15,10.92
			c-0.79,1.57-2.3,2.43-3.94,3.37c0.03-0.95,0.35-1.56,0.65-2.19C289.79,167.71,291.45,163.74,291.83,159.33z M292.53,115.49
			c-1.27,2.99-2.89,5.79-4.82,8.41c-0.49,0.67-1.07,1.08-1.84,1.33c-3.09,1.01-6.27,1.58-9.5,1.93c-2.17,0.24-4.32,0.49-6.22,1.76
			c-1.56,1.04-3.53,1.26-5.08,2.36c-0.35,0.25-0.75,0.08-1.13-0.01c-11.71-2.98-23.64-4.61-35.62-5.97
			c-7.39-0.84-14.65-2.21-21.62-4.87c-3.64-1.39-7.04-3.15-9.99-5.73c-1.38-1.21-2.78-2.4-4.24-3.5c-3.59-2.68-6.38-6.04-8.86-9.72
			c-0.91-1.35-0.93-2.77-1.07-4.23c-0.09-0.89-0.09-1.79-0.09-2.69c0-0.35-0.16-0.89,0.41-0.94c0.58-0.06,0.49,0.48,0.55,0.84
			c0.32,1.73,0.67,3.45,1.39,5.07c1.06,2.35,2.98,4.06,4.62,5.97c1.8,2.1,4.1,3.7,5.89,5.84c0.8,0.96,2.47,1.34,3.07,0.93
			c0.59-0.4,0.55-1.99-0.25-3.16c-0.85-1.26-1.85-2.41-2.81-3.59c-0.98-1.2-1.63-2.56-2.02-4.05c-0.67-2.56-1.66-5.04-1.87-7.72
			c-0.04-0.53-0.28-1.1,0.6-1.22c5.89-0.85,11.51-2.8,17.24-4.3c3.51-0.92,7.02-1.81,10.7-1.77c2.9,0.03,5.63,0.82,8.32,1.74
			c6.69,2.27,13.27,4.8,19.54,8.1c6.58,3.46,13.74,5.52,20.58,8.37c7.02,2.92,14.32,4.01,21.87,3.54c1.82-0.11,3.63-0.43,5.56-0.67
			C294.71,110.24,293.65,112.87,292.53,115.49z M308.13,105.63c-1.1,3.61-2.24,7.22-3.38,10.82c-0.98,3.08-3.03,5.41-5.36,7.53
			c-0.91,0.83-2.08,0.49-3.13,0.53c-0.48,0.02-0.11-0.5,0.02-0.71c0.72-1.21,1.46-2.4,2.21-3.58c2.69-4.26,4.62-8.84,5.55-13.8
			c0.17-0.91,0.55-1.44,1.47-1.71c0.96-0.28,1.88-0.73,2.93-1.14C308.57,104.38,308.31,105.01,308.13,105.63z M306.08,55.74
			c2.04,0.2,3.65-0.45,5.48-0.73C309.15,56.92,308.24,57.67,306.08,55.74z M318.53,57.4c-0.79,0.24-1.57,0.49-2.2,1.03
			c-0.53,0.45-1.16,0.38-1.78,0.4c-0.81,0.03-1.63,0.07-2.46,0.11c-0.04-0.34,0.24-0.32,0.43-0.38c2.33-0.8,4.54-1.87,6.6-3.2
			c1.3-0.84,2.62-1.27,4.17-1.07c0.79,0.1,1.59,0.02,2.39,0.02c0.01,0.14,0.02,0.28,0.03,0.42
			C323.39,55.81,320.98,56.67,318.53,57.4z M467.47,47.94c-0.14,0.77-0.3,1.57-0.76,2.2c-2.15,2.93-4.38,5.75-7.56,7.71
			c-5.7,3.52-11.92,5.29-18.5,6.14c-8.91,1.15-17.82,0.96-26.75,0.33c-3.98-0.28-7.96-0.12-11.94-0.01
			c-8.91,0.25-17.71,1.67-26.51,2.89c-13.2,1.82-26.43,2.24-39.7,1.61c-4.32-0.2-8.62-0.75-12.93-1.15
			c-0.67-0.06-1.35-1.08-1.22-1.72c0.11-0.53,0.53-0.39,0.84-0.38c1.67,0.08,3.35,0.2,5.02,0.29c1.32,0.07,2.65,0.16,3.97,0.15
			c6.17-0.02,12.33,0.01,18.5,0.01c6.47,0,12.92-0.74,19.38-1.19c3.41-0.24,6.83-0.46,10.25-0.6c6.32-0.26,12.59-1.06,18.86-1.8
			c4.59-0.54,9.2-0.24,13.8-0.29c10.91-0.12,21.87,0.51,32.69-1.5c4.86-0.91,9.42-2.73,13.1-6.1c4.89-4.48,7.26-9.94,5.7-16.72
			c-0.65-2.83-2.52-4.89-4.19-7.07c-0.47-0.6-1.4-1.3-2.1-0.75c-0.57,0.44,0.03,1.37,0.29,2.05c0.05,0.14,0.13,0.3,0.24,0.4
			c1.88,1.83,1.82,4.2,1.75,6.53c-0.05,1.43-0.05,2.88-0.48,4.29c-0.9,2.94-3.05,4.9-5.43,6.54c-4.2,2.89-8.95,4.25-14.01,4.82
			c-9.77,1.1-19.57,0.55-29.36,0.71c-3.35,0.06-6.71-0.21-10.06,0.15c-0.18,0.02-0.37-0.03-0.86-0.07c1.4-1.28,2.59-2.42,3.84-3.49
			c0.22-0.19,0.67-0.17,1.01-0.17c6.13-0.01,12.26-0.12,18.38,0.02c4.84,0.11,9.67,0.19,14.51,0.2c5.51,0.01,10.39-1.9,14.89-4.89
			c1.79-1.19,2.9-2.94,3.21-5.1c0.11-0.73,0.13-1.62-0.6-2.01c-0.63-0.33-1.25,0.23-1.8,0.57c-0.58,0.36-0.98,0.9-1.3,1.49
			c-0.62,1.15-1.58,1.88-2.7,2.5c-4.02,2.19-8.23,3.36-12.87,3.3c-5.75-0.07-11.43-0.79-17.14-1.29c-3.42-0.3-6.86-0.3-10.29-0.31
			c-0.64,0-6.35,0.12-7.93,0.17c0.84-1.06,1.51-1.89,2.17-2.74c0.89-1.14,1.79-2.26,2.65-3.42c0.47-0.63,0.8-1.35,0.8-2.16
			c0-0.33,0.14-0.76-0.25-0.95c-0.36-0.17-0.68,0.11-0.94,0.32c-0.42,0.34-0.85,0.7-1.17,1.13c-2.13,2.87-4.74,5.28-7.31,7.73
			c-0.41,0.39-0.87,0.65-1.43,0.75c-6.34,1.08-12.68,2.19-19.03,3.22c-1.73,0.28-8.33,0.96-9.94,0.88
			c-0.69-0.03-0.83,0.89-0.25,1.55c1.1,1.26,2.58,1.5,4.15,1.51c4.54,0.01,9.03-0.55,13.51-1.2c1.6-0.23,3.21-0.33,4.87-0.33
			c-3.12,2.12-5.82,4.85-10.01,5.01c-5.45,0.22-10.88,0.87-16.33,1.22c-2.27,0.15-4.57,0.02-6.92,0.02c0.9-0.82,1.82-1.65,2.72-2.48
			c2.04-1.88,3.95-3.88,5.73-6.01c0.63-0.75,0.94-1.6,0.97-2.57c0.03-0.93-0.41-1.17-1.24-0.92c-1.01,0.3-1.81,0.89-2.48,1.68
			c-1.02,1.19-2.18,2.23-3.32,3.3c-0.47,0.44-0.82,0.66-1.26-0.05c-0.4-0.64-1.02-1.08-1.73-1.34c-0.68-0.24-0.76-0.53-0.21-1.03
			c2.84-2.57,4.85-5.79,6.86-9c0.46-0.74,0.78-1.52,0.88-2.39c0.04-0.35,0.05-0.76-0.27-0.96c-0.29-0.19-2.11,1.26-2.59,1.93
			c-1.25,1.78-2.49,3.56-4.09,5.18c0.35-1.33-0.32-2.19-1.36-2.54c-1.85-0.61-3.63-1.37-5.78-0.87c-2.58,0.6-5.28,0.31-7.93,0.26
			c-0.53-0.01-0.57-0.27-0.25-0.67c0.69-0.84,4.06-6.97,4.42-7.52c0.51-0.8,1.56-1.85,0.81-2.49c-0.56-0.48-1.51,0.76-2.1,1.47
			c-0.83,0.99-6.18,5.96-7.12,7.05c-1.55,1.78-3.4,2.93-5.84,2.97c-0.63,0.01-1.22,0.24-1.78,0.53c-1.65,0.87-1.69,1.39-0.02,2.54
			c-1.83,1.11-3.6,2.14-5.33,3.23c-2.3,1.45-19.03,4.33-20.16,5.23c-0.5,0.4-0.92,0.38-1.48,0.09c-6.98-3.66-13.98-7.27-20.63-11.53
			c-3.41-2.19-7.03-4.05-10.53-6.1c-1.14-0.67-2.21-1.47-3.31-2.2c-0.63-0.42-0.55-0.74,0.08-1.06c1.6-0.8,3.18-1.66,4.81-2.42
			c2.3-1.08,4.55-2.24,6.57-3.81c0.78-0.6,1.48-1.26,1.87-2.2c0.28-0.68,0.02-0.95-0.64-0.98c-0.6-0.03-1.21,0.05-1.7,0.37
			c-2.91,1.86-6.29,2.27-9.54,3.03c-2.53,0.59-4.96,1.37-7.16,2.77c-1.05,0.67-1.79-0.17-2.57-0.51c-0.68-0.3-0.15-0.97-0.04-1.45
			c1.1-4.85,2.6-9.56,4.8-14.03c0.52-1.05,1.01-2.14,1.07-3.32c0.04-0.77,0.3-0.98,1.06-0.94c3.82,0.2,7.64,0.34,11.46,0.51
			c5.11,0.22,10.21,0.43,15.32,0.64c1.17,0.05,5.55-0.01,6.6-0.06c6.49-0.27,12.95,0.44,19.42,0.51c6.52,0.07,13.02,0.56,19.52,0.77
			c5.57,0.17,11.12,0.71,16.68,0.85c10.68,0.25,21.21,1.83,31.71,3.65c6.7,1.16,13.45,1.92,20.23,2.19
			c11.98,0.49,23.9,1.45,35.76,3.23c3.78,0.57,7.6,0.86,11.33,1.7c2.69,0.61,11.78,2.14,14,17.08
			C467.86,42.79,467.94,45.37,467.47,47.94z M330.13,49.09c1.75-1.41,3.46-2.79,5.18-4.16c0.14-0.11,0.37-0.15,0.56-0.14
			c2.36,0.16,4.74,0.2,7.42,0.72C339.2,48.49,335.13,50.21,330.13,49.09z M339.85,55.37c-2.55,1.37-4.92,2.45-7.32,3.45
			c-0.05-0.09-0.11-0.18-0.16-0.27c1.53-1.12,3.01-2.32,4.6-3.33C337.75,54.74,338.69,55.17,339.85,55.37z M347.28,50.12
			c-1.2-0.04-2.4-0.13-3.71-0.21c0.36-0.92,1.22-1.25,1.7-1.9c1.39-1.86,3.19-2.54,5.48-2.09c1.06,0.21,2.14,0,3.22-0.35
			c-1.46,1.68-3.07,3.12-4.86,4.36C348.57,50.3,347.89,50.14,347.28,50.12z M348.21,55.82c-1.13,0.75-2.16,1.1-3.23,1.37
			C345.86,56.51,346.56,55.47,348.21,55.82z M390.05,56.57c1.89-1.56,3.56-3.06,5.36-4.39c0.71-0.53,1.73-0.27,2.68-0.18
			C395.8,54.06,393.85,56.69,390.05,56.57z"/>
	</g>
</g>
</svg>
