<?xml version="1.0" encoding="utf-8"?>
<!-- Generator: Adobe Illustrator 24.1.2, SVG Export Plug-In . SVG Version: 6.00 Build 0)  -->
<svg version="1.1" id="Layer_1" xmlns="http://www.w3.org/2000/svg" xmlns:xlink="http://www.w3.org/1999/xlink" x="0px" y="0px"
	 viewBox="0 0 473.53 263.47" style="enable-background:new 0 0 473.53 263.47;" xml:space="preserve">
<g id="XMLID_190_">
	<g id="XMLID_4_">
		<path id="XMLID_571_" d="M470.34,82c-0.48-0.21-0.72-0.38-0.98-0.41c-4.12-0.44-7.86-2.23-11.8-3.32
			c-4.87-1.35-9.89-1.83-14.82-2.77c-5.39-1.03-10.83-1.78-16.14-3.27c-3.17-0.89-6.47-1.38-9.7-2.15
			c-1.61-0.38-3.05-1.17-4.57-1.74c-1.79-0.67-3.56-1.36-5.39-1.92c-4.66-1.42-9.21-3.2-13.68-5.12c-1.4-0.6-2.83-0.84-4.29-1.03
			c-0.25-0.03-0.6-0.16-0.73,0.16c-0.11,0.3,0.19,0.5,0.39,0.66c0.43,0.33,0.87,0.67,1.35,0.91c2.85,1.45,5.71,2.88,8.59,4.28
			c0.61,0.3,1.01,0.57,0.58,1.3c-0.1,0.16-0.11,0.37-0.14,0.57c-0.11,0.69-0.31,1.64,0.41,1.85c0.67,0.2,1.31-0.62,1.44-1.29
			c0.28-1.41,0.99-1.14,1.9-0.7c1.36,0.66,2.71,1.34,4.25,1.48c0.94,0.09,1.24,0.62,0.98,1.55c-0.99,3.53-1.48,7.18-2.75,10.64
			c-0.17,0.47-0.23,0.99-0.29,1.49c-0.03,0.25-0.11,0.6,0.22,0.72c0.29,0.1,0.5-0.15,0.7-0.33c0.61-0.58,0.98-1.31,1.26-2.08
			c0.99-2.67,1.96-5.34,2.99-8c0.2-0.51,0.35-1.44,0.92-1.3c0.78,0.2,0.64,1.08,0.55,1.81c-0.3,2.56-0.82,5.08-1.55,7.55
			c-0.12,0.4-0.17,0.84-0.18,1.26c-0.01,0.45-0.11,1.07,0.42,1.22c0.47,0.14,0.83-0.34,1.14-0.69c0.43-0.47,0.69-1.04,0.88-1.64
			c0.34-1.08,0.64-2.17,0.98-3.25c0.11-0.35,0.16-0.9,0.68-0.78c0.52,0.13,0.28,0.64,0.24,1c-0.54,5.12-2.05,9.99-3.72,14.83
			c-0.22,0.63-0.46,1.25-0.47,1.92c0,0.26-0.11,0.61,0.17,0.75c0.35,0.18,0.57-0.16,0.78-0.37c0.85-0.85,1.3-1.94,1.76-3.01
			c1.89-4.46,3.49-9.01,4.24-13.83c0.26-1.66,1.7-2.64,3.37-2.34c0.8,0.14,0.55,0.74,0.31,1.18c-0.47,0.85-1,1.67-1.54,2.49
			c-0.55,0.83-0.88,1.73-1.06,2.7c-1.49,8.04-4.72,15.4-8.76,22.44c-0.39,0.68-0.77,1.36-0.84,2.16c-0.06,0.58,0.19,0.71,0.69,0.46
			c0.77-0.38,1.25-1.03,1.71-1.72c2.42-3.62,3.96-7.69,5.94-11.54c1.78-3.45,2.44-7.34,4.23-10.77c2.26-4.35,7.07-8.2,12.35-7.26
			c6.64,1.18,13.4,1.57,20.05,2.64c4.19,0.67,8.31,1.79,12.47,2.62C467.24,82.31,468.68,82.67,470.34,82z"/>
		<path id="XMLID_570_" d="M314.07,80.42c1.04-0.78,2.09-1.51,3.08-2.31c1.16-0.93,2.31-1.88,3.03-3.21
			c0.16-0.29,0.42-0.68,0.18-0.97c-0.25-0.3-0.65-0.1-0.98,0.01c-0.52,0.17-1.02,0.4-1.45,0.75c-2.81,2.33-6.1,3.92-9.08,5.98
			c-1.58,1.09-3.54,1.42-5.17,2.45c-0.32,0.2-0.83,0.12-1.39,0.19c0.25-0.49,0.64-0.57,0.96-0.67c4.8-1.64,8.37-4.89,11.46-8.77
			c2.58-3.23,5.21-6.42,7.23-10.06c1.75-3.16,4.3-5.61,7.07-7.88c1.1-0.9,2.32-1.77,2.78-3.24c0.1-0.32,0.36-0.68,0.04-0.98
			c-0.25-0.23-0.6-0.08-0.89,0.01c-0.41,0.13-0.87,0.21-1.18,0.47c-2.51,2.12-5.5,3.56-8.01,5.69c-3.69,3.12-6.23,7.17-9.03,11.01
			c-1.42,1.95-2.79,3.96-4.1,5.99c-0.72,1.12-1.65,1.9-2.81,2.54c-3.62,2.01-7.29,3.9-11.24,5.2c-1.01,0.33-1.01,0.35-1.95,0.28
			c0.13-0.39,0.5-0.46,0.78-0.62c2.12-1.17,4.09-2.58,6.07-3.97c0.78-0.55,1.72-1.29,1.61-2.18c-0.29-2.29,1.57-3.46,2.33-5.19
			c0.34-0.79,0.79-1.52,0.8-2.41c0.01-1.04-0.2-1.17-1.16-0.69c-0.64,0.32-1.14,0.81-1.54,1.41c-0.75,1.14-1.55,2.25-2.24,3.43
			c-1.99,3.37-4.95,5.57-8.49,7.05c-1.69,0.71-3.42,1.31-5.13,1.97c-0.51,0.2-1,0.07-1.5-0.02c-1.65-0.29-3.29-0.64-4.95-0.85
			c-0.74-0.1-1.87-0.19-2.05,0.6c-0.15,0.66,0.9,1.08,1.6,1.3c3.27,1.04,6.46,2.33,9.82,3.03c0.54,0.11,8.26,1.03,15.14,0.57
			c5.19-0.35,9.92-1.94,14.52-4.14c3.14-1.49,6.11-3.22,8.74-5.58c2.37-2.13,5.05-3.92,7.6-5.85c0.63-0.48,1.19-1,1.59-1.69
			c0.28-0.48,0.18-0.71-0.41-0.69c-0.77,0.02-1.44,0.32-2.06,0.75c-3.08,2.14-6.14,4.28-9.22,6.41c-3.03,2.1-6.4,3.56-9.8,4.94
			C314.51,80.55,314.32,80.61,314.07,80.42z"/>
		<path id="XMLID_569_" d="M185.39,90.68c5.16-0.11,10.11-1.16,14.93-3.03c5.21-2.03,7.18-7.76,4.95-12.31
			c-2.06-4.18-4.69-7.88-8.21-10.97c-3.43-3-7.43-4.3-11.92-4.37c-5.63-0.09-11.11,0.8-16.49,2.37c-1.57,0.46-3.15,1.02-3.97,2.64
			c-0.13,0.26-0.41,0.57-0.19,0.85c0.22,0.27,0.59,0.09,0.88,0.03c0.26-0.06,0.53-0.14,0.78-0.25c7.83-3.51,15.74-2.72,23.66-0.44
			c1.39,0.4,2.6,1.26,3.72,2.17c3.29,2.67,5.86,5.93,7.57,9.82c1.21,2.75,0.54,5.08-2.1,6.47c-3.58,1.89-7.18,3.79-11.28,4.39
			c-1.2,0.18-2.37,0.5-3.37,1.24c-0.32,0.24-0.87,0.46-0.7,0.95c0.13,0.36,0.65,0.35,1.04,0.4
			C184.92,90.67,185.16,90.67,185.39,90.68z"/>
		<path id="XMLID_568_" d="M237.71,81.96c-2.23,0.59-4.59,0.94-6.82,1.78c-4.64,1.75-9.2,3.67-13.63,5.9
			c-4.7,2.36-9.68,3.9-14.75,5.2c-1.24,0.32-2.5,0.6-3.74,0.93c-1.01,0.27-1.98,0.69-2.25,1.8c-0.14,0.55,1.48,1.45,2.6,1.45
			c1.42-0.01,2.77-0.39,4.12-0.79c6.38-1.86,12.52-4.37,18.62-6.98c5.16-2.21,10.26-4.58,15.38-6.89c0.42-0.19,0.84-0.43,1.19-0.73
			c0.36-0.31,1.04-0.62,0.84-1.13C239.05,81.98,238.32,82.1,237.71,81.96z"/>
		<path id="XMLID_567_" d="M316.89,218.12c-0.41-0.44-0.88-0.52-1.33-0.53c-2.19-0.02-4.33-0.57-6.51-0.69
			c-1.19-0.06-2.25-0.44-3.27-1.12c-0.86-0.58-1.51-1.23-1.78-2.22c-0.33-1.19-1.04-1.93-2.2-2.38c-1.05-0.41-2.01-0.95-2.68-1.98
			c-0.56-0.86-2.49-0.87-3.69-0.12c-1.39,0.87-2.28,2.24-3.33,3.43c-0.63,0.72-0.05,2.35,1.02,3.2c1.32,1.06,2.89,1.66,4.42,2.35
			c4.46,2,9.06,1.57,13.69,1.07c1.32-0.14,2.64-0.22,3.96-0.35C315.8,218.73,316.37,218.63,316.89,218.12z"/>
		<path id="XMLID_566_" d="M216.33,40.44c0.02,0.44,0.28,0.64,0.49,0.85c0.75,0.74,1.72,1.03,2.7,1.31
			c2.43,0.71,4.87,1.42,7.29,2.16c2.47,0.76,4.63,2.01,6.47,3.85c2.42,2.43,4.9,4.81,7.34,7.22c0.74,0.73,1.58,1.26,2.6,1.49
			c0.63,0.14,0.92-0.08,0.73-0.73c-0.12-0.41-0.21-0.87-0.47-1.18c-1.85-2.23-3.11-4.85-4.81-7.19c-4.27-5.87-10.26-8.26-17.2-8.86
			c-1.23-0.11-2.49-0.38-3.71,0.07C217.19,39.66,216.65,39.94,216.33,40.44z"/>
		<path id="XMLID_565_" d="M445.7,85.97c-0.49-0.52-1.03-0.6-1.56-0.65c-2.51-0.22-4.9-0.89-7.23-1.82
			c-2.42-0.96-4.83-0.26-6.61,2.27c-1.03,1.46-2.2,2.82-3.11,4.37c-1.34,2.26-2.41,4.64-3.21,7.13c-0.94,2.92-2.28,5.62-4.15,8.06
			c-1.19,1.56-2.15,3.24-2.93,5.04c-1.33,3.08-2.84,6.08-4.76,8.85c-0.33,0.48-1.01,1.22-0.48,1.62c0.62,0.47,1.29-0.29,1.71-0.82
			c1.08-1.38,2.08-2.82,2.95-4.35c1.25-2.2,2.33-4.52,3.95-6.49c2.58-3.16,4.11-6.84,5.69-10.55c1.36-3.18,3.03-6.24,5.1-9.04
			c0.95-1.28,1.91-2.56,2.78-3.9c0.4-0.61,0.77-0.7,1.44-0.54c2.38,0.57,4.75,1.26,7.22,1.4C443.59,86.62,444.65,86.63,445.7,85.97z
			"/>
		<path id="XMLID_564_" d="M424.37,84.65c-0.12,1.27,0.57,1.51,1.29,1.8c0.75,0.31,1.09,0.05,1.45-0.63
			c0.89-1.7,1.91-3.28,3.69-4.26c0.48-0.26,0.84-0.4,1.38-0.33c4.01,0.52,7.97,1.42,12.01,1.74c3.49,0.27,6.99,0.56,10.48,0.86
			c1.04,0.09,2.08,0.35,3.12-0.03c0.56-0.2,0.69-0.46,0.23-0.9c-0.57-0.55-1.25-0.91-2.02-1.11c-3.06-0.83-6.21-1.08-9.35-1.36
			c-4.77-0.42-9.57-0.47-14.28-1.52c-1.11-0.25-2.25-0.15-3.37,0.02c-1.22,0.18-2.06,0.66-2.68,1.9c-0.52,1.04-1.46,1.9-1.75,3.11
			C424.47,84.26,424.39,84.6,424.37,84.65z"/>
		<path id="XMLID_563_" d="M378.22,155.32c3.8-2.68,6.73-6.27,10.14-9.35c0.83-0.75,1.48-1.6,1.71-2.73
			c0.14-0.71-0.09-0.96-0.81-0.66c-0.55,0.23-1.03,0.55-1.49,0.92c-4.96,3.97-9.67,8.27-15.39,11.2c-0.86,0.44-1.43,1.19-1.77,2.1
			c-0.31,0.82-0.11,1.26,0.83,1.32c2.75,0.2,5.43-0.2,8.13-0.68c2.55-0.44,4.66-1.71,6.68-3.21c0.24-0.17,0.65-0.34,0.55-0.68
			c-0.11-0.37-0.56-0.34-0.9-0.38c-1.05-0.1-2,0.23-2.92,0.69C381.47,154.62,379.87,155.03,378.22,155.32z"/>
		<path id="XMLID_562_" d="M242.24,22.08c6.47-0.39,12.52-2.41,18.52-4.66c0.89-0.33,2.07-0.97,1.84-1.82
			c-0.22-0.79-1.55-0.6-2.41-0.37c-5.85,1.62-11.86,1.69-17.86,1.81c-1.53,0.03-2.96,0.29-4.06,1.45c-0.84,0.88-0.82,1.6,0.08,2.41
			C239.46,21.87,240.78,22.23,242.24,22.08z"/>
		<path id="XMLID_561_" d="M423.62,180.01c0.79,0.64,1.62,0.62,2.43,0.59c2.18-0.09,4.36-0.19,6.54-0.38c1.34-0.11,2.65,0,3.95,0.23
			c5.79,1.02,11.25,3.16,16.77,5.07c1.06,0.37,2.09,0.56,3.2,0.2c0.88-0.29,0.97-0.76,0.52-1.49c-0.43-0.69-0.99-1.24-1.73-1.52
			c-4.19-1.6-8.39-3.18-12.84-3.94c-4.62-0.79-9.24-0.58-13.86,0.09c-1.08,0.16-2.17,0.23-3.25,0.36
			C424.73,179.29,424.14,179.46,423.62,180.01z"/>
		<path id="XMLID_560_" d="M359.46,158.54c0.94,0.04,1.57-0.16,2.17-0.45c5.87-2.82,11.36-6.21,16.15-10.66
			c0.74-0.69,1.47-1.4,1.84-2.39c0.14-0.37,0.36-0.78,0.12-1.12c-0.3-0.42-0.8-0.17-1.2-0.1c-0.63,0.11-1.16,0.44-1.65,0.85
			c-5,4.28-10.7,7.4-16.75,9.89c-0.85,0.35-1.59,0.83-2.13,1.58c-0.9,1.26-0.61,2,0.89,2.31
			C359.17,158.53,359.45,158.54,359.46,158.54z"/>
		<path id="XMLID_559_" d="M462.73,193.93c0.68-0.02,1.16,0.03,1.41-0.41c0.26-0.46-0.1-0.81-0.31-1.17
			c-0.29-0.49-0.73-0.81-1.23-1.04c-1.2-0.56-2.37-1.2-3.62-1.65c-4.58-1.66-9.06-3.58-13.76-4.9c-2.67-0.75-5.38-0.83-8.09-1.02
			c-0.34-0.02-0.7,0.08-1.03,0.17c-0.47,0.13-1.2,0.17-1.18,0.74c0.02,0.52,0.73,0.64,1.21,0.75c0.79,0.19,1.6,0.31,2.41,0.42
			c4.34,0.56,8.35,2.16,12.37,3.8c3.53,1.44,7.13,2.74,10.7,4.08C462.04,193.85,462.51,193.88,462.73,193.93z"/>
		<path id="XMLID_558_" d="M337.27,211.27c-0.84-0.4-1.55-0.44-2.3-0.33c-7.37,1.03-14.78,1.7-22.21,2.03
			c-1.01,0.04-2.03-0.01-3.04,0c-1,0.01-1.92,0.29-2.68,0.98c-0.51,0.46-0.53,0.88,0.03,1.34c1.01,0.83,2.18,0.97,3.42,0.85
			c4.19-0.39,8.37-0.81,12.53-1.47c3.88-0.62,7.8-1.03,11.62-2.03C335.56,212.38,336.51,212.14,337.27,211.27z"/>
		<path id="XMLID_557_" d="M315.98,210.58c0.28-0.12,0.68-0.19,0.68-0.55s-0.4-0.46-0.67-0.55c-1.87-0.57-3.81-0.71-5.73-1
			c-2.44-0.37-4.66-1.19-6.68-2.58c-0.85-0.58-0.71-1.42-0.46-2.21c0.41-1.34,0.76-2.7,0.94-4.09c0.15-1.08-0.01-2.09-0.6-3.03
			c-0.27-0.43-0.51-0.45-0.72,0.04c-1.12,2.6-2.29,5.18-3.34,7.81c-0.48,1.21,0.44,3.24,1.72,4.06c1.87,1.19,3.93,1.93,6.14,2.05
			C309.09,210.63,314.93,211.03,315.98,210.58z"/>
		<path id="XMLID_556_" d="M273.52,78c1.95-2.56,4.15-4.85,6.96-6.51c0.61-0.36,1.1-0.87,1.46-1.49c0.33-0.56,0.22-0.86-0.48-0.89
			c-0.94-0.05-1.77,0.27-2.54,0.74c-3.11,1.9-6.08,3.96-7.99,7.19c-0.25,0.43-0.58,0.33-0.9,0.27c-2.3-0.42-4.59-0.08-6.88,0.03
			c-0.84,0.04-1.6,0.32-2.27,0.84c-0.51,0.4-0.57,0.75,0.12,0.95c0.63,0.18,1.28,0.39,1.93,0.42c2.5,0.11,4.96,0.41,7.42,0.85
			C272.26,80.76,273.28,78.31,273.52,78z"/>
		<path id="XMLID_555_" d="M447.91,227.87c-0.35,0.1-1.08-0.21-1.24,0.3c-0.17,0.53,0.46,0.92,0.87,1.28
			c0.94,0.81,2.13,1.12,3.23,1.62c4.33,1.96,8.75,3.7,13.3,5.12c1.45,0.45,2.91,0.9,4.4,1.15c0.79,0.14,1.92,0.2,2.17-0.6
			c0.19-0.62-0.82-1.16-1.48-1.43c-1.3-0.52-2.66-0.88-3.98-1.35c-5.02-1.8-9.86-4.1-14.96-5.68
			C449.49,228.06,448.79,227.84,447.91,227.87z"/>
		<path id="XMLID_554_" d="M338.99,170.04c0.92-0.02,1.64-0.3,2.35-0.63c3.67-1.68,6.94-4.04,10.39-6.1
			c1.06-0.63,1.86-2.23,1.55-2.82c-0.31-0.59-2.06-0.64-3.16,0.12c-3.38,2.3-7.08,3.94-10.84,5.48c-0.77,0.32-1.4,0.85-1.86,1.56
			c-0.82,1.27-0.58,1.9,0.87,2.27C338.56,169.98,338.83,170.01,338.99,170.04z"/>
		<path id="XMLID_553_" d="M340.32,181.29c0.82,0.02,1.42-0.14,1.99-0.41c4.77-2.32,9.53-4.65,13.83-7.8
			c0.69-0.5,1.41-0.96,1.9-1.71c0.38-0.59,0.31-1.19-0.07-1.62c-0.39-0.45-0.88,0.01-1.24,0.24c-2.51,1.58-5.14,2.94-7.72,4.4
			c-2.35,1.33-4.84,2.33-7.28,3.44c-0.79,0.36-1.52,0.8-2.12,1.43c-0.41,0.43-0.84,0.93-0.56,1.54
			C339.31,181.38,339.97,181.25,340.32,181.29z"/>
		<path id="XMLID_552_" d="M358.2,145.39c0.78-0.07,1.47-0.29,2.14-0.64c5.18-2.73,9.64-6.47,14.17-10.11
			c0.46-0.37,0.75-0.89,1.01-1.42c0.21-0.43,0.24-0.89-0.05-1.21c-0.36-0.39-0.73,0.04-1.01,0.23c-2.29,1.55-4.57,3.12-6.85,4.7
			c-2.82,1.96-5.65,3.91-8.69,5.51c-0.63,0.33-1.19,0.75-1.58,1.37c-0.22,0.36-0.62,0.74-0.39,1.16
			C357.2,145.43,357.77,145.35,358.2,145.39z"/>
		<path id="XMLID_551_" d="M234.65,40.03c0.21,0.83,0.66,1.54,1.29,2.15c1.26,1.22,2.47,2.49,3.75,3.69
			c1.89,1.77,3.61,3.66,4.89,5.93c0.49,0.86,1.17,1.54,2.15,1.89c0.62,0.22,0.91,0.13,0.74-0.59c-0.02-0.08-0.02-0.16-0.05-0.23
			c-2.24-5.01-4.52-9.98-9.75-12.7c-0.79-0.41-1.58-0.66-2.46-0.58C234.96,39.61,234.63,39.58,234.65,40.03z"/>
		<path id="XMLID_550_" d="M357.23,212.32c-0.69-1.09-1.38-1.43-2.61-1.16c-6.25,1.36-12.52,2.58-18.87,3.41
			c-0.97,0.13-1.93,0.3-2.74,0.92c-0.53,0.4-0.57,0.69,0.12,0.95c0.72,0.27,1.46,0.28,2.19,0.16c6.93-1.12,13.86-2.22,20.67-3.92
			C356.37,212.58,356.74,212.46,357.23,212.32z"/>
		<path id="XMLID_549_" d="M359.8,210.83c0.8,0.27,1.5,0.19,2.18,0.1c2.66-0.36,5.32-0.75,7.95-1.36c2.76-0.64,5.55-1.1,8.31-1.71
			c1.03-0.23,1.98-0.72,2.74-1.49c0.24-0.24,0.57-0.51,0.4-0.9c-0.15-0.34-0.55-0.23-0.84-0.25c-2.21-0.12-4.3,0.59-6.42,1
			c-4.37,0.84-8.48,2.65-12.83,3.57C360.73,209.91,360.18,210.16,359.8,210.83z"/>
		<path id="XMLID_548_" d="M398.5,139.35c0.03,0.27,0.06,0.54,0.1,0.81c0.05,0.37,0.22,0.72,0.56,0.83
			c0.38,0.13,0.51-0.28,0.69-0.51c3.24-4.17,5.93-8.69,8.53-13.28c0.4-0.71,0.67-1.49,0.54-2.35c-0.1-0.68-0.37-0.9-1-0.46
			c-0.62,0.44-1.05,1.03-1.42,1.68c-2.38,4.17-4.85,8.28-7.57,12.23C398.72,138.62,398.42,138.91,398.5,139.35z"/>
		<path id="XMLID_547_" d="M440.38,192.99c0.94-0.07,1.95-0.01,2.2-0.83c0.25-0.85-0.67-1.33-1.31-1.72
			c-1.15-0.69-2.45-1.02-3.78-1.13c-1.99-0.17-3.98-0.07-5.97,0c-0.94,0.03-1.74,0.41-2.43,1.02c-0.61,0.54-0.46,0.93,0.27,1.15
			c0.6,0.18,1.21,0.29,1.84,0.27c2.75-0.08,5.45,0.19,8.07,1.06C439.68,192.94,440.12,192.94,440.38,192.99z"/>
		<path id="XMLID_546_" d="M428.91,96.89c-1.13,1.27-1.78,2.56-2.19,3.99c-0.99,3.5-3,6.47-4.85,9.53c-0.68,1.13-1.29,2.32-1.28,3.7
			c0.01,0.44-0.13,1.1,0.39,1.22c0.45,0.1,0.74-0.49,0.96-0.89c0.69-1.26,1.2-2.61,2.02-3.8c0.4-0.58,0.69-1.24,1.14-1.76
			c1.97-2.28,2.77-5,3.14-7.9C428.42,99.68,428.9,98.44,428.91,96.89z"/>
		<path id="XMLID_545_" d="M338.52,176.25c4.05-1.29,7.95-2.87,10.76-6.32c0.16-0.2,0.38-0.46,0.24-0.74
			c-0.2-0.39-0.55-0.11-0.84-0.1c-0.19,0.01-0.39,0.05-0.57,0.13c-3.02,1.35-6.01,2.75-9.16,3.8c-0.93,0.31-1.42,1.3-2.05,2.04
			c-0.35,0.41-0.16,0.69,0.3,0.88C337.62,176.1,338.04,176.16,338.52,176.25z"/>
		<path id="XMLID_544_" d="M423.15,89.19c-1.03-0.07-1.45,0.64-1.71,1.45c-0.38,1.19-0.67,2.4-1.03,3.59
			c-0.5,1.69-1.25,3.27-1.92,4.89c-0.24,0.59-0.63,1.44,0,1.79c0.52,0.29,1.08-0.46,1.47-0.92c0.38-0.44,0.72-0.94,0.95-1.46
			c0.94-2.14,2.32-4.05,3.3-6.17c0.2-0.42,0.38-0.86,0.48-1.31C424.99,89.67,424.58,89.21,423.15,89.19z"/>
		<path id="XMLID_543_" d="M406.61,135.69c0.81-0.18,1.27-0.66,1.65-1.19c3.21-4.36,6.54-8.63,9.34-13.29
			c0.41-0.68,0.67-1.41,0.73-2.19c0.02-0.27,0.01-0.59-0.3-0.7c-0.24-0.09-0.44,0.11-0.62,0.26c-0.42,0.35-0.76,0.78-1.02,1.27
			c-2.7,4.93-6.1,9.41-9.08,14.16C407.02,134.49,406.59,134.92,406.61,135.69z"/>
		<path id="XMLID_542_" d="M365.26,125.33c0.79-0.04,1.37-0.26,1.9-0.6c3.13-2.03,5.79-4.61,8.36-7.28c0.58-0.6,1.28-1.63,0.71-2.23
			c-0.51-0.53-1.54,0.19-2.13,0.74c-2.7,2.53-5.34,5.13-8.34,7.33c-0.41,0.3-0.67,0.75-0.89,1.22
			C364.6,125.06,364.64,125.43,365.26,125.33z"/>
		<path id="XMLID_541_" d="M453.47,226.18c0.5,0,0.65,0.02,0.81,0c0.38-0.05,0.87-0.03,0.96-0.49c0.07-0.36-0.32-0.61-0.62-0.78
			c-0.4-0.23-0.82-0.46-1.26-0.58c-4.22-1.14-8.28-2.76-12.32-4.4c-0.32-0.13-0.66-0.24-1-0.32c-0.5-0.11-1.11-0.25-1.31,0.37
			c-0.17,0.53,0.35,0.87,0.76,1.04C443.88,222.8,453.46,226.18,453.47,226.18z"/>
		<path id="XMLID_540_" d="M285.61,79.87c0.6,0.02,1.14-0.21,1.68-0.44c3.23-1.35,6.05-3.38,8.89-5.36c0.6-0.42,1.44-1.14,1.09-1.74
			c-0.34-0.57-1.31,0.01-1.89,0.33c-3.24,1.8-6.44,3.66-9.92,4.95c-0.18,0.07-0.36,0.17-0.5,0.31c-0.43,0.41-1.28,0.71-1.03,1.37
			C284.15,79.87,284.98,79.85,285.61,79.87z"/>
		<path id="XMLID_539_" d="M351.5,103.32c-0.6,0-1.36,0.2-2,0.67c-1.49,1.07-2.96,2.16-4.41,3.28c-0.36,0.28-0.65,0.68-0.88,1.07
			c-0.24,0.41-0.69,0.9-0.3,1.37c0.33,0.4,0.93,0.35,1.43,0.28c0.62-0.09,1.22-0.27,1.74-0.65c1.42-1.02,2.85-2.05,4.25-3.1
			c0.57-0.43,0.98-1,1.25-1.67C352.97,103.61,352.78,103.34,351.5,103.32z"/>
		<path id="XMLID_538_" d="M352.05,95.44c0.75-0.06,1.47-0.26,2.04-0.77c2.05-1.85,4.09-3.71,6.12-5.59
			c0.64-0.59,1.07-1.33,1.23-2.21c0.1-0.55-0.11-0.74-0.64-0.53c-0.55,0.22-1.06,0.5-1.48,0.91c-1.99,1.92-4.24,3.54-6.35,5.33
			c-0.66,0.56-1.28,1.15-1.54,2.01C351.22,95.26,351.35,95.43,352.05,95.44z"/>
		<path id="XMLID_537_" d="M379.9,202.77c1.42-0.17,2.89-0.36,4.31-0.78c2.24-0.66,4.47-1.36,6.68-2.1c0.77-0.26,1.5-0.64,2.21-1.04
			c0.39-0.22,0.91-0.57,0.71-1.07c-0.2-0.51-0.82-0.52-1.33-0.46c-0.26,0.03-0.54,0.13-0.76,0.27c-3.65,2.18-7.68,3.09-11.83,3.66
			c-0.04,0.01-0.08,0-0.12,0.01c-0.63,0.16-1.62,0.25-1.58,0.89C378.23,202.87,379.21,202.71,379.9,202.77z"/>
		<path id="XMLID_536_" d="M256.78,11.25c-1.52,0.34-3.34,0.29-4.73,1.59c-1.04,0.98-0.92,1.68,0.38,2.27
			c1.88,0.85,5.16-0.19,6.23-1.98c0.73-1.22,0.54-1.62-0.88-1.81C257.52,11.29,257.25,11.28,256.78,11.25z"/>
		<path id="XMLID_535_" d="M364.57,110.8c0.82-0.02,1.51-0.26,1.92-0.86c0.96-1.43,2.41-2.29,3.7-3.34c1.82-1.48,3.48-3.1,4.96-4.92
			c0.23-0.29,0.62-0.66,0.26-1.02c-0.43-0.44-0.78,0.01-1.06,0.31c-2.78,2.92-6.18,5.08-9.23,7.68c-0.42,0.36-0.8,0.73-1.05,1.23
			C363.76,110.5,363.89,110.85,364.57,110.8z"/>
		<path id="XMLID_534_" d="M345.85,185.03c2.34-0.84,4.76-1.58,6.4-3.69c0.32-0.41,0.69-1.02,0.29-1.48
			c-0.31-0.35-0.91-0.05-1.31,0.13c-1.79,0.84-3.56,1.73-5.32,2.64c-0.33,0.17-0.61,0.48-0.86,0.77c-0.26,0.32-0.71,0.65-0.53,1.09
			C344.73,185,345.35,184.78,345.85,185.03z"/>
		<path id="XMLID_533_" d="M390.4,201.91c-1.56,0.37-3.3,1.18-4.89,2.31c-0.41,0.29-0.34,0.55,0.08,0.79
			c0.48,0.28,1.01,0.48,1.54,0.48c1.47-0.02,2.96-0.06,4.31-0.74c0.71-0.36,1.69-0.81,1.45-1.72
			C392.67,202.14,391.67,201.93,390.4,201.91z"/>
		<path id="XMLID_532_" d="M416.19,176.99c0.57-0.02,0.94-0.01,1.07-0.33c0.14-0.35-0.18-0.61-0.43-0.75
			c-2.58-1.45-4.85-3.34-7.23-5.06c-0.15-0.11-0.35-0.19-0.54-0.21c-0.4-0.05-0.92-0.31-1.17,0.14c-0.21,0.38,0.18,0.74,0.45,0.99
			c2,1.78,3.93,3.66,6.42,4.78C415.3,176.77,415.87,176.89,416.19,176.99z"/>
		<path id="XMLID_531_" d="M432.04,95.13c0.05,0.39-0.11,0.94,0.31,1.07c0.47,0.15,0.6-0.43,0.74-0.74c0.91-2.09,2.18-3.94,3.7-5.63
			c0.63-0.7,1.03-1.55,1.06-2.54c0.01-0.55-0.19-0.73-0.7-0.47c-0.21,0.11-0.43,0.22-0.59,0.38c-2.08,2.05-3.81,4.32-4.46,7.26
			C432.05,94.67,432.05,94.91,432.04,95.13z"/>
		<path id="XMLID_530_" d="M284.96,73.72c-0.3,0.03-0.55,0.01-0.76,0.09c-2.21,0.9-4.3,2-5.95,3.77c-0.22,0.24-0.57,0.52-0.39,0.89
			c0.16,0.33,0.58,0.35,0.93,0.4c0.77,0.11,1.47-0.15,2.1-0.56c1.56-1.03,3.08-2.12,4.49-3.34c0.3-0.26,0.85-0.5,0.6-0.99
			C285.79,73.6,285.27,73.81,284.96,73.72z"/>
		<path id="XMLID_529_" d="M354.71,166.49c2.26-0.34,4.29-1.17,5.7-3.12c0.22-0.3,0.48-0.7,0.26-1.07
			c-0.23-0.39-0.71-0.28-1.07-0.21c-2.14,0.43-3.98,1.48-5.62,2.87c-0.31,0.26-0.71,0.67-0.56,1.08
			C353.62,166.54,354.23,166.36,354.71,166.49z"/>
		<path id="XMLID_528_" d="M355.79,179.17c0.94-0.02,1.54-0.18,2.09-0.49c1.23-0.69,2.36-1.51,3.38-2.49
			c0.2-0.19,0.38-0.4,0.52-0.63c0.38-0.6,0.88-1.4,0.41-1.9c-0.42-0.44-1.14,0.22-1.6,0.57c-1.22,0.91-2.48,1.75-3.78,2.53
			c-0.54,0.33-0.95,0.79-1.29,1.33C355.08,178.8,355.19,179.2,355.79,179.17z"/>
		<path id="XMLID_527_" d="M423.46,118.31c-0.61,0.39-0.89,0.87-1.1,1.36c-1.08,2.54-2.8,4.65-4.58,6.71
			c-0.41,0.47-0.79,0.96-1.01,1.55c-0.08,0.22-0.23,0.46-0.03,0.65c0.27,0.26,0.5-0.03,0.71-0.16c0.17-0.1,0.32-0.23,0.45-0.37
			c2.05-2.19,3.99-4.46,5.19-7.26C423.43,120.03,423.66,119.27,423.46,118.31z"/>
		<path id="XMLID_526_" d="M462.51,186.25c-0.71,0.05-1.63-0.16-1.82,0.52c-0.16,0.56,0.69,0.95,1.21,1.26
			c0.97,0.58,1.94,1.17,3.08,1.38c0.87,0.16,1.88-0.04,2.16-0.73c0.32-0.79-0.62-1.3-1.29-1.7
			C464.8,186.34,463.61,186.37,462.51,186.25z"/>
		<path id="XMLID_525_" d="M322.78,218.3c1.04,0.17,4.12-0.9,4.16-1.33c0.04-0.44-0.18-0.82-0.6-0.88c-1.8-0.27-3.62-0.52-5.35,0.28
			c-0.54,0.25-1.34,0.59-1.19,1.23c0.14,0.59,0.99,0.63,1.6,0.69C321.78,218.33,322.17,218.3,322.78,218.3z"/>
		<path id="XMLID_524_" d="M267.38,74.27c-0.09,0.64,0.22,0.92,0.93,0.91c1.76-0.04,3.44-1.7,3.48-3.46
			c0.02-0.77-0.34-1.02-1.07-0.99C269.03,70.81,267.41,72.48,267.38,74.27z"/>
		<path id="XMLID_523_" d="M408.4,101.71c-0.13-0.54,0.08-1.01-0.3-1.16c-0.39-0.15-0.62,0.28-0.79,0.56
			c-1.03,1.65-1.96,3.35-3.1,4.93c-0.41,0.56-0.03,1.21,0.1,1.79c0.08,0.35,0.54,0.44,0.75,0.13
			C406.41,105.94,407.95,104.01,408.4,101.71z"/>
		<path id="XMLID_522_" d="M374.62,111.02c0.59-0.08,1.08-0.25,1.49-0.55c1.53-1.14,3.01-2.35,4.32-3.74c0.47-0.5,1.12-1.3,0.68-1.8
			c-0.38-0.44-1.18,0.26-1.66,0.66c-1.47,1.21-2.92,2.46-4.35,3.71c-0.32,0.28-0.56,0.64-0.81,0.99c-0.13,0.18-0.32,0.41-0.14,0.62
			C374.25,111.02,374.51,110.99,374.62,111.02z"/>
		<path id="XMLID_521_" d="M363.57,180.59c1.8-0.02,4.66-2.06,5.07-3.63c0.11-0.43,0.33-1.13-0.52-0.81
			c-1.94,0.73-3.76,1.71-5.19,3.26c-0.22,0.24-0.47,0.55-0.34,0.94C362.68,180.55,362.94,180.6,363.57,180.59z"/>
		<path id="XMLID_520_" d="M385.55,139.11c1.74,0.02,4.34-2.23,4.58-3.87c0.11-0.7-0.16-0.85-0.77-0.66
			c-1.88,0.59-3.38,1.69-4.41,3.38C384.5,138.72,384.71,139.13,385.55,139.11z"/>
		<path id="XMLID_519_" d="M416.34,104.39c-0.06-0.36,0.12-0.9-0.3-1.13c-0.49-0.27-0.89,0.18-1.21,0.48
			c-1.13,1.07-1.93,2.33-2.02,3.94c-0.05,0.92,0.36,1.09,1.15,0.75C415.31,107.84,416.35,106.11,416.34,104.39z"/>
		<path id="XMLID_518_" d="M381.1,127.72c1.2-0.13,2.08-0.86,2.95-1.58c0.78-0.64,1.54-1.32,2.28-2c0.24-0.22,0.63-0.48,0.2-0.85
			c-0.33-0.29-0.8-0.89-1.15-0.55c-1.53,1.48-3.62,2.36-4.74,4.29c-0.11,0.2-0.27,0.41-0.09,0.64
			C380.7,127.86,380.91,127.76,381.1,127.72z"/>
		<path id="XMLID_517_" d="M428.38,183.92c-1.49,0.34-3.11,0.24-4.42,1.23c-0.26,0.2-0.69,0.39-0.58,0.78
			c0.11,0.37,0.6,0.4,0.9,0.38c1.93-0.12,3.84-0.44,5.63-1.21c0.2-0.09,0.46-0.2,0.44-0.48c-0.02-0.27-0.28-0.35-0.49-0.43
			C429.39,183.99,428.9,183.88,428.38,183.92z"/>
		<path id="XMLID_516_" d="M305.7,73.91c1.7,0.01,4.17-1.99,4.45-3.48c0.09-0.49-0.08-0.72-0.53-0.58
			c-1.77,0.55-3.44,1.27-4.42,2.99C304.79,73.55,304.99,73.93,305.7,73.91z"/>
		<path id="XMLID_515_" d="M389.7,150.56c1.47,0.03,3.05-1.01,3.61-2.35c0.28-0.67,0.17-1.02-0.62-1.07
			c-1.47-0.08-3.17,1.01-3.68,2.41C388.73,150.31,388.89,150.54,389.7,150.56z"/>
		<path id="XMLID_514_" d="M356.91,101.42c1.35,0,2.53-0.77,3.04-1.99c0.4-0.96,0.18-1.32-0.83-1.34c-1.32-0.02-2.55,0.76-3.07,1.95
			C355.6,101.08,355.82,101.42,356.91,101.42z"/>
		<path id="XMLID_513_" d="M362.56,167.45c1.4-0.19,2.7-0.83,3.44-2.34c0.4-0.8,0.1-1.08-0.72-0.96c-1.4,0.21-2.54,0.93-3.53,1.89
			c-0.3,0.29-0.75,0.67-0.56,1.07C361.36,167.49,361.93,167.44,362.56,167.45z"/>
		<path id="XMLID_512_" d="M434.41,218.28c-0.35-0.41-0.42-0.56-0.54-0.63c-1.86-1.06-3.88-1.52-6-1.64
			c-0.18-0.01-0.42-0.03-0.51,0.19c-0.08,0.22,0.08,0.38,0.24,0.48C429.6,217.93,431.74,218.49,434.41,218.28z"/>
		<path id="XMLID_511_" d="M358.54,116.14c1.29-0.01,2.69-1.12,2.94-2.31c0.15-0.71-0.02-1.14-0.88-1.03
			c-1.23,0.16-2.44,1.2-2.73,2.39C357.72,115.81,357.87,116.18,358.54,116.14z"/>
		<path id="XMLID_510_" d="M368.99,116.55c1.29-0.03,2.59-1.17,2.79-2.42c0.1-0.65-0.14-0.95-0.82-0.9
			c-1.21,0.08-2.48,1.14-2.78,2.32C367.99,116.28,368.28,116.58,368.99,116.55z"/>
		<path id="XMLID_509_" d="M404.39,72.76c-0.08-0.39,0.13-1.03-0.36-1.2c-0.48-0.17-0.78,0.4-1.08,0.74
			c-0.74,0.84-1.17,1.82-1.15,2.96c0.01,0.3-0.09,0.68,0.21,0.86c0.36,0.21,0.67-0.09,0.94-0.28
			C403.97,75.09,404.4,74.06,404.39,72.76z"/>
		<path id="XMLID_508_" d="M369.82,99.53c1.28,0,2.56-1.01,2.87-2.21c0.23-0.87-0.15-1.17-0.96-1c-1.29,0.27-2.1,1.07-2.54,2.29
			C368.96,99.28,369.17,99.58,369.82,99.53z"/>
		<path id="XMLID_507_" d="M245.14,81.76c1.33,0.05,2.17-0.31,2.89-0.97c0.45-0.42,0.48-0.76-0.13-1.06
			c-1.23-0.61-3.11-0.15-3.92,0.97c-0.31,0.43-0.28,0.72,0.24,0.87C244.63,81.68,245.05,81.74,245.14,81.76z"/>
		<path id="XMLID_506_" d="M343.12,211.66c1.05-0.13,1.9-0.46,2.44-1.34c0.13-0.21,0.2-0.48-0.04-0.63
			c-0.85-0.53-1.76-0.57-2.69-0.22c-0.04,0.01-0.07,0.03-0.11,0.05c-0.57,0.32-1.45,0.61-1.3,1.31
			C341.57,211.59,342.54,211.48,343.12,211.66z"/>
		<path id="XMLID_505_" d="M309.35,162.95c-0.41,0.11-1.13-0.19-1.28,0.38c-0.13,0.49,0.46,0.86,0.88,1.11
			c1.16,0.7,2.38,0.89,3.65,0.31c0.2-0.09,0.48-0.24,0.52-0.41c0.07-0.31-0.28-0.42-0.5-0.54
			C311.62,163.25,310.54,162.98,309.35,162.95z"/>
		<path id="XMLID_504_" d="M466.33,230.17c0.36-0.06,0.93,0.04,1.07-0.42c0.15-0.48-0.37-0.74-0.73-0.92
			c-1.01-0.5-2.03-0.98-3.2-0.91c-0.58,0.04-0.67,0.24-0.34,0.72C463.72,229.49,465.09,230.17,466.33,230.17z"/>
		<path id="XMLID_503_" d="M425.54,202.92c-1.18-1.45-2.53-1.98-4.14-1.91c-0.22,0.01-0.52-0.05-0.6,0.24
			c-0.07,0.25,0.16,0.42,0.33,0.58C422.34,202.91,423.74,203.29,425.54,202.92z"/>
		<path id="XMLID_502_" d="M409.59,113.85c-0.03,0.56,0.3,0.64,0.76,0.59c0.98-0.11,1.99-1.09,2.13-2.06
			c0.06-0.43,0.03-0.78-0.54-0.8C411,111.54,409.58,112.91,409.59,113.85z"/>
		<path id="XMLID_501_" d="M323.79,72.22c1.05-0.09,1.84-0.59,2.24-1.59c0.34-0.85,0.06-1.2-0.83-1.05c-1,0.17-1.66,0.76-2.08,1.68
			C322.79,71.98,323.01,72.28,323.79,72.22z"/>
		<path id="XMLID_500_" d="M340.6,86.37c1.09-0.04,2.06-0.97,2.08-1.85c0.01-0.62-0.38-0.67-0.85-0.66
			c-0.98,0.02-2.11,1.06-2.05,1.89C339.82,86.38,340.32,86.29,340.6,86.37z"/>
		<path id="XMLID_499_" d="M353.6,83.21c0.07,0.76,0.48,1.25,1.24,1.26c0.7,0.01,1.18-0.46,1.2-1.16c0.03-0.76-0.45-1.25-1.21-1.26
			C354.11,82.04,353.73,82.52,353.6,83.21z"/>
		<path id="XMLID_498_" d="M379.27,98.04c0.81-0.02,2.09-1.04,1.99-1.69c-0.06-0.39,0.01-1.03-0.68-1.02c-0.66,0-1.87,1.46-1.89,2.2
			C378.67,97.97,378.9,98.07,379.27,98.04z"/>
		<path id="XMLID_497_" d="M412.19,178.02c-0.39,0.08-1.15-0.03-1.06,0.62c0.12,0.86,0.89,1.21,1.73,1.19
			c0.48-0.01,1.09,0.08,1.17-0.61C414.09,178.67,413.1,178.03,412.19,178.02z"/>
		<path id="XMLID_496_" d="M417.57,189.41c0,0.5,0.3,0.67,0.75,0.68c0.79,0.01,1.8-0.78,1.77-1.42c-0.02-0.58-0.45-0.67-0.9-0.66
			C418.37,188.03,417.56,188.74,417.57,189.41z"/>
		<path id="XMLID_495_" d="M406.73,90.16c0.05,0.34-0.04,0.8,0.52,0.86c0.59,0.07,1.34-0.89,1.3-1.68
			c-0.02-0.42-0.03-1.02-0.63-0.88C407.12,88.65,406.74,89.3,406.73,90.16z"/>
		<path id="XMLID_494_" d="M387.58,196.27c0.79-0.01,1.5-0.18,1.6-0.86c0.09-0.65-0.65-0.69-1.12-0.66c-0.66,0.04-1.44,0.23-1.49,1
			C386.55,196.31,387.28,196.18,387.58,196.27z"/>
		<path id="XMLID_493_" d="M404.62,139.7c-0.64-0.06-1.76,1.43-1.55,2.06c0.08,0.24,0.23,0.29,0.44,0.22
			c0.87-0.29,1.28-0.96,1.45-1.8C405.01,139.93,404.94,139.71,404.62,139.7z"/>
		<path id="XMLID_492_" d="M364.25,94.98c-0.79,0.13-1.32,0.54-1.43,1.33c-0.05,0.38,0.29,0.42,0.57,0.38
			c0.76-0.12,1.29-0.6,1.5-1.29C365,95.01,364.52,95.02,364.25,94.98z"/>
		<path id="XMLID_491_" d="M365.95,102.9c0.66-0.12,1.16-0.43,1.19-1.19c0.02-0.43-0.29-0.53-0.63-0.48c-0.7,0.1-1.15,0.49-1.22,1.2
			C365.26,102.86,365.59,102.92,365.95,102.9z"/>
		<path id="XMLID_490_" d="M138.65,14.73c-0.76-0.47-1.44-0.46-2.09-0.38c-5.05,0.63-10.13,0.37-15.19,0.34
			c-9.44-0.06-18.76,0.9-28.03,2.54c-1.11,0.2-2.25,0.26-3.34,0.53c-0.98,0.24-2.27,0.71-2.09,1.83c0.16,1.02,1.49,1.3,2.52,1.23
			c2.69-0.18,5.32-0.76,7.97-1.25c7.38-1.36,14.86-1.74,22.31-2.49c5.2-0.53,10.43-0.59,15.61-1.36
			C137.13,15.59,137.87,15.31,138.65,14.73z"/>
		<path id="XMLID_489_" d="M100.55,45.71c1.28,0,2.26-0.02,3.23,0c1.25,0.03,2.41-0.22,3.4-1.01c0.57-0.46,1.26-0.34,1.89-0.5
			c0.67-0.17,1.69-0.35,1.68-1.02c-0.01-0.8-1.05-0.94-1.76-0.98c-3.19-0.14-6.36-0.53-9.57-0.34c-2.28,0.13-4.59-0.03-6.88-0.1
			c-1-0.03-1.93,0.11-2.8,0.63c-0.52,0.31-0.59,0.66-0.22,1.14c0.73,0.94,1.69,1.45,2.85,1.66C95.19,45.71,98,46.07,100.55,45.71z"
			/>
		<path id="XMLID_488_" d="M174.87,49.98c0.75-0.02,1.73,0.01,1.97-0.7c0.25-0.74-0.61-1.3-1.22-1.66
			c-2.78-1.63-5.76-2.77-8.98-3.11c-3.17-0.34-6.37-0.51-9.41-1.6c-0.83-0.3-1.68-0.32-2.5,0.1c-1.04,0.53-1.18,1.17-0.4,2.02
			c0.74,0.81,1.69,1.2,2.77,1.38c2.35,0.39,4.72,0.53,7.08,0.81c2.91,0.34,5.73,1.09,8.45,2.18
			C173.35,49.7,174.06,50.02,174.87,49.98z"/>
		<path id="XMLID_487_" d="M39.42,45.18c1.52,0,3.04,0.03,4.56-0.01c1.11-0.02,2.15-0.33,3.04-1.03c0.75-0.58,0.61-1.05-0.11-1.53
			c-0.82-0.55-1.71-0.71-2.67-0.67c-2.33,0.1-4.67,0.19-7,0.27c-1.37,0.05-2.73,0.02-4.06-0.3c-0.51-0.12-1-0.09-1.5,0.01
			c-0.53,0.11-1.22,0.13-1.4,0.68c-0.21,0.65,0.33,1.15,0.78,1.59c1.1,1.07,2.55,1.11,3.93,1.2c1.47,0.09,2.96,0.02,4.44,0.02
			C39.42,45.33,39.42,45.25,39.42,45.18z"/>
		<path id="XMLID_486_" d="M53.53,21.83c0.69,0.52,1.4,0.47,2.09,0.46c4.02-0.03,8.03-0.09,12.04,0.16c0.51,0.03,1.02-0.01,1.5-0.19
			c0.53-0.2,1.33-0.3,1.32-0.94c-0.01-0.59-0.77-0.81-1.31-1.01c-0.7-0.26-1.44-0.28-2.19-0.25c-3.86,0.13-7.69,0.64-11.53,1
			C54.78,21.12,54.15,21.3,53.53,21.83z"/>
		<path id="XMLID_485_" d="M59.27,43.54c1.33-0.12,2.81,0.08,4.12-0.67c0.33-0.19,0.78-0.35,0.74-0.8c-0.04-0.37-0.46-0.5-0.77-0.66
			c-1.41-0.7-2.9-0.39-4.35-0.29c-1.04,0.07-2.11,0.12-2.99,0.82c-0.27,0.21-0.69,0.36-0.63,0.76c0.06,0.37,0.49,0.46,0.8,0.6
			C57.16,43.73,58.18,43.54,59.27,43.54z"/>
		<path id="XMLID_484_" d="M84.26,20.76c-0.37-0.45-0.9-0.4-1.38-0.41c-1.04-0.02-2.07,0.13-3.13-0.04
			c-0.97-0.16-1.61,0.68-2.28,1.24c-0.41,0.34,0.1,0.49,0.34,0.6C79.54,22.94,82.9,22.22,84.26,20.76z"/>
		<path id="XMLID_483_" d="M119.86,31.73c0.43,1.6,1.15,3.16,2.71,4.2c0.21,0.14,0.48,0.35,0.75,0.16c0.25-0.18,0.21-0.5,0.16-0.76
			c-0.31-1.76-1.17-3.2-2.51-4.36c-0.23-0.2-0.52-0.47-0.82-0.33C119.74,30.81,119.92,31.25,119.86,31.73z"/>
		<path id="XMLID_482_" d="M235.68,178.49c2.81-0.24,5.57-0.75,8.15-1.92c6.14-2.79,12.28-5.6,18.41-8.4
			c0.21-0.1,0.43-0.2,0.61-0.34c0.52-0.39,1.44-0.76,1.24-1.39c-0.23-0.72-1.22-0.71-1.96-0.71c-0.83,0-1.61,0.3-2.37,0.6
			c-5.64,2.16-11.27,4.38-16.84,6.72c-8.03,3.38-11.85,1.73-13.25,1.27c-2.95-0.96-5.38-2.69-7.31-5.06
			c-3.37-4.13-6.19-8.6-8.16-13.59c-1-2.52-1.74-5.09-2.11-7.77c-0.19-1.33-0.74-2.46-1.71-3.37c-0.91-0.85-1.6-0.77-2.32,0.25
			c-0.7,1-0.97,2.14-0.8,3.34c1.37,9.69,5.68,17.88,12.91,24.41c3.75,3.39,8.3,5.32,13.43,5.71
			C234.29,178.29,234.96,178.59,235.68,178.49z"/>
		<path id="XMLID_481_" d="M295.92,142.25c-0.38-5.73-1.7-11.23-4.1-16.46c-0.41-0.89-1.17-2.18-1.97-1.83
			c-0.9,0.39-0.36,1.75,0.01,2.63c2.12,5.09,2.6,10.4,2.13,15.83c-0.06,0.73-0.27,1.45-0.4,2.18c-0.22,1.22-0.21,2.41,0.48,3.5
			c0.48,0.77,1.07,0.95,1.84,0.36c1-0.75,1.55-1.75,1.72-2.95C295.8,144.44,295.97,143.35,295.92,142.25z"/>
		<path id="XMLID_480_" d="M277.8,161.87c1.36-0.01,2.62-0.64,3.91-1.18c2.38-1,4.29-2.64,6.11-4.41c0.54-0.52,0.89-1.18,1.09-1.9
			c0.07-0.24,0.29-0.53,0.02-0.75c-0.24-0.19-0.53-0.03-0.78,0.05c-0.53,0.15-0.99,0.46-1.37,0.86c-2.28,2.37-5.04,3.87-8.25,4.55
			c-0.82,0.17-1.56,0.49-2.12,1.14c-0.27,0.31-0.69,0.64-0.5,1.1c0.18,0.43,0.69,0.45,1.11,0.52
			C277.24,161.86,277.48,161.85,277.8,161.87z"/>
		<path id="XMLID_479_" d="M269.78,164.42c0.99-0.02,1.97-0.76,1.94-1.47c-0.04-0.79-0.66-0.86-1.26-0.87
			c-0.89-0.02-1.85,0.73-1.83,1.46C268.64,164.35,269.27,164.38,269.78,164.42z"/>
		<path id="XMLID_478_" d="M212.37,127.72c3.51-0.51,7.01-1.07,10.53-1.51c4.72-0.59,9.45-1.05,14.17-1.62
			c7.2-0.87,14.37-1.89,21.48-3.29c0.98-0.19,2.37-0.58,2.2-1.6c-0.12-0.73-1.63-0.52-2.54-0.31c-4.2,0.96-8.5,1.03-12.77,1.45
			c-4.54,0.45-9.08,0.87-13.62,1.28c-4.27,0.38-8.57,0.34-12.81,1.09c-2.11,0.37-4.23,0.66-6.34,1.04c-0.57,0.1-1.15,0.28-1.65,0.56
			c-0.7,0.39-1.64,0.89-1.41,1.79c0.21,0.85,1.23,0.96,2.05,1.07c0.23,0.03,0.47,0,0.7,0C212.36,127.69,212.36,127.71,212.37,127.72
			z"/>
		<path id="XMLID_477_" d="M272.28,95.53c0.39-0.05,0.78-0.07,1.16-0.17c0.54-0.14,1.34-0.13,1.38-0.82
			c0.03-0.64-0.71-0.85-1.23-1.1c-0.24-0.12-0.51-0.23-0.77-0.25c-3.21-0.21-6.05-1.72-9.07-2.63c-1.84-0.56-3.7-0.94-5.63-0.84
			c-0.89,0.05-1.69,0.31-2.35,0.9c-0.76,0.67-0.75,1.18,0.12,1.63c1.14,0.58,2.29,1.33,3.59,1.33c3.47,0.02,6.77,1.01,10.14,1.63
			C270.48,95.37,271.38,95.42,272.28,95.53z"/>
		<path id="XMLID_476_" d="M207.02,122.7c5.29-0.04,9.8-1.08,14.3-2.23c0.62-0.16,1.61-0.47,1.5-1.05
			c-0.12-0.68-1.12-0.46-1.74-0.41c-1.08,0.08-2.16,0.3-3.23,0.47c-4.1,0.63-8.16,0.08-12.23-0.36c-1.46-0.16-2.95-0.53-4.3,0.42
			c-1,0.7-1.02,1.05-0.09,1.86c0.7,0.61,1.53,0.94,2.44,1.03C204.98,122.56,206.3,122.64,207.02,122.7z"/>
		<path id="XMLID_475_" d="M195.36,121.08c0.82-0.18,1.87,0,2.15-0.91c0.26-0.84-0.46-1.51-1.08-2.06c-0.23-0.2-0.49-0.42-0.78-0.5
			c-1.66-0.47-3.16-1.26-4.6-2.2c-0.77-0.5-1.29-0.29-1.5,0.66c-0.29,1.36,0.12,2.5,1.18,3.31
			C192.1,120.43,193.73,120.84,195.36,121.08z"/>
		<path id="XMLID_474_" d="M268.33,118.72c1.95-0.53,4.09-0.95,5.22-3.09c0.49-0.93,0.29-1.32-0.78-1.3
			c-2.32,0.03-4.19,1.22-5.97,2.55c-0.33,0.24-0.7,0.63-0.58,1.08c0.15,0.51,0.72,0.51,1.17,0.62
			C267.65,118.64,267.92,118.66,268.33,118.72z"/>
		<path id="XMLID_472_" d="M260.78,216.87c-1.81,1.66-3.79,2.18-5.78,2.74c-4.63,1.29-8.75,0.4-12.43-2.66
			c-3.9-3.24-7.84-6.43-10.8-10.64c-1.59-2.26-2.75-4.7-3.57-7.33c-0.43-1.39-1.16-2.56-2.45-3.3c-1.12-0.65-2-0.44-2.7,0.66
			c-0.79,1.23-0.83,2.56-0.46,3.94c1.51,5.61,4.55,10.24,9.05,13.87c2.82,2.28,5.79,4.34,8.92,6.22c4.35,2.62,8.92,2.98,13.75,2.01
			c2.84-0.57,5.36-1.71,7.73-3.43c3.14-2.29,6.38-4.48,10.05-5.92c0.62-0.24,1.58-0.59,1.39-1.3c-0.14-0.55-1.14-0.32-1.8-0.34
			c-2.79-0.07-5.35,0.92-7.97,1.65c-0.11,0.03-0.23,0.1-0.34,0.09c-3.46-0.25-6.24,1.98-9.46,2.62c-0.47,0.09-0.76,0.05-1.17-0.15
			c-4.22-2.13-7.01-5.65-9.32-9.61c-2.04-3.5-4.03-7.04-5.03-11.03c-0.25-1.01-0.87-1.83-1.71-2.45c-0.85-0.63-1.7-0.8-2.44,0.19
			c-0.12,0.15-0.25,0.33-0.41,0.4c-1.6,0.74-2.14,1.64-1.94,3.31c0.37,3.2,1.4,6.12,3.35,8.74c2.1,2.81,3.99,5.83,6.9,7.89
			c2.41,1.71,4.64,3.69,7.27,5.09c1.29,0.69,2.56,0.72,4.04,0.57c2.26-0.22,4.33-0.87,6.37-1.74
			C260.01,216.85,260.26,216.9,260.78,216.87z"/>
		<path id="XMLID_471_" d="M294.73,184.91c-0.08-1.18,0.09-2.7-0.85-3.99c-0.24-0.33-0.47-0.83-0.96-0.72
			c-0.43,0.09-0.49,0.59-0.53,0.96c-0.15,1.43-0.15,2.88-0.4,4.3c-0.71,4.07-1.56,8.11-3.14,11.95c-0.49,1.18-0.82,2.35-0.41,3.62
			c0.21,0.65,0.6,0.86,1.24,0.69c1.46-0.38,2.31-1.39,2.81-2.73c1.04-2.8,1.4-5.74,1.78-8.68
			C294.49,188.62,294.77,186.92,294.73,184.91z"/>
		<path id="XMLID_470_" d="M279.28,208.72c1.67-0.37,3.31-0.99,4.36-2.6c0.18-0.27,0.47-0.62,0.19-0.95
			c-0.21-0.26-0.58-0.17-0.88-0.1c-1.71,0.38-3.13,1.32-4.41,2.47c-0.25,0.22-0.59,0.54-0.44,0.89
			C278.29,208.85,278.79,208.62,279.28,208.72z"/>
		<path id="XMLID_323_" d="M2.99,42.49c0.2,8.14,3.69,14.66,10.03,19.62c2.13,1.67,4.81,2.38,7.37,3.22
			c11.83,3.91,24.03,4.54,36.33,3.78c8.54-0.52,17.08-0.87,25.6,0.02c5.58,0.58,11.16,1.33,16.7,2.2
			c13.78,2.16,27.63,2.7,41.54,1.92c3.46-0.19,6.92-0.55,10.38-0.87c0.96-0.09,1.01,0.16,0.85,1.08c-1.43,8.3,0.59,15.7,5.96,22.17
			c1.07,1.29,2.3,2.45,3.55,3.56c0.36,0.32,0.68,0.62,0.68,1.16c-0.01,3.17,0.94,6.15,1.88,9.13c1.94,6.22,3.86,12.44,6.31,18.49
			c1.32,3.27,3.37,5.8,6.32,7.74c3.12,2.04,6.44,3.66,9.8,5.22c1.55,0.72,1.59,0.87,0.19,1.78c-2.12,1.37-3.95,3.04-5.67,4.86
			c-0.73,0.77-1.38,1.6-1.68,2.64c-0.11,0.4-0.35,0.69-0.61,0.98c-2.33,2.65-2.76,5.67-2.15,9.08c1.15,6.38,4.24,11.94,7.05,17.64
			c4.08,8.27,10.74,13.38,19.33,16.24c0.72,0.24,1.44,0.3,2.19,0.25c0.45-0.03,0.91-0.12,1.49,0.13c-0.71,0.54-1.39,0.93-1.91,1.47
			c-2.41,2.55-3.24,5.62-2.83,9.06c0.18,1.48,0.55,2.93,1.15,4.28c3.26,7.31,7.41,14.11,12.5,20.26
			c6.24,7.52,14.64,11.16,24.15,12.55c2.82,0.41,5.61,1,8.43,1.39c3.74,0.51,7.48,0,11.22-0.08c9.52-0.21,19.03-0.72,28.55-0.86
			c10.46-0.15,20.88-0.96,31.27-2.21c8.57-1.03,24.56-4.08,30.67-5.02c5.97-0.93,21.97-2.75,30.52-1.68
			c5.22,0.65,10.26,2.32,15.13,4.39c12.78,5.43,25.46,11.1,38.52,15.86c9.21,3.36,18.65,5.95,28.08,8.57
			c0.94,0.26,1.88,0.53,2.81,0.8c0.69,0.2,1.39,0.2,2.08,0.02c0.79-0.2,1.84-0.3,1.99-1.18c0.14-0.83-0.71-1.41-1.35-1.92
			c-0.62-0.49-1.36-0.75-2.11-0.98c-5.03-1.55-23.26-9.09-25.74-10.41c-13.5-7.21-27.95-12.16-42.05-17.97
			c-4.86-2-10.03-3.28-15.3-3.74c-4.66-0.41-19.92,1.17-20.08,1.17c-1.41,0.05-31.39,4.82-41.74,6.04
			c-10.12,1.19-20.24,2.22-30.42,2.39c-13.03,0.21-26.04,0.87-39.07,1.15c-0.86,0.02-1.74,0.03-2.77-0.49
			c2.34-0.67,4.21-1.78,6.08-2.91c0.46-0.28,0.96-0.27,1.47-0.29c3.36-0.2,6.72,0.04,10.05,0.36c8.08,0.77,16.13,0.13,24.19-0.29
			c1.67-0.09,47.75-4.88,55.61-6.34c2.71-0.5,24.41-4.6,36.89-3.71c6.19,0.44,12.13,2.48,18.03,4.49
			c15.12,5.14,29.25,12.52,43.69,19.19c7.33,3.38,14.65,6.8,22.56,8.68c1.18,0.28,2.36,0.57,3.59,0.37c1.08-0.18,1.8-0.81,1.91-1.91
			c0.11-1.07-0.45-1.79-1.46-2.13c-9.5-3.17-18.39-7.74-27.45-11.93c-5.34-2.47-10.83-4.63-16.14-7.19
			c-3.76-1.81-7.27-4.12-11.1-5.78c-4.9-2.12-9.54-4.85-14.7-6.34c-0.17-0.05-0.4-0.06-0.47-0.39c1.15-0.64,2.33-1.31,3.52-1.94
			c0.43-0.23,0.91-0.16,1.37-0.03c4.61,1.28,8.97,3.19,13.14,5.47c4.49,2.46,9.13,4.59,13.66,6.96c4.9,2.57,9.94,4.87,14.88,7.37
			c3.96,2,8.18,3.47,12.28,5.19c3.17,1.33,6.33,2.66,9.48,4.01c0.98,0.42,1.97,0.77,3.06,0.58c1.27-0.21,1.58-0.85,0.96-1.97
			c-0.43-0.78-1.07-1.35-1.91-1.65c-7.18-2.57-13.88-6.19-20.68-9.58c-2.93-1.46-6-2.65-9.07-3.77c-5.48-2-10.69-4.55-15.89-7.15
			c-4.08-2.05-8.18-4.04-12.57-5.37c-1.5-0.45-2.92-1.11-4.31-1.82c-0.56-0.29-0.73-0.55-0.09-0.96c1.23-0.8,2.4-1.16,3.92-0.5
			c6.99,3.01,14.02,5.91,21.04,8.84c1.98,0.83,3.97,1.64,6.02,2.28c0.84,0.27,1.69,0.34,2.53,0.06c0.98-0.34,1.08-0.98,0.29-1.62
			c-0.62-0.5-1.37-0.72-2.11-0.97c-8.02-2.7-16.06-5.37-23.76-8.94c-0.5-0.23-0.99-0.47-1.46-0.74c-0.54-0.31-1.42-0.52-0.36-1.31
			c0.38-0.28,0.1-0.57-0.23-0.69c-0.59-0.21-1.2-0.41-1.83-0.16c-0.91,0.37-1.73,0.19-2.57-0.26c-0.93-0.5-1.9-0.9-2.86-1.34
			c-0.57-0.26-0.64-0.54-0.23-1.06c1.16-1.46,1.37-1.5,3.13-0.73c3.32,1.46,6.48,3.28,9.94,4.42c0.71,0.23,1.42,0.42,2.18,0.35
			c0.26-0.03,0.6,0.03,0.68-0.31c0.06-0.26-0.2-0.41-0.4-0.52c-0.44-0.25-0.87-0.54-1.34-0.7c-3.65-1.18-6.69-3.52-10.06-5.23
			c-0.77-0.39-0.46-0.81-0.12-1.3c0.2-0.29,0.63-0.63,0.3-1.02c-0.26-0.31-0.75-0.1-0.98,0.07c-1.94,1.4-3.33-0.21-4.88-0.86
			c-0.17-0.07-0.33-0.18-0.35-0.42c-0.04-0.87,1.57-2.01,2.38-1.69c1.96,0.79,3.77,1.88,5.63,2.86c1.39,0.72,2.8,1.38,4.33,1.73
			c0.73,0.17,1.44,0.18,2.21-0.05c-0.28-0.61-0.78-0.79-1.24-0.93c-2.2-0.66-4.1-1.88-5.99-3.14c-1.13-0.76-2.32-1.44-3.51-2.11
			c-0.6-0.34-0.79-0.61-0.28-1.24c1.58-1.96,1.55-1.97,3.78-0.77c0.82,0.44,1.67,0.85,2.52,1.25c0.61,0.29,1.27,0.38,1.94,0.28
			c0.3-0.04,0.68-0.07,0.76-0.43c0.07-0.3-0.22-0.48-0.43-0.64c-0.31-0.23-0.63-0.46-0.97-0.65c-0.37-0.21-0.78-0.37-1.15-0.58
			c-0.88-0.51-2.03-0.84-2.54-1.6c-0.65-0.96,2.08-2.32,2.55-2.19c1.91,0.53,3.77,1.32,5.8,1.26c0.49-0.01,1.27,0.23,1.4-0.45
			c0.12-0.63-0.63-0.83-1.12-1.01c-0.8-0.3-1.62-0.64-2.46-0.74c-3.09-0.37-5.59-2.11-8.3-3.36c-0.68-0.32-0.59-0.71-0.1-1.15
			c1.1-0.98,2.11-2.15,3.85-1.54c0.28,0.1,0.62,0.02,0.93-0.01c0.39-0.04,0.86-0.06,1.04-0.42c0.23-0.45-0.26-0.69-0.55-0.9
			c-0.62-0.45-0.33-0.83,0.01-1.26c0.19-0.24,0.47-0.53,0.31-0.83c-0.2-0.38-0.63-0.19-0.96-0.16c-0.3,0.02-0.66,0.07-0.89,0.25
			c-1.14,0.87-1.99,0.31-2.89-0.44c-1.26-1.05-2.56-2.05-3.96-2.91c-0.79-0.48-1.64-0.74-2.56-0.64c-0.81,0.08-1.11,0.48-0.7,1.27
			c0.44,0.82,1.12,1.38,1.92,1.83c1.29,0.73,2.55,1.5,3.84,2.25c0.65,0.37,0.77,0.74,0.05,1.17c-0.03,0.02-0.07,0.04-0.1,0.06
			c-2.89,1.97-1.66,2.05-4.66,0.24c-0.85-0.51-1.74-0.89-2.74-0.93c-0.38-0.01-0.86,0-1.06,0.35c-0.23,0.4,0.16,0.72,0.37,1.03
			c0.39,0.55,0.95,0.91,1.55,1.22c0.56,0.28,1.09,0.6,1.66,0.87c0.67,0.32,0.7,0.65,0.21,1.24c-0.8,0.95-1.55,1.36-2.89,0.89
			c-1.84-0.64-3.78-0.41-5.62,0.28c-0.29,0.11-0.59,0.24-0.83,0.43c-0.54,0.44-1.31,0.98-1,1.66c0.28,0.61,1.14,0.23,1.71,0.05
			c1.54-0.5,3.06-0.42,4.6-0.03c0.56,0.14,0.84,0.3,0.37,0.8c-0.95,1-5.07,5.99-6.09,7.2c-1.63,1.93-3.53,3.64-5.32,5.44
			c-0.46,0.46-1.01,0.69-1.65,0.81c-3.14,0.61-6.25,1.35-9.4,1.87c-3.22,0.53-6.32,1.53-9.52,2.15c-2.79,0.54-10.18,2.32-10.86,2.51
			c-5.34,1.52-10.91,1.93-16.29,3.21c-4.64,1.11-9.37,1.47-14.06,2.2c-2.59,0.4-5.21,0.44-7.82,0.53
			c-5.42,0.2-10.86,0.17-16.26,0.54c-3.74,0.26-7.08-0.72-10.38-2.19c-1-0.44-3.84-2.38-4.19-2.93c-0.82-1.3-1.63-1.63-3.06-1.05
			c-1.12,0.46-2.21,1-3.25,1.59c-2.82,1.6-5.66,3.16-8.55,4.6c-0.87,0.43-1.49,1.1-1.98,1.94c-0.25,0.44-0.19,0.74,0.29,0.91
			c1.06,0.36,11.4,1.61,15.3,1.5c5.46-0.16,10.92-0.09,16.39-0.34c10.26-0.47,53.78-5.97,79.17-13.64c-0.63,0.95-1.79,2.32-2.5,2.61
			c-17.22,6.95-50.57,10.67-56.38,11.32c-4.31,0.49-8.63,0.75-12.94,1.07c-4.17,0.31-8.34,0.18-12.5,0.32
			c-5.73,0.19-11.45,0.54-17.18,0.79c-4.92,0.21-9.83-0.06-14.74-0.31c-1.27-0.06-2.56,0.03-4-0.32c2.38-2.13,4.77-3.99,7.51-5.29
			c5.25-2.49,10.29-5.43,15.58-7.82c8.24-3.73,12.01-10.53,13.36-19.01c0.86-5.4,1.25-10.86,1.31-16.32
			c0.05-4.15-0.97-8.03-3.54-11.4c-0.82-1.07-0.58-2.39-0.6-3.62c-0.03-1.9,0.01-1.89,1.73-1.15c0.93,0.4,1.88,0.77,2.84,1.09
			c1.35,0.44,3.12,0.14,3.39-0.5c0.23-0.53-0.9-1.61-2.35-2.15c-1.48-0.55-2.8-1.34-4.09-2.23c-1.06-0.73-1-1.51-0.46-2.47
			c3.51,2.55,7.51,3.64,11.67,4.3c1.77,0.28,3.54,0.58,5.31,0.88c0.88,0.15,1.7,0.04,2.54-0.47c-0.53-0.7-1.31-0.84-2.03-1.01
			c-5.16-1.23-10.08-3.03-14.51-6.02c-0.29-0.19-0.61-0.39-0.95-0.45c-0.84-0.15-0.83-0.56-0.58-1.24c0.3-0.81,0.73-0.45,1.18-0.25
			c10.28,4.59,21.12,6.81,32.3,7.53c2.78,0.18,5.53-0.23,8.3-0.35c0.58-0.02,1.16,0,1.8,0.18c-2.36,1.14-4.72,2.28-7.08,3.43
			c-0.45,0.22-0.94,0.4-1.35,0.69c-0.5,0.36-1.19,0.83-0.95,1.46c0.22,0.6,1.05,0.61,1.67,0.57c0.97-0.05,1.97-0.15,2.86-0.55
			c3.7-1.67,7.3-3.51,10.82-5.53c3.21-1.84,6.57-3.43,9.74-5.36c4.88-2.96,9.52-6.26,13.99-9.79c2.51-1.98,4.93-4.07,7.33-6.19
			c1.11-0.98,1.54-2.2,1.79-3.57c0.1-0.57-0.12-0.62-0.55-0.5c-1.09,0.29-1.97,0.93-2.79,1.66c-2.56,2.23-5.28,4.26-7.71,6.64
			c-2.15,2.1-4.65,3.79-7.25,5.33c-4.4,2.6-8.79,5.21-13.45,7.35c-1.77,0.82-3.61,0.58-5.51,0.49c0.74-0.4,1.48-0.8,2.22-1.19
			c1.63-0.85,3.21-1.78,4.63-2.96c0.83-0.69,1.53-1.52,1.36-2.69c-0.07-0.49-1.87-0.32-2.92,0.39c-3.88,2.65-8.14,4.6-12.23,6.87
			c-1.07,0.6-2.35,0.14-3.58,0.09c2.03-1.18,3.96-2.45,5.94-3.65c0.67-0.4,1.63-0.09,2.39-0.46c0.19-0.09,0.61-0.23,0.47-0.39
			c-0.94-1.1,0.36-1,0.7-1.22c5.95-3.81,11.84-7.67,17.2-12.32c5.07-4.4,10.35-8.55,15.54-12.81c0.6-0.5,1.21-1,1.62-1.67
			c0.12-0.19,0.33-0.41,0.2-0.64c-0.17-0.29-0.49-0.17-0.74-0.13c-0.92,0.15-1.64,0.67-2.37,1.21c-5.64,4.18-11.26,8.4-16.96,12.51
			c-3.89,2.81-8.16,5.06-11.98,7.96c-2.61,1.98-5.37,3.76-8.06,5.63c-1.37,0.95-2.76,0.15-4.29,0.3c0.19-0.26,0.23-0.38,0.31-0.44
			c3.43-2.09,6.52-4.67,9.95-6.8c3.57-2.22,7.03-4.62,10.32-7.26c1.25-1,2.56-1.92,3.86-2.86c0.95-0.68,1.65-1.54,1.99-2.67
			c0.25-0.84-0.05-1.29-0.95-1.25c-1,0.04-1.89,0.41-2.74,0.92c-3.35,2.02-6.42,4.43-9.62,6.66c-2.85,1.98-5.7,3.95-8.6,5.86
			c-1.46,0.96-3.1,0.29-4.65,0.35c-0.14-0.49,0.23-0.53,0.42-0.65c1.73-1.13,3.47-2.25,5.23-3.34c0.77-0.48,1.57-0.8,2.54-0.63
			c0.61,0.11,1.24-0.08,1.82-0.35c0.36-0.16,0.64-0.45,0.4-0.82c-0.5-0.77,0.06-1.03,0.56-1.34c6.66-4.27,12.47-9.64,18.7-14.46
			c0.36-0.28,0.66-0.67,0.92-1.05c0.27-0.41,0.72-0.92,0.37-1.37c-0.32-0.42-0.95-0.22-1.44-0.13c-0.87,0.15-1.58,0.65-2.27,1.16
			c-3.71,2.79-7.41,5.6-11.15,8.36c-2.83,2.09-5.92,3.78-9,5.47c-0.73,0.4-2.09,0.07-2.58-0.61c-0.37-0.51,0.19-0.58,0.41-0.76
			c4.17-3.41,8.57-6.52,12.96-9.63c0.75-0.53,1.33-1.18,1.72-2.02c0.41-0.89,0.04-1.14-0.8-1.04c-0.96,0.11-1.77,0.55-2.55,1.09
			c-4.62,3.2-9.25,6.39-13.88,9.56c-0.93,0.64-3.05,0.03-3.59-0.98c-0.17-0.32,0.05-0.43,0.22-0.56c0.33-0.27,0.68-0.53,1.02-0.78
			c6.95-5.17,13.9-10.35,20.85-15.52c0.73-0.54,1.39-1.13,1.79-1.97c0.38-0.78,0.06-1-0.68-0.9c-0.88,0.11-1.62,0.52-2.32,1.04
			c-7.27,5.4-14.73,10.53-22.32,15.46c-1.66,1.08-1.67,1.08-3.22-0.22c-1.47-1.23-1.45-1.2,0.12-2.3c2.93-2.07,5.84-4.18,8.75-6.28
			c0.81-0.58,1.44-1.3,1.76-2.28c0.22-0.69,0.06-1.04-0.73-1.03c-1.02,0.02-1.88,0.42-2.72,0.96c-3.38,2.17-6.79,4.31-10.16,6.5
			c-0.71,0.46-1.1,0.39-1.62-0.28c-1.66-2.12-1.67-2.07,0.58-3.58c7.44-5.03,14.54-10.53,21.55-16.13c0.68-0.54,1.23-1.2,1.54-2.03
			c0.23-0.61,0.01-0.9-0.65-0.83c-0.97,0.11-1.75,0.61-2.51,1.18c-5.56,4.17-11.08,8.38-16.99,12.05c-2.19,1.36-4.45,2.6-6.76,3.74
			c-0.65,0.32-1.01,0.24-1.46-0.35c-1.71-2.28-1.75-2.29,0.63-3.86c6.24-4.09,12.16-8.61,18.07-13.15c3.99-3.06,8.15-5.9,12-9.16
			c0.76-0.64,1.42-1.35,1.68-2.34c0.16-0.62-0.03-0.91-0.72-0.7c-0.64,0.2-1.23,0.5-1.75,0.93c-3.99,3.26-8.12,6.33-12.21,9.47
			c-4.16,3.2-8.62,5.89-13.07,8.63c-0.84,0.52-1.34,0.53-1.98-0.36c-1.34-1.9-1.4-1.86,0.5-3.12c4.91-3.27,9.73-6.66,13.91-10.86
			c0.58-0.59,1.12-1.2,1.36-2.01c0.16-0.56,0-0.75-0.56-0.55c-0.63,0.23-1.18,0.6-1.68,1.05c-4.69,4.33-10.22,7.4-15.73,10.51
			c-0.57,0.32-0.94,0.26-1.2-0.34c-0.05-0.11-0.11-0.21-0.17-0.31c-0.87-1.51-0.89-1.55,0.56-2.44c6.11-3.75,11.51-8.44,17.14-12.83
			c0.68-0.53,1.27-1.15,1.44-2.16c-0.91-0.01-1.59,0.41-2.24,0.88c-1.58,1.15-3.18,2.27-4.72,3.46c-4.23,3.25-8.95,5.68-13.59,8.26
			c-0.73,0.41-1.07,0.29-1.39-0.48c-0.85-2.1-1.26-1.92,1.06-2.94c7.15-3.14,13.24-7.84,19.17-12.83c2.64-2.22,5.21-4.46,7.32-7.2
			c1.52-1.99,2.73-4.18,3.92-6.37c0.31-0.57,0.72-1.5,0.25-1.82c-0.53-0.34-1.16,0.44-1.55,0.95c-0.7,0.93-1.37,1.9-1.94,2.92
			c-0.8,1.43-1.86,2.58-3.16,3.55c-2.64,1.96-5.15,4.05-7.51,6.34c-0.2,0.19-0.39,0.39-0.62,0.53c-4.47,2.71-8.56,6-13.14,8.55
			c-2.84,1.58-6.03,1.78-9.08,2.56c-11.44,2.95-22.6,1.31-33.68-1.97c-3.51-1.04-7.06-1.97-10.62-2.84
			c-6.29-1.54-12.45-1.16-18.54,0.94c-6.97,2.41-13.91,4.88-20.49,8.27c-2.88,1.49-5.91,2.66-8.99,3.66
			c-5.67,1.85-11.12,4.37-16.93,5.8c-10.81,2.65-21.15,0.91-31.09-3.71c-2.46-1.14-4.54-2.89-6.19-5.08
			c-1.01-1.34-1.11-1.72-0.91-3.52c2,2.06,4.22,3.68,6.44,5.31c1.9,1.41,3.99,2.43,6.27,3.07c4.36,1.21,8.7,2.51,13.32,2.26
			c1.1-0.06,2.06-0.34,2.91-1.04c0.49-0.41,0.45-0.75-0.08-1.09c-0.67-0.43-1.4-0.67-2.19-0.74c-2.25-0.18-4.49-0.44-6.71-0.96
			c-6.89-1.61-12.11-5.7-16.62-10.93c-1.55-1.8-2.95-3.73-4.51-5.53c-0.69-0.8-0.9-1.89-1.21-2.9c-0.28-0.93-0.42-1.91-0.76-2.82
			c-0.55-1.51,0.13-2.61,1.05-3.81c0.25,0.94,0.42,1.77,0.68,2.56c1.28,3.87,3.42,7.11,6.65,9.7c3.29,2.64,6.69,5.13,10.16,7.51
			c0.58,0.39,1.44,1.16,1.9,0.64c0.47-0.54-0.19-1.46-0.72-2.04c-0.62-0.69-1.3-1.36-2.03-1.93c-2.69-2.08-5.19-4.38-7.76-6.6
			c-3.4-2.93-5.32-6.67-5.94-11.09c-0.08-0.55-0.26-1.06-0.47-1.56c-0.53-1.22-0.11-2.41,1.08-2.99c8.9-4.28,17.83-8.53,26.27-13.64
			c7.67-4.64,15.49-9.06,22.93-14.08c0.79-0.53,5.77-2.8,6.2-2.95c4.85-1.69,9.88-2.6,14.95-3.29c11.55-1.56,22.85-4.24,33.95-7.75
			c2.64-0.83,5.18-1.97,7.52-3.48c0.94-0.6,1.69-1.38,2.27-2.32c0.6-0.98,0.44-1.4-0.7-1.65c-0.93-0.2-1.91-0.24-2.74,0.27
			C268.5,19,261.71,20,255.08,21.6c-9.65,2.34-19.5,3.49-29.27,5.1c-0.54,0.09-1.1,0.13-1.6,0.32c-0.98,0.38-1.44,0.11-1.76-0.92
			c-1.46-4.73-3.67-9.11-6.44-13.21c-0.64-0.94-1.12-1.96-1.58-2.99c-0.32-0.71-0.24-0.95,0.58-0.98c2.96-0.13,5.92-0.3,8.88-0.48
			c5.53-0.33,11.09-0.25,16.59-0.98c5.84-0.78,11.68-1.53,17.56-1.95c10.72-0.76,21.43-1.32,32.1,0.58
			c3.58,0.64,7.21,1.21,10.54,2.63c5.48,2.36,10.91,4.86,16.19,7.69c9.53,5.11,18.88,10.55,28.13,16.1
			c11.99,7.2,24.52,13.38,36.67,20.24c4.66,2.63,9.47,4.92,14.16,7.47c6.13,3.32,12.88,4.91,19.61,6.48
			c9.15,2.14,18.4,3.81,27.66,5.44c8.1,1.43,16.36,1.85,24.37,3.89c1.31,0.33,2.64,0.19,3.86-0.49c1.69-0.94,1.88-2.04,0.61-3.48
			c-1.03-1.17-2.38-1.68-3.86-2.03c-4.94-1.19-9.96-1.88-14.99-2.48c-8.37-1-16.61-2.8-24.88-4.41c-6.9-1.34-13.77-2.75-20.48-4.84
			c-7.35-2.29-14.41-5.29-21.23-8.88c-8.32-4.38-16.66-8.72-24.97-13.12c-3.17-1.68-6.17-3.67-9.25-5.51
			c-8.64-5.15-17.3-10.28-26.04-15.27c-5.08-2.9-10.27-5.6-15.59-8.06C298.43,1.81,283.28,0.09,274.42,0
			c-11.18-0.11-22.3,0.68-33.37,2.24c-3.44,0.49-6.92,0.55-10.39,0.71c-14.58,0.66-29.16,1.35-43.75,1.73
			c-2.22,0.06-4.46-0.05-6.67,0.18c-5.09,0.54-10.24-0.04-15.3,0.59C156.98,6.44,148.98,5.93,141,6.3
			c-10.28,0.48-20.56,0.98-30.82,1.78c-7.42,0.58-14.78,1.82-22.13,3.04c-5.9,0.98-11.85,1.54-17.81,1.75
			c-11.83,0.42-23.6,1.31-35.31,3.01c-4.4,0.64-8.84,0.94-13.19,1.91c-2.76,0.61-5.49,1.52-7.84,3.01c-3.68,2.34-7.1,5.05-8.46,9.59
			C4.25,34.36,2.89,38.27,2.99,42.49z M311.91,95.82c-0.03,0.24-2.19,1.47-2.48,1.33c-0.8-0.39-0.68-1.31-1.04-1.9
			c0.02-0.35,1.79-1.53,2.14-1.5C310.78,93.78,311.94,95.53,311.91,95.82z M315.34,101.21c0.03,0.56-0.88,0.63-1.34,0.95
			c-0.26,0.17-0.57,0.27-0.82,0.45c-0.89,0.67-1.46,0.45-1.8-0.58c-0.16-0.47-0.79-1.08-0.48-1.34c0.85-0.71,1.9-1.18,2.84-1.74
			c0.18,0.09,0.31,0.11,0.37,0.19C314.57,99.81,315.29,100.42,315.34,101.21z M315.89,108.91c-0.23,0.13-0.52,0.39-0.74,0.15
			c-0.63-0.7-0.98-1.58-1.4-2.41c0.05-0.12,0.06-0.27,0.14-0.32c1.13-0.7,2.19-1.6,3.42-1.98c0.78-0.24,1.04,1.08,1.65,1.59
			c0.09,0.07,0.15,0.18,0.23,0.26c0.42,0.39,0.26,0.63-0.17,0.88C317.97,107.68,316.93,108.31,315.89,108.91z M319.77,124.04
			c0.09,0.64-1.36,0.94-2.09,1.43c-0.19,0.13-0.43,0.2-0.61,0.34c-0.79,0.59-1.41,0.46-2.13-0.22c-1.84-1.71-1.88-1.67,0.21-3.01
			c0.69-0.44,1.38-0.87,2.09-1.31c0.17,0.08,0.34,0.11,0.43,0.22C318.41,122.34,319.62,123.01,319.77,124.04z M314.63,143.08
			c-1.32,1.02-3.19,0.41-3.98-1.27C312.01,142.25,313.23,142.64,314.63,143.08z M325.17,129.22c-1.05,0.57-2.12,1.12-3.17,1.67
			c-0.92-0.41-1.64-1-2.35-1.59c-0.19-0.16-0.09-0.36,0.09-0.48c1.01-0.64,1.92-1.66,3.06-1.8c0.84-0.1,1.44,1.05,2.21,1.56
			c0.06,0.04,0.12,0.1,0.18,0.15C325.38,128.91,325.36,129.11,325.17,129.22z M331.24,132.75c0.17,0.61-1.13,0.8-1.73,1.24
			c-0.12,0.09-0.27,0.15-0.41,0.22c-0.5,0.23-2.78-0.51-3.04-0.99c-0.03-0.06-0.05-0.14-0.07-0.23c0.07-0.08,0.13-0.19,0.22-0.24
			c0.95-0.47,1.74-1.51,2.85-1.34C329.89,131.54,331.04,132.03,331.24,132.75z M329.59,141.14c-1.94,1.1-4.03,1.3-6.32,0.43
			c0.46-0.3,0.8-0.48,1.1-0.72c2.76-2.21,6.29-3.07,9.05-5.25c1.12-0.89,2.03-0.88,3.21-0.1c0.86,0.57,0.66,0.77,0,1.24
			C334.37,138.36,332,139.78,329.59,141.14z M327.94,153.58c1.82-1.67,3.95-2.06,6.35-1.61c-0.32,0.46-0.78,0.58-1.18,0.79
			c-0.82,0.44-1.83,0.69-2.26,1.56c-0.63,1.26-1.52,1.13-2.75,0.76C329.63,154.23,328.09,154.06,327.94,153.58z M324.22,148.77
			c1.36-0.96,2.68-1.74,3.8-2.74c1.64-1.46,3.5-0.92,5.33-0.91c-1.5,1.12-3.13,2-4.54,3.13
			C327.37,149.41,325.94,149.39,324.22,148.77z M319.77,151.85c1.1-1.35,2.35-0.46,3.77-0.51
			C322.23,152.5,321.06,152.31,319.77,151.85z M315.96,146.29c2-2.2,4.47-2.24,7.15-1.33C321.22,147.37,318.15,147.9,315.96,146.29z
			 M315.87,138.98c2.15-2.13,4.82-2.63,7.66-1.43C321.3,139.76,318.75,140.28,315.87,138.98z M310.51,149.72
			c1.61-1.21,3.03,0.03,4.53,0.31C313.46,151.19,312.02,149.89,310.51,149.72z M308.51,117.44c1.13-0.61,2.27-1.2,3.4-1.82
			c0.42-0.23,0.69-0.06,0.88,0.27c0.44,0.75,1.33,1.19,1.46,2.15c0,0.02-0.04,0.06-0.08,0.08c-1.29,0.73-2.57,1.46-3.87,2.18
			c-0.05,0.03-0.17,0.02-0.22-0.02c-0.77-0.67-1.29-1.55-1.84-2.31C308.17,117.64,308.34,117.53,308.51,117.44z M304.94,111.09
			c1.02-0.47,2.04-0.94,3.06-1.41c0.36-0.16,0.59-0.01,0.78,0.29c0.35,0.56,0.68,1.13,1.05,1.68c0.29,0.44,0.15,0.72-0.27,0.93
			c-1.03,0.53-2.07,1.05-3.11,1.58c-0.25,0.13-0.52,0.23-0.72-0.07c-0.49-0.75-0.8-1.59-1.03-2.24
			C304.58,111.38,304.71,111.19,304.94,111.09z M304.06,105.54c0.01-0.11,0.01-0.15,0.02-0.18c0.16-0.68-0.21-1.77,0.64-1.92
			c0.72-0.13,0.8,0.98,1.17,1.54c0.21,0.31,0.67,0.75,0.16,1.1c-0.53,0.37-1.2,0.79-1.82,0.63
			C303.68,106.56,304.11,105.9,304.06,105.54z M399.78,205.98c-0.16,0.48-2.48,2.25-3.06,2.26c-0.24-0.03-0.57-0.01-0.78-0.29
			c-0.11-0.15-0.02-0.3,0.09-0.41c0.69-0.73,1.34-1.52,2.11-2.16c0.46-0.39,1.03,0.02,1.52,0.22
			C399.83,205.67,399.83,205.81,399.78,205.98z M404.34,200.96c0.07,0.08,0.11,0.2,0.11,0.31c0,0.42-1.61,1.87-2.13,1.87
			c-0.54-0.2-1.37-0.1-1.69-0.69c-0.24-0.44,0.43-0.83,0.68-1.26c0.04-0.07,0.09-0.13,0.13-0.19
			C402.05,200.22,403.73,200.19,404.34,200.96z M407.81,193.68c-0.47-0.28-1.24-0.48-0.65-1.26c0.47-0.61,0.7-1.68,1.94-1
			c1.23,0.67,2.53,1.2,3.8,1.8c0.34,0.16-0.28,0.79-0.66,1.17c-1.06,1.05-2.05,0.78-3.1,0.03
			C408.72,194.13,408.24,193.94,407.81,193.68z M404.15,198.29c-0.21-0.1-0.43-0.2-0.41-0.68c0.46-0.67,0.92-1.55,1.58-2.23
			c0.51-0.52,1.08,0.12,1.56,0.35c2.28,1.09,2.24,1.08,0.4,2.85c-0.62,0.59-1.14,0.69-1.85,0.28
			C405.03,198.62,404.58,198.48,404.15,198.29z M402.94,214.96c0.01-0.45,1.64-1.74,2.11-1.59c0.99,0.31,2.01,0.56,3.09,1.25
			c-0.43,0.27-0.75,0.43-1.01,0.65c-1.26,1.06-2.54,0.58-3.83,0.07C403.12,215.26,402.93,215.21,402.94,214.96z M401.32,208.37
			c1.06-1.71,2.63-2.09,4.26-0.99c0.23,0.16,0.55,0.35,0.24,0.61c-0.77,0.63-1.55,1.27-2.5,1.64c-0.63-0.19-1.23-0.35-1.81-0.54
			C401.12,208.95,401.11,208.72,401.32,208.37z M398.53,218.97c0.86-1.04,1.14-1.12,2.57-0.65
			C400.15,218.72,399.41,218.94,398.53,218.97z M395.77,214.41c0.68-1.13,1.4-1.76,2.06-2.46c0.56-0.6,1.18-0.43,1.82-0.26
			c0.33,0.09,0.52,0.32,0.2,0.57C398.7,213.14,397.58,214.08,395.77,214.41z M391.43,218.93c0.69-0.76,1.17-1.23,1.8-1.52
			c0.24-0.11,0.57-0.11,0.71,0.18c0.13,0.27-0.17,0.39-0.35,0.5C393.01,218.42,392.49,218.9,391.43,218.93z M387.75,214.07
			c1.89-1.06,3.46-2.24,5.07-3.36c0.17-0.12,0.45-0.12,0.67-0.1c0.22,0.03,0.5,0.1,0.62,0.26c0.17,0.23-0.11,0.4-0.25,0.57
			C392.35,213.28,390.52,214.42,387.75,214.07z M382.77,218.21c1.37-1.78,3.15-0.87,4.72-1.02
			C386.14,218.49,384.56,218.54,382.77,218.21z M289.56,94.86c-0.14,0.4-0.25,0.83-0.47,1.19c-0.38,0.61-1.07,0.95-1.68,0.81
			c-0.52-0.12-0.11-1.7-0.1-1.71c0-0.39,0.02-0.78,0-1.17c-0.04-0.84,0.33-1.06,1.14-0.95C290.13,93.28,290.14,93.25,289.56,94.86z
			 M229.1,232.89c3.62,0.48,7.28,0.16,10.89,0.73c-1.62,0.36-3.29,0.36-4.83,0.82C232.76,235.15,231.03,233.78,229.1,232.89z
			 M228.74,215.15c-4.99-5.61-8.02-12.32-9.8-19.59c-0.5-2.04,0.15-3.27,2.2-3.74c9.22-2.11,17.96-5.45,26.33-9.86
			c4.31-2.27,8.63-4.55,13.12-6.46c5.6-2.37,11.3-4.52,16.79-7.16c2.4-1.16,5.02-1.64,7.48-2.6c0.37-0.14,0.72-0.2,1.12-0.02
			c2.5,1.13,4.9,2.41,7,4.21c0.82,0.7,1.52,1.5,1.78,2.56c0.82,3.33,1.67,6.67,1.89,10.1c0.25,3.96-0.58,7.85-1.02,11.76
			c-0.82,7.37-5.13,12.19-11.41,15.52c-4.93,2.61-9.91,5.12-14.85,7.72c-2.73,1.44-5.41,2.99-7.63,5.17
			c-1.27,1.25-2.7,2.23-4.23,3.1c-0.34,0.19-0.69,0.37-1.31,0.32c-2.11-0.39-4.46-0.35-6.79-0.62c-3.25-0.37-6.55-0.52-9.63-1.75
			C235.26,221.99,231.86,218.66,228.74,215.15z M210.23,206.29c0.26,0.21,0.34,0.43,0.47,0.62c0.78,1.13,0.57,2.59,1.2,3.76
			c0.78,1.44,1.69,2.8,2.67,4.11c2.73,3.61,5.64,7.06,8.97,10.2c-3.14-0.57-5.77-2.2-7.76-4.57c-2.45-2.93-4.28-6.32-5.96-9.76
			C209.08,209.15,209.68,207.7,210.23,206.29z M204.41,153.82c-0.47-1.93-0.81-3.89-1.2-5.84c-0.21-1.07-0.7-1.98-1.57-2.66
			c-0.56-0.44-1.18-0.47-1.49,0.18c-0.51,1.05-1.29,1.79-2.15,2.5c-0.48,0.4-0.8,1.04-0.81,1.65c-0.04,2.01-0.48,4.02,0.08,6.03
			c0.93,3.38,1.73,6.8,3.02,10.13c-1.58-0.87-3.22-1.62-4.06-3.35c-0.7-1.44-1.46-2.84-2.19-4.27c-0.72-1.42-1.05-2.93-0.92-4.53
			c0.15-1.81,0.35-3.6,0.67-5.4c0.45-2.59,1.08-4.88,3.64-6.14c0.14-0.07,0.26-0.18,0.39-0.25c2.97-1.7,5.83-3.64,9.21-4.51
			c12.58-3.23,25.16-6.42,38.09-8c3.52-0.43,6.98-1.32,10.51-1.68c10.57-1.08,20.4-3.95,28.65-11.01c0.12-0.1,0.25-0.19,0.37-0.29
			c0.24-0.19,0.46-0.21,0.74-0.05c2.6,1.51,5.24,3.01,7.27,5.26c4.92,5.48,6.05,12.24,6.19,19.26c0.06,3.35-1.55,6.31-2.58,9.41
			c-1.59,4.81-4.91,7.98-9.19,10.29c-4.54,2.45-9.42,4.15-14.14,6.18c-6.59,2.83-13.41,5.11-19.99,7.97
			c-4.83,2.09-9.14,5.27-14.5,6.29c-4.64,0.89-9.23,1.92-13.99,1.73c-1.84-0.07-14.76-1.98-16.29-3c0.53-0.31,0.92-0.57,1.33-0.78
			c0.58-0.31,3-1.43,3.65-1.17c3.19,1.27,13.71,3.22,14.36,3.21c0.55-0.01,1.17-0.21,1.19-0.88c0.02-0.59-0.57-0.77-1.04-0.95
			c-0.38-0.14-4.73-1.31-5.73-1.91c-2.71-1.61-5.69-2.82-7.85-5.23C209.35,166.76,206.08,160.71,204.41,153.82z M192.33,181.44
			c2.03,0.65,4.05,1.48,6.14,1.24c2.47-0.29,4.26,1.14,6.67,1.91c-2.71,1.02-5.03,1.94-7.63,0.75
			C195.47,184.4,193.72,183.2,192.33,181.44z M188.58,171.64c0.29,0.62,0.62,1.24,0.65,2.19c-1.64-0.94-3.15-1.79-3.94-3.37
			c-1.73-3.43-2.68-7.12-3.15-10.92c-0.11-0.88-0.03-1.79,0-2.69c0.01-0.38,0.18-0.82,0.62-0.37c0.81,0.83,1.83,1.67,1.93,2.85
			C185.07,163.74,186.73,167.71,188.58,171.64z M180.7,107.53c1.93,0.24,3.74,0.56,5.56,0.67c7.55,0.46,14.84-0.62,21.87-3.54
			c6.84-2.84,14-4.91,20.58-8.37c6.27-3.29,12.85-5.83,19.54-8.1c2.69-0.91,5.42-1.71,8.32-1.74c3.68-0.04,7.19,0.85,10.7,1.77
			c5.73,1.51,11.35,3.45,17.24,4.3c0.87,0.13,0.64,0.7,0.6,1.22c-0.22,2.67-1.2,5.16-1.87,7.72c-0.39,1.49-1.04,2.85-2.02,4.05
			c-0.96,1.18-1.96,2.34-2.81,3.59c-0.8,1.18-0.83,2.76-0.25,3.16c0.6,0.41,2.27,0.02,3.07-0.93c1.79-2.14,4.09-3.74,5.89-5.84
			c1.64-1.91,3.56-3.62,4.62-5.97c0.72-1.61,1.07-3.34,1.39-5.07c0.07-0.36-0.03-0.9,0.55-0.84c0.57,0.06,0.41,0.59,0.41,0.94
			c0,0.9-0.01,1.8-0.09,2.69c-0.15,1.45-0.16,2.88-1.07,4.23c-2.48,3.69-5.28,7.05-8.86,9.72c-1.47,1.1-2.87,2.29-4.24,3.5
			c-2.95,2.59-6.35,4.34-9.99,5.73c-6.98,2.66-14.24,4.04-21.62,4.87c-11.98,1.36-23.91,2.99-35.62,5.97
			c-0.38,0.1-0.78,0.26-1.13,0.01c-1.55-1.1-3.52-1.32-5.08-2.36c-1.9-1.27-4.05-1.52-6.22-1.76c-3.22-0.36-6.4-0.92-9.5-1.93
			c-0.77-0.25-1.35-0.66-1.84-1.33c-1.93-2.62-3.54-5.42-4.82-8.41C182.88,112.87,181.82,110.24,180.7,107.53z M168.1,103.56
			c1.05,0.42,1.96,0.86,2.93,1.14c0.91,0.27,1.3,0.8,1.47,1.71c0.92,4.97,2.86,9.54,5.55,13.8c0.75,1.19,1.49,2.38,2.21,3.58
			c0.13,0.21,0.49,0.74,0.02,0.71c-1.05-0.05-2.23,0.29-3.13-0.53c-2.33-2.12-4.38-4.45-5.36-7.53c-1.14-3.6-2.27-7.2-3.38-10.82
			C168.21,105.01,167.95,104.38,168.1,103.56z M164.96,55.01c1.84,0.28,3.44,0.92,5.48,0.73C168.28,57.67,167.37,56.92,164.96,55.01
			z M150.81,54.73c0.01-0.14,0.02-0.28,0.03-0.42c0.8,0,1.61,0.08,2.39-0.02c1.55-0.2,2.87,0.23,4.17,1.07
			c2.06,1.33,4.27,2.4,6.6,3.2c0.18,0.06,0.47,0.05,0.43,0.38c-0.84-0.04-1.65-0.08-2.46-0.11c-0.62-0.02-1.24,0.05-1.78-0.4
			c-0.64-0.54-1.42-0.79-2.2-1.03C155.54,56.67,153.13,55.81,150.81,54.73z M9.04,40.24c2.22-14.94,11.31-16.48,14-17.08
			c3.74-0.84,7.56-1.14,11.33-1.7c11.86-1.78,23.78-2.74,35.76-3.23c6.78-0.28,13.53-1.03,20.23-2.19
			c10.5-1.82,21.03-3.4,31.71-3.65c5.57-0.13,11.11-0.67,16.68-0.85c6.5-0.2,13.01-0.69,19.52-0.77c6.48-0.07,12.93-0.78,19.42-0.51
			c1.05,0.04,5.43,0.11,6.6,0.06c5.11-0.21,10.21-0.43,15.32-0.64c3.82-0.16,7.64-0.31,11.46-0.51c0.76-0.04,1.02,0.17,1.06,0.94
			c0.06,1.18,0.55,2.27,1.07,3.32c2.2,4.47,3.7,9.18,4.8,14.03c0.11,0.48,0.64,1.16-0.04,1.45c-0.79,0.34-1.53,1.18-2.57,0.51
			c-2.2-1.4-4.63-2.18-7.16-2.77c-3.25-0.75-6.62-1.17-9.54-3.03c-0.49-0.31-1.1-0.39-1.7-0.37c-0.66,0.03-0.92,0.3-0.64,0.98
			c0.39,0.94,1.09,1.6,1.87,2.2c2.02,1.57,4.27,2.73,6.57,3.81c1.62,0.76,3.2,1.62,4.81,2.42c0.63,0.32,0.71,0.64,0.08,1.06
			c-1.11,0.73-2.17,1.53-3.31,2.2c-3.5,2.05-7.12,3.91-10.53,6.1c-6.65,4.27-13.65,7.88-20.63,11.53c-0.56,0.29-0.98,0.31-1.48-0.09
			c-1.12-0.9-17.85-3.78-20.16-5.23c-1.73-1.09-3.5-2.12-5.33-3.23c1.67-1.15,1.63-1.67-0.02-2.54c-0.56-0.29-1.15-0.52-1.78-0.53
			c-2.44-0.03-4.29-1.19-5.84-2.97c-0.95-1.09-6.3-6.05-7.12-7.05c-0.59-0.71-1.54-1.95-2.1-1.47c-0.75,0.65,0.3,1.7,0.81,2.49
			c0.35,0.55,3.72,6.67,4.42,7.52c0.33,0.39,0.28,0.66-0.25,0.67c-2.65,0.06-5.36,0.34-7.93-0.26c-2.15-0.5-3.93,0.26-5.78,0.87
			c-1.04,0.34-1.71,1.2-1.36,2.54c-1.59-1.62-2.83-3.41-4.09-5.18c-0.48-0.68-2.3-2.12-2.59-1.93c-0.32,0.21-0.31,0.61-0.27,0.96
			c0.09,0.87,0.41,1.65,0.88,2.39c2.01,3.21,4.01,6.43,6.86,9c0.56,0.5,0.48,0.79-0.21,1.03c-0.72,0.26-1.34,0.7-1.73,1.34
			c-0.44,0.71-0.79,0.49-1.26,0.05c-1.14-1.07-2.3-2.11-3.32-3.3c-0.67-0.79-1.47-1.38-2.48-1.68c-0.84-0.25-1.28-0.01-1.24,0.92
			c0.03,0.97,0.35,1.82,0.97,2.57c1.78,2.13,3.69,4.13,5.73,6.01c0.9,0.83,1.81,1.65,2.72,2.48c-2.36,0-4.65,0.12-6.92-0.02
			c-5.45-0.36-10.88-1.01-16.33-1.22c-4.19-0.17-6.88-2.89-10.01-5.01c1.66,0,3.28,0.1,4.87,0.33c4.48,0.65,8.97,1.21,13.51,1.2
			c1.57,0,3.04-0.25,4.15-1.51c0.58-0.66,0.44-1.58-0.25-1.55c-1.61,0.08-8.21-0.6-9.94-0.88c-6.35-1.04-12.69-2.14-19.03-3.22
			c-0.56-0.1-1.02-0.36-1.43-0.75c-2.57-2.45-5.17-4.87-7.31-7.73c-0.32-0.43-0.75-0.79-1.17-1.13c-0.26-0.21-0.58-0.5-0.94-0.32
			c-0.39,0.19-0.25,0.62-0.25,0.95c0,0.81,0.32,1.53,0.8,2.16c0.86,1.16,1.76,2.29,2.65,3.42c0.66,0.85,1.33,1.68,2.17,2.74
			c-1.58-0.05-7.29-0.17-7.93-0.17c-3.43,0.02-6.87,0.02-10.29,0.31c-5.71,0.5-11.39,1.22-17.14,1.29
			c-4.64,0.06-8.85-1.11-12.87-3.3c-1.12-0.61-2.09-1.35-2.7-2.5c-0.31-0.58-0.71-1.13-1.3-1.49c-0.56-0.34-1.18-0.91-1.8-0.57
			c-0.73,0.39-0.71,1.28-0.6,2.01c0.32,2.16,1.42,3.91,3.21,5.1c4.51,2.98,9.38,4.9,14.89,4.89c4.84-0.01,9.68-0.1,14.51-0.2
			c6.12-0.14,12.25-0.03,18.38-0.02c0.34,0,0.79-0.02,1.01,0.17c1.25,1.07,2.45,2.21,3.84,3.49c-0.49,0.04-0.68,0.09-0.86,0.07
			c-3.35-0.36-6.71-0.1-10.06-0.15c-9.79-0.16-19.59,0.39-29.36-0.71c-5.06-0.57-9.82-1.92-14.01-4.82
			c-2.38-1.64-4.53-3.6-5.43-6.54c-0.43-1.41-0.43-2.86-0.48-4.29c-0.07-2.33-0.13-4.7,1.75-6.53c0.11-0.1,0.18-0.26,0.24-0.4
			c0.26-0.68,0.86-1.61,0.29-2.05c-0.71-0.55-1.64,0.14-2.1,0.75c-1.68,2.18-3.54,4.24-4.19,7.07c-1.56,6.78,0.8,12.24,5.7,16.72
			c3.68,3.37,8.24,5.2,13.1,6.1c10.82,2.01,21.78,1.39,32.69,1.5c4.6,0.05,9.21-0.25,13.8,0.29c6.27,0.73,12.54,1.54,18.86,1.8
			c3.42,0.14,6.84,0.36,10.25,0.6c6.46,0.45,12.91,1.19,19.38,1.19c6.16,0,12.33-0.03,18.5-0.01c1.32,0,2.65-0.08,3.97-0.15
			c1.67-0.09,3.35-0.21,5.02-0.29c0.3-0.01,0.73-0.15,0.84,0.38c0.13,0.64-0.56,1.66-1.22,1.72c-4.31,0.4-8.61,0.94-12.93,1.15
			c-13.28,0.63-26.51,0.21-39.7-1.61c-8.8-1.22-17.6-2.64-26.51-2.89c-3.98-0.11-7.96-0.27-11.94,0.01
			c-8.93,0.62-17.84,0.82-26.75-0.33c-6.58-0.85-12.81-2.63-18.5-6.14c-3.18-1.96-5.41-4.78-7.56-7.71
			c-0.46-0.63-0.62-1.43-0.76-2.2C8.58,45.37,8.66,42.79,9.04,40.24z M133.23,45.52c2.68-0.52,5.06-0.56,7.42-0.72
			c0.18-0.01,0.42,0.03,0.56,0.14c1.72,1.36,3.43,2.75,5.18,4.16C141.4,50.21,137.32,48.49,133.23,45.52z M139.55,55.23
			c1.59,1.02,3.07,2.21,4.6,3.33c-0.05,0.09-0.11,0.18-0.16,0.27c-2.4-1.01-4.77-2.09-7.32-3.45
			C137.83,55.17,138.77,54.74,139.55,55.23z M127.41,49.92c-1.79-1.24-3.4-2.68-4.86-4.36c1.08,0.35,2.15,0.56,3.22,0.35
			c2.29-0.45,4.09,0.23,5.48,2.09c0.49,0.65,1.34,0.98,1.7,1.9c-1.31,0.08-2.51,0.17-3.71,0.21
			C128.63,50.14,127.95,50.3,127.41,49.92z M131.54,57.19c-1.07-0.27-2.1-0.63-3.23-1.37C129.96,55.47,130.66,56.51,131.54,57.19z
			 M78.42,52c0.96-0.09,1.97-0.35,2.69,0.18c1.8,1.33,3.48,2.83,5.36,4.39C82.67,56.69,80.72,54.06,78.42,52z"/>
	</g>
</g>
</svg>
